<svg xmlns="http://www.w3.org/2000/svg" viewBox="0 0 24 24" width="16" height="16" size="16" color="currentColor"><path fill="currentColor" fill-rule="evenodd" d="M19.25 16.75H17a.75.75 0 110-1.5h6a.75.75 0 110 1.5h-2.25V21a.75.75 0 11-1.5 0v-4.25zm-8-9.5V3a.75.75 0 111.5 0v4.25H15a.75.75 0 110 1.5H9a.75.75 0 010-1.5h2.25zm-8 7.5H1a.75.75 0 110-1.5h6a.75.75 0 110 1.5H4.75V21a.75.75 0 11-1.5 0v-6.25zM4.75 10a.75.75 0 11-1.5 0V3a.75.75 0 011.5 0v7zm8 11a.75.75 0 11-1.5 0v-9a.75.75 0 111.5 0v9zm8-9a.75.75 0 11-1.5 0V3a.75.75 0 111.5 0v9z"></path></svg>