<svg xmlns="http://www.w3.org/2000/svg" viewBox="0 0 24 24" width="16" height="16" size="16" color="currentColor"><path fill="currentColor" fill-rule="evenodd" d="M2.75 7.75V18c0 .69.56 1.25 1.25 1.25h16c.69 0 1.25-.56 1.25-1.25V9c0-.69-.56-1.25-1.25-1.25H2.75zm0-1.5h15.5V6c0-.69-.56-1.25-1.25-1.25H4c-.69 0-1.25.56-1.25 1.25v.25zm17.25 0A2.75 2.75 0 0122.75 9v9A2.75 2.75 0 0120 20.75H4A2.75 2.75 0 011.25 18V6A2.75 2.75 0 014 3.25h13A2.75 2.75 0 0119.75 6v.25H20zm-2 8.25a1 1 0 110-2 1 1 0 010 2z"></path></svg>