<svg xmlns="http://www.w3.org/2000/svg" viewBox="0 0 24 24" width="16" height="16" size="16" color="currentColor"><path fill="currentColor" fill-rule="evenodd" d="M14.449 17.792l-5.652-3.294a3.75 3.75 0 110-4.997l5.65-3.298a3.75 3.75 0 11.756 1.295l-5.65 3.299c.128.377.197.782.197 1.203 0 .42-.07.825-.197 1.203l5.654 3.295a3.75 3.75 0 11-.758 1.294zm1.555.17a2.25 2.25 0 10.113-.192.756.756 0 01-.113.191zm-8.034-7.05a.761.761 0 01-.052-.09 2.25 2.25 0 10.052.089zm8.06-4.824a.761.761 0 01.052.09 2.25 2.25 0 10-.052-.089z"></path></svg>