<svg xmlns="http://www.w3.org/2000/svg" viewBox="0 0 32 40" x="0px" y="0px"><g><path d="M27.56641,27.59473H4.43359a3.28259,3.28259,0,0,1-3.27438-3.28128l0-16.15378A3.28446,3.28446,0,0,1,4.43363,4.88529l23.13278,0A3.28282,3.28282,0,0,1,30.84079,8.1636l0,16.15671a3.281,3.281,0,0,1-3.26953,3.27442Zm-23.13282-2c.07157-.00195,23.13836.00374,23.20411-.002L20.77734,17.7583C19.49841,19.16477,18.17869,21.296,16,21.18009c-2.17256.11873-3.50523-2.01984-4.7773-3.42179L4.3623,25.59277c.02588.00244.04834.002.07178.002Zm17.67286-9.3545,6.73437,7.69092V8.54883ZM3.15918,8.54883V23.93115l6.73437-7.69092Zm12.792,10.63086a1.93394,1.93394,0,0,0,1.501-.65967L27.6377,6.88721c-.15264-.00379-23.11987-.00374-23.2754,0,.01276.01423,7.60075,8.68156,7.61276,8.6943l2.57133,2.937A1.92955,1.92955,0,0,0,15.95117,19.17969Z"/></g></svg>