<?xml version="1.0" standalone="no"?>
<!DOCTYPE svg PUBLIC "-//W3C//DTD SVG 20010904//EN"
 "http://www.w3.org/TR/2001/REC-SVG-20010904/DTD/svg10.dtd">
<svg version="1.0" xmlns="http://www.w3.org/2000/svg"
 width="48.000000pt" height="48.000000pt" viewBox="0 0 48.000000 48.000000"
 preserveAspectRatio="xMidYMid meet">

<g transform="translate(0.000000,48.000000) scale(0.100000,-0.100000)"
fill="#764701" stroke="none">
<path d="M132 398 c-18 -18 -16 -118 3 -118 11 0 15 12 15 50 l0 50 90 0 90 0
0 -140 0 -140 -90 0 -90 0 0 50 c0 38 -4 50 -15 50 -19 0 -21 -100 -3 -118 16
-16 200 -16 216 0 17 17 17 299 0 316 -16 16 -200 16 -216 0z"/>
<path d="M185 300 c-4 -6 -2 -17 4 -23 21 -21 11 -27 -49 -27 -33 0 -60 -4
-60 -9 0 -14 27 -21 77 -21 40 0 44 -2 33 -15 -9 -10 -10 -19 -4 -25 7 -7 22
3 44 25 l34 35 -36 36 c-24 25 -38 32 -43 24z"/>
</g>
</svg>
