<svg xmlns="http://www.w3.org/2000/svg" width="24" height="24" viewBox="0 0 24 24" aria-hidden="true"><path fill="currentColor" fill-rule="evenodd" d="M3,2.25 L10,2.25 C10.4142136,2.25 10.75,2.58578644 10.75,3 L10.75,10 C10.75,10.4142136 10.4142136,10.75 10,10.75 L3,10.75 C2.58578644,10.75 2.25,10.4142136 2.25,10 L2.25,3 C2.25,2.58578644 2.58578644,2.25 3,2.25 Z M3.75,9.25 L9.25,9.25 L9.25,3.75 L3.75,3.75 L3.75,9.25 Z M14,2.25 L21,2.25 C21.4142136,2.25 21.75,2.58578644 21.75,3 L21.75,10 C21.75,10.4142136 21.4142136,10.75 21,10.75 L14,10.75 C13.5857864,10.75 13.25,10.4142136 13.25,10 L13.25,3 C13.25,2.58578644 13.5857864,2.25 14,2.25 Z M14.75,9.25 L20.25,9.25 L20.25,3.75 L14.75,3.75 L14.75,9.25 Z M14,13.25 L21,13.25 C21.4142136,13.25 21.75,13.5857864 21.75,14 L21.75,21 C21.75,21.4142136 21.4142136,21.75 21,21.75 L14,21.75 C13.5857864,21.75 13.25,21.4142136 13.25,21 L13.25,14 C13.25,13.5857864 13.5857864,13.25 14,13.25 Z M14.75,20.25 L20.25,20.25 L20.25,14.75 L14.75,14.75 L14.75,20.25 Z M3,13.25 L10,13.25 C10.4142136,13.25 10.75,13.5857864 10.75,14 L10.75,21 C10.75,21.4142136 10.4142136,21.75 10,21.75 L3,21.75 C2.58578644,21.75 2.25,21.4142136 2.25,21 L2.25,14 C2.25,13.5857864 2.58578644,13.25 3,13.25 Z M3.75,20.25 L9.25,20.25 L9.25,14.75 L3.75,14.75 L3.75,20.25 Z"></path></svg>