<svg><path fill="currentColor" fill-rule="evenodd" d="M12,22.75 C6.06293894,22.75 1.25,17.9370611 1.25,12 C1.25,6.06293894 6.06293894,1.25 12,1.25 C17.9370611,1.25 22.75,6.06293894 22.75,12 C22.75,17.9370611 17.9370611,22.75 12,22.75 Z M12,21.25 C17.1086339,21.25 21.25,17.1086339 21.25,12 C21.25,6.89136606 17.1086339,2.75 12,2.75 C6.89136606,2.75 2.75,6.89136606 2.75,12 C2.75,17.1086339 6.89136606,21.25 12,21.25 Z M12.75,11.25 L16,11.25 C16.4142136,11.25 16.75,11.5857864 16.75,12 C16.75,12.4142136 16.4142136,12.75 16,12.75 L12.75,12.75 L12.75,16 C12.75,16.4142136 12.4142136,16.75 12,16.75 C11.5857864,16.75 11.25,16.4142136 11.25,16 L11.25,12.75 L8,12.75 C7.58578644,12.75 7.25,12.4142136 7.25,12 C7.25,11.5857864 7.58578644,11.25 8,11.25 L11.25,11.25 L11.25,8 C11.25,7.58578644 11.5857864,7.25 12,7.25 C12.4142136,7.25 12.75,7.58578644 12.75,8 L12.75,11.25 Z"></path></svg>