<svg xmlns="http://www.w3.org/2000/svg" viewBox="0 0 24 24" width="16" height="16" size="16" color="currentColor"><path fill="currentColor" fill-rule="evenodd" d="M7.25 6.25V5A2.75 2.75 0 0110 2.25h4A2.75 2.75 0 0116.75 5v1.25H20A2.75 2.75 0 0122.75 9v10A2.75 2.75 0 0120 21.75H4A2.75 2.75 0 011.25 19V9A2.75 2.75 0 014 6.25h3.25zm1.5 0h6.5V5c0-.69-.56-1.25-1.25-1.25h-4c-.69 0-1.25.56-1.25 1.25v1.25zM4 7.75c-.69 0-1.25.56-1.25 1.25v10c0 .69.56 1.25 1.25 1.25h16c.69 0 1.25-.56 1.25-1.25V9c0-.69-.56-1.25-1.25-1.25H4z"></path></svg>