<svg><path fill="currentColor" fill-rule="evenodd" d="M19.27 13.635a9.25 9.25 0 01-8.268 5.115 9.13 9.13 0 01-3.854-.842l-5.41 1.803a.75.75 0 01-.95-.948l1.804-5.411A9.128 9.128 0 011.75 9.5a9.249 9.249 0 015.112-8.27A9.128 9.128 0 0111 .25l.541.001C16.24.511 19.99 4.261 20.25 9v.5a9.127 9.127 0 01-.98 4.135zM6.964 16.39a.75.75 0 01.575.042A7.631 7.631 0 0011 17.25a7.751 7.751 0 006.93-4.288 7.63 7.63 0 00.82-3.46l.001-.46c-.217-3.935-3.358-7.076-7.251-7.292h-.502a7.633 7.633 0 00-3.463.82A7.75 7.75 0 003.25 9.503a7.63 7.63 0 00.82 3.46.75.75 0 01.041.575l-1.425 4.277 4.277-1.425z" clip-rule="evenodd"></path></svg>