<svg><path fill="currentColor" fill-rule="evenodd" d="M3,12.75 C2.58578644,12.75 2.25,12.4142136 2.25,12 C2.25,11.5857864 2.58578644,11.25 3,11.25 L21,11.25 C21.4142136,11.25 21.75,11.5857864 21.75,12 C21.75,12.4142136 21.4142136,12.75 21,12.75 L3,12.75 Z M3,6.75 C2.58578644,6.75 2.25,6.41421356 2.25,6 C2.25,5.58578644 2.58578644,5.25 3,5.25 L21,5.25 C21.4142136,5.25 21.75,5.58578644 21.75,6 C21.75,6.41421356 21.4142136,6.75 21,6.75 L3,6.75 Z M3,18.75 C2.58578644,18.75 2.25,18.4142136 2.25,18 C2.25,17.5857864 2.58578644,17.25 3,17.25 L21,17.25 C21.4142136,17.25 21.75,17.5857864 21.75,18 C21.75,18.4142136 21.4142136,18.75 21,18.75 L3,18.75 Z"></path></svg>