<svg><path fill="currentColor" fill-rule="evenodd" d="M22,17.75 L2,17.75 C1,17.75 1,16.25 2,16.25 C3.24264069,16.25 4.25,15.2426406 4.25,13.9999999 L4.25,8.99999988 C4.25,4.71979312 7.71979323,1.25 12,1.25 C16.2802068,1.25 19.75,4.71979312 19.75,8.9999999 L19.75,13.9999999 C19.75,15.2426406 20.7573593,16.25 22,16.25 C23,16.25 23,17.75 22,17.75 Z M18.25,13.9999999 L18.25,8.99999991 C18.2499999,5.54822026 15.4517797,2.75 12,2.75 C8.54822035,2.75 5.75000005,5.54822026 5.75,8.9999999 L5.75,13.9999999 C5.75,14.8442043 5.47104138,15.6232545 5.00027464,16.25 L18.9997254,16.25 C18.5289586,15.6232545 18.25,14.8442043 18.25,13.9999999 Z M14.37875,21.3763288 C13.8867781,22.2244348 12.9804693,22.7464562 12,22.7464562 C11.0195307,22.7464562 10.1132219,22.2244348 9.62125,21.3763288 C9.33120937,20.8763304 9.69196714,20.2499999 10.27,20.2499999 L13.73,20.2499999 C14.3080329,20.2499999 14.6687906,20.8763304 14.37875,21.3763288 Z"></path></svg>