<svg><path fill="currentColor" fill-rule="evenodd" d="M13.1893398,12.75 L3,12.75 C2.58578644,12.75 2.25,12.4142136 2.25,12 C2.25,11.5857864 2.58578644,11.25 3,11.25 L13.1893398,11.25 L10.4696699,8.53033009 C10.1767767,8.23743687 10.1767767,7.76256313 10.4696699,7.46966991 C10.7625631,7.1767767 11.2374369,7.1767767 11.5303301,7.46966991 L15.5303301,11.4696699 C15.8232233,11.7625631 15.8232233,12.2374369 15.5303301,12.5303301 L11.5303301,16.5303301 C11.2374369,16.8232233 10.7625631,16.8232233 10.4696699,16.5303301 C10.1767767,16.2374369 10.1767767,15.7625631 10.4696699,15.4696699 L13.1893398,12.75 L13.1893398,12.75 Z M14,22.75 C13.5857864,22.75 13.25,22.4142136 13.25,22 C13.25,21.5857864 13.5857864,21.25 14,21.25 L19,21.25 C19.6903559,21.25 20.25,20.6903559 20.25,20 L20.25,4 C20.25,3.30964406 19.6903559,2.75 19,2.75 L14,2.75 C13.5857864,2.75 13.25,2.41421356 13.25,2 C13.25,1.58578644 13.5857864,1.25 14,1.25 L19,1.25 C20.5187831,1.25 21.75,2.48121694 21.75,4 L21.75,20 C21.75,21.5187831 20.5187831,22.75 19,22.75 L14,22.75 Z"></path></svg>