<svg xmlns="http://www.w3.org/2000/svg" xmlns:xlink="http://www.w3.org/1999/xlink" xml:space="preserve" version="1.1" style="shape-rendering:geometricPrecision;text-rendering:geometricPrecision;image-rendering:optimizeQuality;" viewBox="0 0 333 416.25" x="0px" y="0px" fill-rule="evenodd" clip-rule="evenodd"><defs><style type="text/css">
   
    .fil0 {fill:black}
   
  </style></defs><g><path class="fil0" d="M91 16l151 0c10,0 19,9 19,19l0 264c0,10 -9,18 -19,18l-151 0c-10,0 -18,-8 -18,-18l0 -264c0,-10 8,-19 18,-19zm76 271c6,0 12,6 12,13 0,6 -6,12 -12,12 -7,0 -13,-6 -13,-12 0,-7 6,-13 13,-13zm-44 -254l83 0 0 5 -83 0 0 -5zm-31 19l149 0 0 230 -149 0 0 -230z"/><path class="fil0" d="M195 125c9,6 22,19 14,35 -7,14 -35,43 -48,50 -16,8 -29,-5 -35,-13 -16,-21 22,-32 22,-18 0,29 59,-32 30,-32 -14,1 -4,-37 17,-22z"/></g></svg>