<svg><path fill="currentColor" fill-rule="evenodd" d="M18.8419536,6.58702874 C19.6509949,6.07647762 20.2717828,5.26692317 20.5631273,4.30254882 C19.8056316,4.77646317 18.9685764,5.11919425 18.0754934,5.30474177 C17.36282,4.50109648 16.3442347,4 15.2169556,4 C13.0542829,4 11.3017337,5.84956601 11.3017337,8.13050044 C11.3017337,8.45432222 11.3342298,8.76987118 11.4014631,9.07123817 C8.1473691,8.89869079 5.26193792,7.25594527 3.32897917,4.75519021 C2.99169188,5.36737883 2.79895628,6.07647762 2.79895628,6.83284966 C2.79895628,8.26522921 3.49033921,9.52978871 4.54142054,10.2719788 C3.89934207,10.2507058 3.2953625,10.0627946 2.76646016,9.7555185 L2.76646016,9.80633724 C2.76646016,11.8083595 4.11560934,13.4782871 5.90961917,13.8564732 C5.58017577,13.9533833 5.23504458,14.0018384 4.87646673,14.0018384 C4.62434167,14.0018384 4.3778194,13.9770199 4.14026157,13.9285649 C4.63778834,15.5689467 6.08442588,16.76496 7.79887624,16.7968695 C6.45757096,17.9054272 4.76889337,18.5648891 2.93454353,18.5648891 C2.6185468,18.5648891 2.30591173,18.5471616 2,18.5081612 C3.73349982,19.679356 5.79196081,20.3636364 8.00393795,20.3636364 C15.2091117,20.3636364 19.1467448,14.0692028 19.1467448,8.61032395 C19.1467448,8.43068559 19.1445037,8.25222907 19.1366598,8.0761362 C19.9019994,7.49349336 20.5676095,6.76548527 21.0909091,5.93702152 C20.3883206,6.26557063 19.633066,6.48775491 18.8419536,6.58702874 Z"></path></svg>