<svg xmlns="http://www.w3.org/2000/svg" xmlns:xlink="http://www.w3.org/1999/xlink" version="1.1" x="0px" y="0px" viewBox="0 0 64 80" style="enable-background:new 0 0 64 64;" xml:space="preserve"><g><path d="M32,5C17.1,5,5,17.1,5,32c0,5.6,1.7,11.1,5,15.7c0.2,0.3,0.2,0.7,0.1,1l-4.2,9.4l9.5-4c0.1-0.1,0.3-0.1,0.5-0.1   c0.2,0,0.4,0.1,0.6,0.2C21.1,57.3,26.4,59,32,59c14.9,0,27-12.1,27-27S46.9,5,32,5z M46.7,43.8c-0.4,0.7-0.8,1.3-1.4,1.8   c-0.9,0.9-2,1.6-3.3,1.9c0,0-0.1,0-0.1,0c-2.8-0.8-6-2.4-9.3-4.8c-2.1-1.5-4.1-3.3-6.1-5.3c-2-2-3.7-4-5.3-6.1   c-2.4-3.3-4-6.5-4.8-9.3c0,0,0-0.1,0-0.1c0.4-1.2,1-2.4,1.9-3.3c0.5-0.5,1.2-1,1.8-1.4c1.1-0.6,2.3-0.9,3.5-0.9c0.3,0,0.5,0,0.8,0   c0.1,0,0.2,0.1,0.2,0.2c0.3,0.7,0.5,1.3,0.8,1.8c0.7,1.8,1.2,3.2,3.4,5.7c0.1,0.1,0.1,0.2,0,0.3c-0.4,1.1-1,2.1-1.8,2.9   c-0.2,0.2-0.3,0.3-0.5,0.4c-0.5,0.4-0.8,1-0.8,1.6c0,0.6,0.2,1.2,0.6,1.7c0.4,0.4,2.9,2.9,3.2,3.3c0.4,0.4,2.8,2.8,3.3,3.2   c0.4,0.4,1.1,0.6,1.7,0.6c0.6,0,1.2-0.3,1.6-0.8c0.1-0.2,0.3-0.3,0.5-0.5c0.8-0.8,1.8-1.4,2.9-1.8c0.1,0,0.2,0,0.3,0   c2.5,2.1,3.9,2.7,5.7,3.4c0.5,0.2,1.1,0.4,1.8,0.8c0.1,0,0.2,0.1,0.2,0.2C47.7,40.9,47.4,42.5,46.7,43.8z"/></g></svg>