<svg width="340" height="844" viewBox="0 0 340 844" fill="none" xmlns="http://www.w3.org/2000/svg">
<rect width="336" height="844" fill="url(#paint0_linear_46_233)"/>
<g clip-path="url(#clip0_46_233)">
<path d="M-208.421 -52.6638C-203.647 -64.8432 -197.618 -76.5898 -190.438 -87.6738C-183.244 -98.754 -174.904 -109.159 -165.564 -118.712C-156.224 -128.265 -145.888 -136.953 -134.777 -144.647C-123.652 -152.338 -111.756 -159.022 -99.2879 -164.591C-86.8193 -170.16 -73.7919 -174.619 -60.4504 -177.898C-47.0954 -181.174 -33.4305 -183.259 -19.6926 -184.11C-5.95464 -184.961 7.86041 -184.59 21.4735 -183.007C35.1138 -181.417 48.5385 -178.619 61.542 -174.711C48.3714 -178.106 34.8845 -180.349 21.3127 -181.375C7.74489 -182.413 -5.89415 -182.23 -19.3445 -180.849C-32.8084 -179.471 -46.0836 -176.896 -58.9251 -173.19C-71.7802 -169.488 -84.2193 -164.647 -95.9988 -158.776C-107.792 -152.909 -118.943 -146.003 -129.237 -138.217C-139.549 -130.422 -149.008 -121.734 -157.449 -112.298C-165.889 -102.862 -173.316 -92.7059 -179.6 -81.9989C-185.885 -71.2918 -191.009 -60.0422 -194.935 -48.4577C-196.1 -45.0199 -200.078 -43.2545 -203.824 -44.3425C-207.57 -45.4305 -209.676 -48.951 -208.506 -52.4013C-208.478 -52.4888 -208.453 -52.5638 -208.411 -52.6475L-208.421 -52.6638Z" fill="url(#paint1_linear_46_233)"/>
</g>
<defs>
<linearGradient id="paint0_linear_46_233" x1="-7.51019e-06" y1="844" x2="214" y2="-1.85635e-05" gradientUnits="userSpaceOnUse">
<stop offset="0.562705" stop-color="white"/>
<stop offset="1" stop-color="#FFCB46"/>
</linearGradient>
<linearGradient id="paint1_linear_46_233" x1="30.9791" y1="-80.9808" x2="-177.174" y2="-148.854" gradientUnits="userSpaceOnUse">
<stop stop-color="#F7BB05"/>
<stop offset="1" stop-color="#EE9F00"/>
</linearGradient>
<clipPath id="clip0_46_233">
<rect width="340" height="235" fill="white" transform="translate(0 1)"/>
</clipPath>
</defs>
</svg>
