<svg width="100" height="100" viewBox="0 0 100 100" fill="none" xmlns="http://www.w3.org/2000/svg">
<path d="M15.6574 96.7784L18.3729 86.2968H19.7962L19.637 88.9984L16.7342 99.8143H15.2548L15.6574 96.7784ZM13.6255 86.2968L15.826 96.6949L16.0226 99.8143H14.4495L11.2939 86.2968H13.6255ZM22.8768 96.667L25.0492 86.2968H27.3901L24.2345 99.8143H22.6615L22.8768 96.667ZM20.3486 86.2968L23.036 96.8063L23.4293 99.8143H21.9498L19.0939 88.9984L18.9441 86.2968H20.3486Z" fill="#3E444C"/>
<path d="M40.003 92.6842V93.4269C40.003 94.4481 39.8688 95.3642 39.6003 96.175C39.3319 96.9858 38.948 97.6759 38.4486 98.2453C37.9555 98.8147 37.3624 99.2511 36.6695 99.5543C35.9766 99.8514 35.2088 100 34.366 100C33.5296 100 32.7649 99.8514 32.0719 99.5543C31.3853 99.2511 30.7891 98.8147 30.2835 98.2453C29.7778 97.6759 29.3846 96.9858 29.1037 96.175C28.829 95.3642 28.6917 94.4481 28.6917 93.4269V92.6842C28.6917 91.6629 28.829 90.75 29.1037 89.9454C29.3783 89.1346 29.7654 88.4445 30.2648 87.875C30.7704 87.2994 31.3666 86.8631 32.0532 86.566C32.7461 86.2627 33.5108 86.1111 34.3473 86.1111C35.1901 86.1111 35.9579 86.2627 36.6508 86.566C37.3437 86.8631 37.9399 87.2994 38.4392 87.875C38.9386 88.4445 39.3226 89.1346 39.591 89.9454C39.8656 90.75 40.003 91.6629 40.003 92.6842ZM37.6527 93.4269V92.6656C37.6527 91.9105 37.5778 91.2451 37.428 90.6695C37.2844 90.0877 37.069 89.6019 36.7819 89.2119C36.501 88.8158 36.1545 88.5187 35.7425 88.3207C35.3305 88.1164 34.8654 88.0143 34.3473 88.0143C33.8292 88.0143 33.3673 88.1164 32.9615 88.3207C32.5557 88.5187 32.2093 88.8158 31.9221 89.2119C31.6412 89.6019 31.4259 90.0877 31.276 90.6695C31.1262 91.2451 31.0513 91.9105 31.0513 92.6656V93.4269C31.0513 94.182 31.1262 94.8504 31.276 95.4322C31.4259 96.014 31.6443 96.5061 31.9315 96.9084C32.2249 97.3045 32.5745 97.6047 32.9802 97.8089C33.386 98.007 33.8479 98.106 34.366 98.106C34.8904 98.106 35.3555 98.007 35.7612 97.8089C36.167 97.6047 36.5103 97.3045 36.7912 96.9084C37.0722 96.5061 37.2844 96.014 37.428 95.4322C37.5778 94.8504 37.6527 94.182 37.6527 93.4269Z" fill="#3E444C"/>
<path d="M42.3533 86.2968H47.1756C48.2118 86.2968 49.0951 86.4515 49.8255 86.761C50.5558 87.0704 51.1145 87.5284 51.5016 88.135C51.8949 88.7354 52.0915 89.4781 52.0915 90.3632C52.0915 91.0378 51.9666 91.632 51.7169 92.1457C51.4672 92.6594 51.1145 93.0927 50.6588 93.4455C50.2031 93.7921 49.6601 94.0613 49.0296 94.2532L48.3179 94.5967H43.9825L43.9638 92.7492H47.213C47.7748 92.7492 48.243 92.6501 48.6176 92.4521C48.9921 92.254 49.273 91.9848 49.4603 91.6444C49.6538 91.2978 49.7506 90.9078 49.7506 90.4746C49.7506 90.0042 49.6569 89.5957 49.4697 89.2491C49.2886 88.8963 49.0077 88.6271 48.6269 88.4414C48.2461 88.2495 47.7624 88.1536 47.1756 88.1536H44.7035V99.8143H42.3533V86.2968ZM50.1345 99.8143L46.9321 93.7425L49.3948 93.7333L52.6439 99.6936V99.8143H50.1345Z" fill="#3E444C"/>
<path d="M56.7827 86.2968V99.8143H54.4324V86.2968H56.7827ZM64.9759 86.2968L59.4513 92.8049L56.3051 96.11L55.8931 93.7982L58.1404 91.0502L62.1106 86.2968H64.9759ZM62.4477 99.8143L57.9625 93.4083L59.5824 91.8208L65.2381 99.8143H62.4477Z" fill="#3E444C"/>
<path d="M75.4726 97.9668V99.8143H68.2345V97.9668H75.4726ZM68.8993 86.2968V99.8143H66.549V86.2968H68.8993ZM74.5269 91.9414V93.7611H68.2345V91.9414H74.5269ZM75.4258 86.2968V88.1536H68.2345V86.2968H75.4258Z" fill="#3E444C"/>
<path d="M77.3922 86.2968H82.2144C83.2507 86.2968 84.134 86.4515 84.8644 86.761C85.5947 87.0704 86.1534 87.5284 86.5405 88.135C86.9337 88.7354 87.1304 89.4781 87.1304 90.3632C87.1304 91.0378 87.0055 91.632 86.7558 92.1457C86.5061 92.6594 86.1534 93.0927 85.6977 93.4455C85.242 93.7921 84.6989 94.0613 84.0685 94.2532L83.3568 94.5967H79.0214L79.0027 92.7492H82.2519C82.8137 92.7492 83.2819 92.6501 83.6565 92.4521C84.031 92.254 84.3119 91.9848 84.4992 91.6444C84.6927 91.2978 84.7895 90.9078 84.7895 90.4746C84.7895 90.0042 84.6958 89.5957 84.5085 89.2491C84.3275 88.8963 84.0466 88.6271 83.6658 88.4414C83.285 88.2495 82.8012 88.1536 82.2144 88.1536H79.7424V99.8143H77.3922V86.2968ZM85.1734 99.8143L81.971 93.7425L84.4336 93.7333L87.6828 99.6936V99.8143H85.1734Z" fill="#3E444C"/>
<path d="M29.3013 75.9704V62.1822H50.1188V75.9704H29.3013Z" fill="#3E444C"/>
<path d="M48.2263 13.7882V1.90505e-07H69.0438V13.7882H48.2263Z" fill="#3E444C"/>
<path d="M54.2619 19.4847L68.7565 0H87.7661L63.6478 31.6033L54.2619 19.4847ZM87.7661 76.038H68.7565L49.7471 50.6127L30.7375 76.038H11.7281L40.3611 38.019L11.7281 0H30.7375L87.7661 76.038Z" fill="#3E444C"/>
</svg>
