<svg width="100" height="100" viewBox="0 0 100 100" fill="none" xmlns="http://www.w3.org/2000/svg">
<path d="M5.71218 80.0887L9.26698 66.2496H11.1302L10.9218 69.8166L7.12184 84.0971H5.18509L5.71218 80.0887ZM3.05222 66.2496L5.93283 79.9784L6.19024 84.0971H4.13091L0 66.2496H3.05222ZM15.163 79.9416L18.0069 66.2496H21.0713L16.9404 84.0971H14.8811L15.163 79.9416ZM11.8534 66.2496L15.3714 80.1255L15.8862 84.0971H13.9495L10.2108 69.8166L10.0147 66.2496H11.8534Z" fill="#DDDDDD"/>
<path d="M37.5827 74.683V75.6636C37.5827 77.012 37.407 78.2214 37.0557 79.292C36.7043 80.3625 36.2017 81.2737 35.5479 82.0255C34.9023 82.7773 34.126 83.3534 33.2189 83.7538C32.3118 84.1461 31.3067 84.3422 30.2035 84.3422C29.1084 84.3422 28.1074 84.1461 27.2003 83.7538C26.3014 83.3534 25.521 82.7773 24.859 82.0255C24.1971 81.2737 23.6823 80.3625 23.3145 79.292C22.955 78.2214 22.7752 77.012 22.7752 75.6636V74.683C22.7752 73.3346 22.955 72.1293 23.3145 71.0669C23.6741 69.9964 24.1808 69.0852 24.8345 68.3334C25.4964 67.5734 26.2769 66.9973 27.1758 66.605C28.0829 66.2046 29.0839 66.0044 30.179 66.0044C31.2822 66.0044 32.2873 66.2046 33.1944 66.605C34.1015 66.9973 34.8819 67.5734 35.5357 68.3334C36.1894 69.0852 36.692 69.9964 37.0434 71.0669C37.403 72.1293 37.5827 73.3346 37.5827 74.683ZM34.506 75.6636V74.6585C34.506 73.6615 34.4079 72.783 34.2118 72.023C34.0239 71.2549 33.7419 70.6134 33.366 70.0985C32.9983 69.5755 32.5447 69.1833 32.0054 68.9218C31.466 68.6521 30.8572 68.5173 30.179 68.5173C29.5007 68.5173 28.896 68.6521 28.3648 68.9218C27.8336 69.1833 27.3801 69.5755 27.0042 70.0985C26.6364 70.6134 26.3545 71.2549 26.1584 72.023C25.9622 72.783 25.8642 73.6615 25.8642 74.6585V75.6636C25.8642 76.6606 25.9622 77.5432 26.1584 78.3113C26.3545 79.0795 26.6405 79.7292 27.0164 80.2603C27.4005 80.7833 27.8581 81.1797 28.3893 81.4494C28.9205 81.7109 29.5252 81.8416 30.2035 81.8416C30.8899 81.8416 31.4987 81.7109 32.0299 81.4494C32.5611 81.1797 33.0105 80.7833 33.3783 80.2603C33.746 79.7292 34.0239 79.0795 34.2118 78.3113C34.4079 77.5432 34.506 76.6606 34.506 75.6636Z" fill="#DDDDDD"/>
<path d="M40.6595 66.2496H46.9723C48.3288 66.2496 49.4852 66.4539 50.4413 66.8624C51.3974 67.271 52.1288 67.8758 52.6355 68.6766C53.1503 69.4693 53.4077 70.4499 53.4077 71.6185C53.4077 72.5093 53.2443 73.2938 52.9174 73.972C52.5905 74.6503 52.1288 75.2223 51.5322 75.6881C50.9357 76.1458 50.2247 76.5012 49.3994 76.7546L48.4678 77.2081H42.7924L42.7678 74.7688H47.0213C47.7568 74.7688 48.3697 74.638 48.86 74.3765C49.3503 74.115 49.7181 73.7596 49.9632 73.3101C50.2166 72.8525 50.3432 72.3376 50.3432 71.7656C50.3432 71.1445 50.2206 70.6052 49.9755 70.1476C49.7385 69.6818 49.3708 69.3263 48.8723 69.0811C48.3738 68.8278 47.7405 68.7011 46.9723 68.7011H43.7362V84.0971H40.6595V66.2496ZM50.8458 84.0971L46.6536 76.0804L49.8774 76.0681L54.1309 83.9377V84.0971H50.8458Z" fill="#DDDDDD"/>
<path d="M59.5489 66.2496V84.0971H56.4722V66.2496H59.5489ZM70.2746 66.2496L63.0424 74.8423L58.9238 79.2062L58.3844 76.1539L61.3263 72.5256L66.5237 66.2496H70.2746ZM66.9649 84.0971L61.0934 75.6391L63.214 73.543L70.6178 84.0971H66.9649Z" fill="#DDDDDD"/>
<path d="M84.0157 81.6577V84.0971H74.5403V81.6577H84.0157ZM75.4106 66.2496V84.0971H72.3339V66.2496H75.4106ZM82.7776 73.7024V76.1049H74.5403V73.7024H82.7776ZM83.9544 66.2496V68.7011H74.5403V66.2496H83.9544Z" fill="#DDDDDD"/>
<path d="M86.5286 66.2496H92.8414C94.1979 66.2496 95.3543 66.4539 96.3104 66.8624C97.2665 67.271 97.9979 67.8758 98.5045 68.6766C99.0194 69.4693 99.2768 70.4499 99.2768 71.6185C99.2768 72.5093 99.1133 73.2938 98.7865 73.972C98.4596 74.6503 97.9979 75.2223 97.4013 75.6881C96.8048 76.1458 96.0938 76.5012 95.2685 76.7546L94.3368 77.2081H88.6614L88.6369 74.7688H92.8904C93.6259 74.7688 94.2388 74.638 94.7291 74.3765C95.2194 74.115 95.5872 73.7596 95.8323 73.3101C96.0856 72.8525 96.2123 72.3376 96.2123 71.7656C96.2123 71.1445 96.0897 70.6052 95.8446 70.1476C95.6076 69.6818 95.2398 69.3263 94.7414 69.0811C94.2429 68.8278 93.6095 68.7011 92.8414 68.7011H89.6053V84.0971H86.5286V66.2496ZM96.7149 84.0971L92.5227 76.0804L95.7465 76.0681L100 83.9377V84.0971H96.7149Z" fill="#DDDDDD"/>
<path d="M37.9653 62.6987V52.7712H52.9539V62.6987H37.9653Z" fill="#DDDDDD"/>
<path d="M51.5913 17.9275V8H66.5799V17.9275H51.5913Z" fill="#DDDDDD"/>
<path d="M55.9369 22.029L66.3731 8H80.0599L62.6947 30.7544L55.9369 22.029ZM80.0599 62.7474H66.3731L52.6862 44.4412L38.9994 62.7474H25.3126L45.9283 35.3737L25.3126 8H38.9994L80.0599 62.7474Z" fill="#DDDDDD"/>
</svg>
