<svg xmlns="http://www.w3.org/2000/svg" width="200" height="200" fill="none"><g clip-path="url(#a)"><g clip-path="url(#b)"><path fill="#F2F2F2" d="M95.897 195.359c.586.035.91-.662.467-1.068l-.044-.168.017-.04c.592-1.353 2.6-1.343 3.187.011.521 1.203 1.185 2.407 1.348 3.679a4.702 4.702 0 0 1-.089 1.684 18.942 18.942 0 0 0 1.864-8.153 18.231 18.231 0 0 0-.405-3.827 19.497 19.497 0 0 0-4.11-8.415c-.982-.514-1.8-1.317-2.295-2.28a3.92 3.92 0 0 1-.383-1.102c.112.014.421-1.615.337-1.715.156-.226.434-.339.604-.56.846-1.098 2.01-.906 2.619.586 1.299.628 1.311 1.67.514 2.671-.507.638-.577 1.5-1.022 2.182l.14.167a19.889 19.889 0 0 1 2.177 3.304c-.173-1.294.083-2.853.518-3.858.496-1.146 1.425-2.11 2.243-3.1.982-1.189 2.997-.67 3.17.837l.005.044c-.121.066-.24.135-.357.209-.663.42-.434 1.405.352 1.521l.018.003a7.972 7.972 0 0 1-.229 1.243c1.05 3.888-1.216 5.304-4.451 5.367-.072.036-.141.071-.213.104.328.884.59 1.791.784 2.71.174.812.295 1.633.363 2.457.084 1.04.076 2.086-.015 3.124l.005-.037a5.076 5.076 0 0 1 1.822-2.952c1.402-1.103 3.383-1.509 4.896-2.396.728-.427 1.661.125 1.534.933l-.006.039a6.114 6.114 0 0 0-.658.303c-.121.066-.24.136-.356.209-.664.421-.434 1.405.351 1.522l.018.002.037.006a8.303 8.303 0 0 1-1.599 2.397c-.656 3.394-3.474 3.716-6.489 2.728h-.002a19.788 19.788 0 0 1-1.43 3.999h-5.109c-.018-.055-.034-.111-.05-.165.472.028.948.001 1.413-.081-.38-.446-.758-.895-1.137-1.34-.01-.009-.017-.018-.024-.026l-.579-.683a7.82 7.82 0 0 1 .25-2.075ZM21.971 195.359a7.82 7.82 0 0 1 .25 2.075l-.58.683-.023.026c-.38.445-.758.894-1.137 1.34.465.082.941.109 1.413.081l-.05.165h-5.11a19.83 19.83 0 0 1-1.43-3.999h-.002c-3.014.988-5.833.666-6.489-2.728a8.291 8.291 0 0 1-1.598-2.397l.036-.006.018-.002c.786-.117 1.015-1.101.352-1.522a6.032 6.032 0 0 0-1.014-.512l-.006-.039c-.127-.808.806-1.36 1.534-.933 1.512.887 3.493 1.293 4.895 2.396a5.073 5.073 0 0 1 1.822 2.952l.006.037a18.538 18.538 0 0 1 .348-5.581c.194-.919.455-1.826.783-2.71-.071-.033-.14-.068-.212-.104-3.235-.063-5.501-1.479-4.452-5.367a7.995 7.995 0 0 1-.228-1.243l.017-.003c.786-.116 1.015-1.101.352-1.521a5.953 5.953 0 0 0-.357-.209l.005-.044c.173-1.507 2.188-2.026 3.17-.837.819.99 1.748 1.954 2.243 3.1.436 1.005.691 2.564.518 3.858a19.89 19.89 0 0 1 2.178-3.304l.139-.167c-.445-.682-.515-1.544-1.022-2.182-.797-1.001-.784-2.043.515-2.671.608-1.492 1.773-1.684 2.618-.586.17.221.449.334.605.56-.085.1.225 1.729.336 1.715a3.92 3.92 0 0 1-.382 1.102c-.495.963-1.313 1.766-2.295 2.28a19.496 19.496 0 0 0-4.11 8.415 18.143 18.143 0 0 0-.405 3.827c0 2.807.643 5.597 1.864 8.153a4.695 4.695 0 0 1-.09-1.684c.164-1.272.827-2.476 1.349-3.679.587-1.354 2.594-1.364 3.186-.011l.018.04-.044.168c-.443.406-.12 1.104.466 1.068Z"/><path fill="#3F3D56" d="M76.075 125.269h-31.48l.035-.301 11.164-97.257h10.651l.025.246 9.605 97.312Zm-29.997-.543h28.523L65.93 28.254h-9.627l-10.224 96.472Z"/><path fill="#3F3D56" d="M84.3 129.211H35.723v-4.484h48.579v4.484Zm-48.01-.543h47.444v-3.398H36.289v3.398ZM70.02 28.254H52.587v-4.485H70.02v4.485Zm-16.866-.543h16.299v-3.4H53.154v3.4Z"/><path fill="#3F3D56" d="m78.237 135.785 6.688 26.17h2.325l-9.013-26.17Zm6.688 26.17H78.34l-6.745-26.395-.139-.543-1.483-5.806h6.002l1.999 5.806.187.543.076.225-.056-.225-.14-.543-1.62-6.349h-7.168l1.622 6.349.139.543 6.883 26.938h7.167l-.139-.543ZM41.947 135.017l-.198.543-9.554 26.395h2.903l6.744-26.395.14-.543.081-.323-.116.323Zm1.656-6.349-1.54 6.026 1.985-5.483h5.999l-1.483 5.806-.139.543-6.744 26.395h-6.583l-.14.543h7.168l6.883-26.938.139-.543 1.622-6.349h-7.167ZM103.367 199.728H91.193l-11.57-17.654.521-.215 11.423 17.326h10.372l-14.19-32.909.52-.214 15.098 33.666ZM28.006 199.728H15.832l15.097-33.666.522.214-14.19 32.909h10.372l11.422-17.326.521.215-11.57 17.654Z"/><path fill="#3F3D56" d="M107.966 166.441H13.935v-4.485h94.031v4.485Zm-93.464-.543h92.897v-3.399H14.502v3.399ZM85.513 191.168c-17.233-6.781-34.708-6.781-51.942 0l-.341-.48c16.454-9.534 31.839-11.168 52.625 0l-.342.48Z"/><path fill="#3F3D56" d="M84.093 183.903c-16.219-6.791-32.667-6.791-48.886 0l-.248-.494c16.384-6.86 32.999-6.86 49.383 0l-.249.494ZM78.18 135.56H41.749l.199-.543h36.095l.139.543ZM79.05 138.708H40.78l.567-1.122h37.421l.284 1.122ZM66.471 24.34H55.765v-9.123H66.47v9.122Zm-10.14-.544h9.573v-7.493L56.9 15.76l-.567 8.036Z"/><path fill="#3F3D56" d="M62.584 15.76h-3.268V0h3.268v15.76Zm-2.7-.543h2.133L61.191.45l-1.308.093v14.674Z"/><path fill="#FB1" d="M92.23 109.755c-.515-1.271-2.009-1.901-3.336-1.408-1.314.489-1.972 1.897-1.484 3.159l-.038.014 1.865 4.604 4.422-1.644a2.76 2.76 0 0 0 .436-.121c1.327-.493 1.985-1.924 1.47-3.195-.515-1.271-2.008-1.902-3.335-1.409ZM51.407 154.562c-.515-1.271-2.009-1.902-3.336-1.408-1.315.488-1.972 1.896-1.484 3.158l-.039.015 1.865 4.603 4.423-1.644c.146-.027.292-.067.436-.12 1.327-.494 1.985-1.924 1.47-3.195-.515-1.272-2.008-1.902-3.335-1.409ZM41.701 59.381c-1.417-.127-2.674.87-2.807 2.228-.131 1.344.89 2.538 2.286 2.684l-.004.04 5.133.46.443-4.524c.04-.137.068-.28.082-.427.133-1.358-.908-2.561-2.326-2.689-1.417-.127-2.674.87-2.807 2.228Z"/><path fill="#3F3D56" d="M200 199.457H0V200h200v-.543Z"/><path fill="#2F2E41" d="M181.477 125.262c-.047-.383-.394-.712-.794-.753-.292-.03-.647.059-.773-.299a.612.612 0 0 1 .015-.407c.228-.626-.288-1.341-.953-1.418-.598-.069-1.207.393-1.275.966a2.62 2.62 0 0 0-.543-.158 5.808 5.808 0 0 0-1.71-.172l-1.035.046a4.13 4.13 0 0 0-.189-.031c-2.367-.326-4.259 1.851-3.643 4.065 1.666 5.994-2.017 6.435-.421 9.188l7.598-1.246c1.268.053 1.657 4.162 1.664 2.946l.271-9.23c.167-.57.272-1.098.318-1.588a1.01 1.01 0 0 0 .03-1.137.963.963 0 0 0 .851.137c.379-.13.636-.527.589-.909Z"/><path fill="#FFB6B6" d="m161.189 158.792 1.789-10.364 2.689-.252-2.613 10.862c.185.195.316.442.362.721.128.766-.416 1.486-1.216 1.609-.799.122-1.551-.399-1.679-1.165a1.382 1.382 0 0 1 .668-1.411Z"/><path fill="#E6E6E6" d="M169.996 138.098s-2.479-2.698-4.063-.324c-1.585 2.373-1.811 4.321-3.04 8.45-.974 3.268-.483 4.883-.483 4.883l2.745.561 1.887-4.565 2.954-9.005Z"/><path fill="#FFB6B6" d="m175.311 195.043-1.775.414-2.549-6.505 2.619-.611 1.705 6.702Z"/><path fill="#2F2E41" d="M170.35 199.112c.108.42.549.677.987.575l3.528-.823.3-1.346.544 1.148 1.331-.31-1.466-4.209-.47.083-1.918.332-.619.108.31 1.216-2.343 2.522a.757.757 0 0 0-.184.704Z"/><path fill="#FFB6B6" d="m178.056 195.935-1.826.036-1.018-6.879 2.695-.053.149 6.896Z"/><path fill="#2F2E41" d="M172.293 198.879c.01.432.383.774.833.766l3.631-.072.597-1.252.272 1.234 1.369-.027-.48-4.412-.477-.017-1.948-.075-.628-.022.027 1.251-2.858 1.976a.772.772 0 0 0-.338.65Z"/><path fill="#D6D5DA" d="m179.86 168.3-20.431.42 3.862-12.459h16.569V168.3Z"/><path fill="#FB1" d="M176.213 131.743h-3.912v2.834l-3.627 2.285-1.527 3.611.764 2.011-1.568 9.487 9.87-4.825 3.197-11.975-2.051-1.188-1.146-2.24Z"/><path fill="#2F2E41" d="m178.771 147.146-11.624-.639-5.193 13.466-.714 11.034 10.202 21.131h3.725l-7.451-20.59 1.394-10.806 5.685 31.334 3.976-.05-1.242-18.741 1.242-26.139Z"/><path fill="#E6E6E6" d="M177.359 133.983s-1.652 8.65-1.652 12.524c0 3.874-2.98 21.793-2.98 21.793h7.133l1.3-33.671-3.801-.646ZM169.187 136.08s-3.819.866-4.133 4.728c-.314 3.862-5.625 27.913-5.625 27.913h3.674l9.198-34.144-3.114 1.503Z"/><path fill="#FFB6B6" d="M174.879 131.481c2.371 0 4.294-1.841 4.294-4.113 0-2.271-1.923-4.113-4.294-4.113-2.372 0-4.295 1.842-4.295 4.113 0 2.272 1.923 4.113 4.295 4.113ZM180.127 157.911l.03-10.505 2.612-.663-.759 11.124c.215.164.385.387.478.656.255.736-.162 1.531-.93 1.775-.769.244-1.598-.156-1.853-.892a1.367 1.367 0 0 1 .422-1.495Z"/><path fill="#E6E6E6" d="M178.558 135.412s3.011-2.143 4.044.495c1.033 2.638.829 4.588 1.133 8.871.24 3.391-.862 5.109-.862 5.109h-2.807l-.581-5.078-.927-9.397Z"/><path fill="#2F2E41" d="m179.884 130.476.942 2.493c-.032.911-.226 1.086-1.134 1.358l-3.114 2.286c1.498-1.64-.724-3.662.172-5.105.944-1.52 1.013-4.66-.809-4.95-.901-.144-2.723.741-3.299.218.112-.4-.194-.429-.465-.113-1.204.171-1.928.876-2.407.06v-.814c.757-2.305.567-2.987 3.317-3.066.979-.028 1.956-.09 2.917.093l.779.149c1.512.407 2.183.972 2.757 2.255 0 0 1.611.811.344 5.136Z"/></g></g><defs><clipPath id="a"><path fill="#fff" d="M0 0h200v200H0z"/></clipPath><clipPath id="b"><path fill="#fff" d="M0 0h200v200H0z"/></clipPath></defs></svg>