<svg xmlns="http://www.w3.org/2000/svg" width="200" height="200" fill="none"><g clip-path="url(#a)"><g clip-path="url(#b)"><path fill="#F2F2F2" d="M200 100a100.303 100.303 0 0 1-3.25 25.38 98.563 98.563 0 0 1-5.861 16.379 77.432 77.432 0 0 1-.917 1.935 96.98 96.98 0 0 1-3.818 7.102 98.405 98.405 0 0 1-5.006 7.652 99.902 99.902 0 0 1-10.596 12.416C152.469 188.873 127.534 200 100 200c-27.66 0-52.7-11.231-70.802-29.383a99.992 99.992 0 0 1-10.272-12.068 99.615 99.615 0 0 1-10.608-18.558c-.053-.114-.099-.226-.148-.34a96.5 96.5 0 0 1-1.756-4.339 96.136 96.136 0 0 1-1.402-3.969 96.91 96.91 0 0 1-1.762-5.966 99.823 99.823 0 0 1-3.228-23.426C.006 101.302 0 100.651 0 100a101.994 101.994 0 0 1 .67-11.642 99.327 99.327 0 0 1 12.484-37.97 100.342 100.342 0 0 1 21.479-26.064C52.16 9.167 75.009 0 100 0c55.228 0 100 44.772 100 100Z"/><path fill="#3F3D56" d="M151.08 71.928h-3.738v26.539h3.738V71.928Z"/><path fill="#3F3D56" d="m151.09 71.593-.136.336-1.272 3.126-2.339-.95-3.365-1.364c-20.879-6.702-47.268-10.132-57.32-23.266l-.655-.265c-4.206 3.49-7.127 3.694-7.355-2.988l-.654-.265c-17.156 3.527-31.992-6.545-46.448-18.852a94.056 94.056 0 0 1 3.087-2.781c20.322.57 37.653 4.096 44.441 18.037l.658.269 7.898 3.203.66.269c17.544-3.7 37.255 9.636 56.985 23.13l5.815 2.36Z"/><path fill="#D0CDE1" d="M181.148 158.447a99.923 99.923 0 0 1-10.596 12.417c-44.46.867-98.037.759-141.355-.247a100.138 100.138 0 0 1-10.271-12.068c8.997-.25 18.552-.447 28.463-.602 3.923-.064 7.904-.117 11.929-.166 3.997-.043 8.037-.084 12.108-.118h.003c36.991-.299 76.558-.024 109.719.784Z"/><path fill="#3F3D56" d="M196.75 125.38a98.563 98.563 0 0 1-4.259 12.706h-4.781V125.38h9.04Z"/><path fill="#3F3D56" d="M193.092 136.593c-.194.5-.395.996-.602 1.493a95.39 95.39 0 0 1-2.518 5.608 97.363 97.363 0 0 1-3.818 7.102c-47.771 5.566-91.982 6.9-129.265 0v-14.203h136.203Z"/><path fill="#D0CDE1" d="M190.889 119.704v22.055a81.214 81.214 0 0 1-.917 1.936c-13.568-6.625-25.972-5.835-37.583 0V95.29c9.4-5.62 18.962-6.545 28.781 0l9.021 22.658.698 1.756Z"/><path fill="#fff" d="M158.369 98.28h16.446v16.446c-5.423 2.897-10.906 2.835-16.446 0-2.857-5.482-2.857-10.964 0-16.446ZM187.15 114.913c-2.162 2.433-6.125 1.563-10.466 0V98.467h4.486l5.98 16.446Z"/><path fill="#3F3D56" d="M162.854 124.071h-3.737v7.101h3.737v-7.101ZM179.861 108.932h.187a3.551 3.551 0 0 1 0 7.102h-.187v-7.102ZM40.815 136.592h.187a3.551 3.551 0 0 1 0 7.102h-.187v-7.102Z"/><path fill="#D0CDE1" d="M198.096 119.509a97.826 97.826 0 0 1-1.346 5.871 98.563 98.563 0 0 1-5.861 16.379 77.432 77.432 0 0 1-.917 1.935h-1.7l-.201-5.608-.052-1.493-.309-8.701-.374-10.506 2.855.561 7.905 1.562Z"/><path fill="#3F3D56" d="M59.317 164.439c7.845 0 14.204-6.359 14.204-14.204 0-7.844-6.36-14.204-14.204-14.204s-14.203 6.36-14.203 14.204c0 7.845 6.359 14.204 14.203 14.204Z"/><path fill="#D0CDE1" d="M59.317 157.711a7.476 7.476 0 1 0 0-14.952 7.476 7.476 0 0 0 0 14.952Z"/><path fill="#3F3D56" d="M153.51 134.91V88.561h-7.849c-1.558 2.936-2.349 7.4-2.63 12.878-.962 18.723-16.292 33.471-35.04 33.471H40.628v3.364h104.365c.221 2.303.446 4.612.668 6.915h7.849V134.91Z"/><path fill="#3F3D56" d="m92.813 119.394 2.108-1.549 12.951 17.622-2.108 1.55c-9.726-1.201-13.998-7.114-12.95-17.623Z"/><path fill="#3F3D56" d="m114.393 59.81 2.391 1.062-25.863 76.155-2.39-1.063c3.205-20.869 13.053-59.05 25.862-76.155ZM182.104 115.66h-3.738v1.496h3.738v-1.496Z"/><path fill="#3F3D56" d="M148.533 93.712a.372.372 0 0 0-.413-.41l-2.409.271-84.627 3.06-.748.082a.373.373 0 0 0-.023.739l86.411 10.771a.374.374 0 0 0 .409-.338l1.4-14.175Zm-85.557 3.46 82.598-2.833 2.169-.242-1.315 13.316-83.453-10.241Z"/><path fill="#3F3D56" d="m87.63 45.833-1.627 3.377L63.96 94.907l14.688-48.685 1.083-3.592-.657-.269-1.08 3.596-15.155 50.568-.16.734a.364.364 0 0 0 .185.404c.18.102.408.038.506-.144l23.287-48.044 1.633-3.373-.66-.269ZM15.673 97.571l-1.084-10.225-.296-2.818-1.53-14.47-.93-8.793a.374.374 0 0 0-.744-.003L10.08 70.06 8.228 86.23l-.342 2.991-.991 8.642-1.38 12.047c-.003.012-.003.024-.003.04a.375.375 0 0 0 .37.376l4.494.043 6.238.059h.003l.037-.003a.374.374 0 0 0 .334-.411l-1.315-12.444Zm-3.698 12.065-1.787-.016-3.883-.037 1.124-9.808v-.003l1.235-10.766.342-2.994 1.83-15.953.611-5.34.565 5.34 1.553 14.672.296 2.818 1.08 10.226 1.26 11.901-4.226-.04Z"/><path fill="#FB1" d="m71 112.336-2.012 1.099-5.75 1.608-4.821 1.352-10.47 2.929-4.82 1.349c-14.985-2.458-22.55 2.716-29.704 8.315l-4.821 1.348-3.59 1.007a96.917 96.917 0 0 1-1.762-5.966 99.823 99.823 0 0 1-3.228-23.426C.006 101.302 0 100.651 0 100a101.994 101.994 0 0 1 .67-11.642l7.558-2.127.778-.219 4.559-1.28.728-.204 11.571-3.256c8.896-.629 15.673 3.235 21.445 9.228 0 0 8.216-2.454 14.262 1.876 1.914 1.374 3.608 3.426 4.756 6.454l.99 2.855L71 112.336Z"/><path fill="#3F3D56" d="M52.928 127.431c5.79 0 10.483-4.693 10.483-10.483 0-5.79-4.693-10.484-10.483-10.484-5.79 0-10.484 4.694-10.484 10.484s4.694 10.483 10.484 10.483Z"/><path fill="#D0CDE1" d="M52.928 122.465a5.517 5.517 0 1 0 0-11.035 5.517 5.517 0 0 0 0 11.035Z"/><path fill="#3F3D56" d="M13.596 130.892a10.46 10.46 0 0 1-4.284 8.451c-.318.234-.651.45-.994.648-.053-.114-.099-.226-.148-.34a96.5 96.5 0 0 1-1.756-4.339 96.15 96.15 0 0 1-1.402-3.969 96.917 96.917 0 0 1-1.762-5.966 96.777 96.777 0 0 1-1.154-4.92c.333-.034.673-.05 1.015-.05 5.139 0 9.417 3.698 10.312 8.581.114.617.173 1.253.173 1.904Z"/><path fill="#D0CDE1" d="M8.63 130.892c0 1.809-.87 3.413-2.216 4.42a96.15 96.15 0 0 1-1.402-3.969 96.742 96.742 0 0 1-1.762-5.967 5.515 5.515 0 0 1 5.38 5.516Z"/><path fill="#fff" d="m39.896 90.791-32.438 9.08-2.733-9.765c4.084-3.19 12.12-4.609 20.687-5.79l14.484 6.475ZM3.485 100.982l-3.463.969C.006 101.303 0 100.651 0 100c0-2.923.127-5.815.37-8.673l.383-.108c3.383 2.22 4.238 5.497 2.732 9.763Z"/><path fill="#3F3D56" d="m11.151 106.69-1.655.463.88 3.144 1.655-.463-.88-3.144ZM67.316 101.686a5.552 5.552 0 0 1-5.746-9.309c1.913 1.373 3.61 3.425 4.758 6.453l.988 2.856ZM9.416 57.58a99.681 99.681 0 0 1 3.738-7.191v19.67H9.416V57.58ZM149.211 77.909a5.233 5.233 0 1 0 0-10.466 5.233 5.233 0 0 0 0 10.466Z"/></g></g><defs><clipPath id="a"><path fill="#fff" d="M0 0h200v200H0z"/></clipPath><clipPath id="b"><path fill="#fff" d="M0 0h200v200H0z"/></clipPath></defs></svg>