<svg xmlns="http://www.w3.org/2000/svg" width="200" height="200" fill="none"><g clip-path="url(#a)"><path fill="#FB1" d="M200 124.399a31.473 31.473 0 0 0-13.287-25.773 32.4 32.4 0 0 0 .175-3.282c0-17.332-13.853-31.382-30.944-31.382a30.467 30.467 0 0 0-15.019 3.94c-12.096-7.958-27.888-12.774-45.165-12.774-28.11 0-52.29 12.753-63.017 31.04a30.7 30.7 0 0 0-1.8-.054c-17.088 0-30.945 14.05-30.945 31.383a31.56 31.56 0 0 0 5.093 17.253c0 15.594 14.718 28.234 32.867 28.234h131.664c14.255 0 25.811-9.924 25.811-22.169A31.554 31.554 0 0 0 200 124.399Z" opacity=".1"/><path fill="#FBBEBE" d="M144.857 66.694c-1.318.556-2.64 1.114-3.867 1.848-.558.332-1.093.7-1.666 1.002-.618.328-1.273.577-1.923.842a42.844 42.844 0 0 0-5.217 2.556c.145-1.88-.13-3.921-1.254-5.386a4.713 4.713 0 0 0-.549-.605c-.795-.738-1.923-.928-2.704-1.573.475-.836 1.531-1.595 2.25-2.233a34.838 34.838 0 0 1 7.722-5.175c1.182-.578 2.416-1.096 3.72-1.273a.806.806 0 0 1 .491.044c.203.112.277.364.325.59.244 1.127.368 2.284.57 3.42.1.585.235 1.162.404 1.73.218.671.47 1.33.754 1.977.316.745.63 1.49.944 2.236Z"/><path fill="#BE6F72" d="M107.443 98.561a11.016 11.016 0 0 1-19.89 6.519 11.014 11.014 0 1 1 19.89-6.519Z"/><path fill="#BE6F72" d="M92.482 108.267c.59 1.016 1.184 2.041 1.562 3.147.377 1.107.524 2.332.213 3.464 3.752-1.976 8.217-1.817 12.346-2.817a.447.447 0 0 0 .285-.15.457.457 0 0 0 0-.364 30.228 30.228 0 0 1-.984-9.825l-2.156 1.274a27.466 27.466 0 0 1-2.928 1.574c-1.425.624-2.937 1.002-4.425 1.439-1.178.349-3.517.802-4.259 1.832.134.126.25.27.346.426Z"/><path fill="#3F3D56" d="M86.414 93.456c-.716.289-1.56.621-2.218.217-.484-.299-.684-.92-.654-1.488.03-.568.246-1.106.418-1.648.35-1.114.538-2.273.928-3.381.39-1.109 1.026-2.177 2.037-2.763 1.86-1.076 4.267-.187 6.332-.783.874-.25 1.635-.753 2.447-1.148.814-.395 1.728-.7 2.605-.488 1.028.24 1.787 1.105 2.745 1.545 1.049.483 2.304.45 3.259 1.095.676.458 1.103 1.197 1.482 1.923a36.474 36.474 0 0 1 2.859 7.325c.274.909.431 1.849.467 2.797.008 1.213-.32 2.402-.645 3.574l-.525 1.853c-.194.699-.393 1.398-.76 2.031-.368.633-.934 1.166-1.635 1.35-.874.225-1.892-.212-2.273-1.03-.234-.507-.224-1.087-.236-1.645a18.314 18.314 0 0 0-.349-3.252c-.109-.536-.254-1.094-.619-1.5-.472-.524-1.224-.699-1.923-.711-.819-.01-1.716.211-2.193.874-.383.535-.449 1.287-.958 1.704a1.588 1.588 0 0 1-.778.317 2.6 2.6 0 0 1-2.75-1.652c-.16-.462-.24-1.035-.676-1.252-.228-.114-.499-.093-.742-.166-.744-.226-.94-1.17-1.008-1.944-.079-.907.224-2.7-.904-2.76-1.215-.067-2.616.634-3.733 1.006ZM89.056 105.395c-.388.187-.813.406-.965.808-.06.157-.07.33-.124.491-.247.712-1.208.852-1.705 1.418a2.23 2.23 0 0 0-.439.981 7.109 7.109 0 0 0 .308 4.237c.154.428.392.82.7 1.154.888.906 2.419.888 3.526.271 1.106-.617 1.87-1.699 2.519-2.797a9.711 9.711 0 0 0 .858-1.748c.2-.62.342-1.258.425-1.904.388-2.519.895-5.313.72-7.867-.524-.033-1.526-.07-1.99.259-.58.412-.419 1.244-.629 1.848-.496 1.451-1.937 2.216-3.204 2.849Z"/><path fill="#3F3D56" d="M89.51 105.729c-.655.04-1.83-.685-2.487-.649-.447-.78-.843-1.59-1.184-2.423.35-.501.913-.624 1.764 0 .684.481 1.628 2.144 1.908 3.072Z"/><path fill="#E8E8F0" d="M99.394 78.107c-.712.376-1.153.393-1.504.318-.351-.075-1.049.274-1.049.274-6.162 2.109-6.405 3.103-6.405 3.103l7.134-2.519c1.373-.601 1.399-.39 1.399-.39 1.049.986 2.384.319 2.384.319s1.848-.874 1.305-1.715c-.544-.841-2.551.24-3.264.61Zm2.972-.158s-.525 1.399-2.411 1.172c0 0-.927-.137-.535-.827 0 0 1.923-.808 2.432-.75.508.057.508.412.508.412l.006-.007Z"/><path fill="#000" d="M99.394 78.107c-.712.376-1.153.393-1.504.318-.351-.075-1.049.274-1.049.274-6.162 2.109-6.405 3.103-6.405 3.103l7.134-2.519c1.373-.601 1.399-.39 1.399-.39 1.049.986 2.384.319 2.384.319s1.848-.874 1.305-1.715c-.544-.841-2.551.24-3.264.61Zm2.972-.158s-.525 1.399-2.411 1.172c0 0-.927-.137-.535-.827 0 0 1.923-.808 2.432-.75.508.057.508.412.508.412l.006-.007Z" opacity=".1"/><path fill="#E8E8F0" d="M99.785 74.208c-1.067.035-1.289.832-1.289.832a1.536 1.536 0 0 0-.1 1.841l-1.893 1.883a1.904 1.904 0 0 0-.884.7s-4.157 3.67-4.096 4.005c0 0 .678.35 4.98-3.572l1.13-1s.25-1.87 2.014-2.224c0 0 .175.077.267-.34.099-.199.231-.38.39-.536.234-.217.547-1.626-.52-1.589Zm.299 1.264s-.572 1.476-1.386 1.049c-.815-.427-.023-1.41-.023-1.41 1.412-1.375 1.409.361 1.409.361Z"/><path fill="#000" d="M96.54 79.498a.226.226 0 1 0 0-.45.226.226 0 0 0 0 .45Z" opacity=".1"/><path fill="#FBBEBE" d="M116.269 72.142a14.859 14.859 0 0 0-2.044-.888 13.594 13.594 0 0 0-2.861-.49c-3.061-.291-6.131-.46-9.21-.507-.544 0-1.1-.012-1.616.175-.46.177-.878.45-1.223.802a6.094 6.094 0 0 0-1.399 2.025.899.899 0 0 0-.087.626c.07.202.35.337.508.194a2.606 2.606 0 0 0-.853 2.804 1.592 1.592 0 0 0-.851 1.311 8.335 8.335 0 0 0 3.821-.185c-.37-.095-.753.253-.776.634a1.038 1.038 0 0 0 .579.918c.347.164.729.24 1.112.22 1.481 0 2.921-.501 4.398-.566 1.13-.05 2.294.154 3.373-.175 1.252-.388 2.369-1.488 3.659-1.259 1.03.184 1.701 1.14 2.372 1.941 1.074 1.278 2.401 2.313 3.717 3.34 1.014.79 2.073 1.6 3.33 1.868a1.85 1.85 0 0 0 1.14-.054 1.95 1.95 0 0 0 .742-.7c1.354-1.922 1.356-4.344 1.278-6.597-.041-1.152-.292-1.308-1.359-1.785a193.996 193.996 0 0 1-3.699-1.708 218.67 218.67 0 0 1-4.051-1.944Z"/><path fill="#E8E8F0" d="M130.439 76.456a3.704 3.704 0 0 1-.658.31c-.383.09-.772-.072-1.145-.198-1.573-.524-3.321-.4-4.842-1.049a11.019 11.019 0 0 1-1.817 8.19c-.315.448-.729.906-1.274.941.243.747.991 1.198 1.701 1.534a18.25 18.25 0 0 0 3.538 1.248c.35.082.776.122.979-.175.123-.175.175-.474.39-.463.329.35.22 1.066.675 1.224.142.036.29.036.432 0l1.014-.175c.304-.027.597-.127.853-.294.16-.14.292-.308.39-.497 1.136-1.935 1.573-4.174 1.748-6.386.086-1.098.192-2.262.117-3.364-.07-.944-1.28-1.229-2.101-.846Z"/><path fill="#000" d="M130.439 76.456a3.704 3.704 0 0 1-.658.31c-.383.09-.772-.072-1.145-.198-1.573-.524-3.321-.4-4.842-1.049a11.019 11.019 0 0 1-1.817 8.19c-.315.448-.729.906-1.274.941.243.747.991 1.198 1.701 1.534a18.25 18.25 0 0 0 3.538 1.248c.35.082.776.122.979-.175.123-.175.175-.474.39-.463.329.35.22 1.066.675 1.224.142.036.29.036.432 0l1.014-.175c.304-.027.597-.127.853-.294.16-.14.292-.308.39-.497 1.136-1.935 1.573-4.174 1.748-6.386.086-1.098.192-2.262.117-3.364-.07-.944-1.28-1.229-2.101-.846Z" opacity=".1"/><path fill="#BE6F72" d="M71.832 133.164c-.498-.64-1.01-1.318-1.748-1.655a4.796 4.796 0 0 0-1.329-.326c-2.46-.349-4.924-.713-7.407-.781-.811-.023-1.682 0-2.343.474-.757.54-1.049 1.535-1.09 2.463a6.945 6.945 0 0 0 2.678 5.769c1.486 1.133 3.363 1.607 5.196 1.981.963.198 1.931.374 2.903.525.973.15 1.962.269 2.9.57 2.008.643 3.779 2.097 5.884 2.218.099.015.2-.002.288-.049a.49.49 0 0 0 .175-.297c.463-1.635 2.07-5.549 0-6.692-1.082-.597-2.283-.623-3.343-1.38-1.06-.757-1.96-1.787-2.764-2.82ZM54.16 144.016c-1.363-1.186-3.242-1.813-4.231-3.322-.436-.664-.656-1.444-.875-2.21l-.643-2.311a1.204 1.204 0 0 1-.066-.442c.049-.483.617-.712 1.096-.787 2.447-.381 4.996.605 6.828 2.273 1.833 1.668 3.01 3.968 3.7 6.353a.595.595 0 0 1 .02.381.588.588 0 0 1-.268.255c-.885.525-2.074 1.289-3.107 1.449-1.033.161-1.719-1.007-2.455-1.639Z"/><path fill="#3F3D56" d="m113.911 134.051 7.168 2.869a3.053 3.053 0 0 1 1.837 3.542l-5.334 22.435h-13.335l2.321-25.525s5.07-4.195 7.343-3.321Z"/><path fill="#FB1" d="M120.834 131.358c-.133.291-.329.577-.299.894.018.189.115.367.102.554-.028.367-.453.572-.82.575-.368.004-.736-.115-1.098-.052-.595.101-.997.648-1.511.965-.717.44-1.612.414-2.447.489-1.749.158-3.402.813-4.985 1.56-1.075.507-2.216 1.157-2.622 2.272-.582 1.574.547 3.231.797 4.895.067.561.084 1.126.049 1.689-.183 5.878-.5 11.824-.836 17.694l-64.083.075 3.155-5.529c3.077-5.394 6.236-10.888 10.878-15.012a9.776 9.776 0 0 1 2.297-1.546l3.722 3.322c.298.296.644.54 1.023.722.699.285 1.482.122 2.232.147 1.443.047 2.76.783 4.012 1.501a23.162 23.162 0 0 1 2.644 1.677c.493.378 1.204.614 1.718.961l-.12-6.276c-.013-.566-.021-1.147.148-1.687.329-1.049 1.268-1.79 1.719-2.788.204-.45.304-.939.475-1.399a9.536 9.536 0 0 1 .899-1.687l2.32-3.727c.573-.92 1.145-1.839 1.767-2.726 2.722-3.883 6.387-6.993 9.951-10.113a4.166 4.166 0 0 1 .586-2.546c.183-.254.334-.529.451-.82a3.42 3.42 0 0 0 .065-1.049v-.269a2.435 2.435 0 0 1 .675-1.524c.409-.425.956-.684 1.495-.925a48.824 48.824 0 0 1 8.653-2.934c.474-.112.976-.217 1.443-.075.141.456.624.617 1.106.733l.31.071a5.18 5.18 0 0 1 2.227 1.088c.677.591 1.142 1.381 1.594 2.159 3.404 5.844 4.972 13.512 10.238 17.758.255.202.203.604.07.883Z"/><path fill="#000" d="M142.308 59.575c-1.843 4.051-5.474 8.042-10.215 8.042-.387 0-.774-.019-1.159-.058a4.72 4.72 0 0 0-.549-.604c-.796-.738-1.923-.929-2.705-1.574.476-.835 1.532-1.594 2.25-2.232a35.076 35.076 0 0 1 2.416-1.953 34.411 34.411 0 0 1 5.306-3.222c1.182-.579 2.416-1.096 3.72-1.273a.81.81 0 0 1 .492.044c.203.112.276.364.325.589.243 1.119-.084 1.105.119 2.241Z" opacity=".1"/><path fill="#FBBEBE" d="M132.093 67.266c6.469 0 11.713-5.245 11.713-11.714s-5.244-11.713-11.713-11.713c-6.469 0-11.714 5.244-11.714 11.713 0 6.47 5.245 11.714 11.714 11.714Z"/><path fill="#E8E8F0" d="M156.486 94.509a21.3 21.3 0 0 1-.993 4.159c-.175.491-.39.97-.612 1.442-1.303 2.761-2.018 5.745-2.359 8.78a4.743 4.743 0 0 1-.131.708c-.257.979-.799 1.853-1.213 2.774-.422.996-.773 2.02-1.049 3.065a1.71 1.71 0 0 0-.098.823c.065.296.278.525.429.792.776 1.338-.121 2.972-.424 4.486-.103.525-.148 1.095-.489 1.504-.29.35-.741.51-1.17.657a132.192 132.192 0 0 1-18.695 4.867c-.946.175-1.923.338-2.862.163-.939-.175-1.874-.755-2.196-1.661-.185-.524-.154-1.094-.138-1.65a42.22 42.22 0 0 0-.063-3.519c-.203-3.873-.663-7.759.349-11.469.303-1.094.73-2.15 1.072-3.232.67-2.111.843-4.292 1.011-6.481.138-1.804.272-3.616.676-5.395.301-1.327.102-2.707.084-4.067a15.313 15.313 0 0 1 2.623-8.741c.302-.446.634-.886.793-1.399.224-.734.07-1.522-.031-2.285a16.054 16.054 0 0 1 .304-5.823 5.94 5.94 0 0 1 .806-2.009c.435-.634 1.059-1.113 1.683-1.564a44.244 44.244 0 0 1 11.859-6.076c.39.986.764 2.139 1.063 3.147.04.137.068.31-.044.397-.112.088-.227.04-.35.044a.626.626 0 0 0-.54.463 1.14 1.14 0 0 0 .067.741c.237.612.75 1.069 1.243 1.5l2.479 2.163c.296.278.62.525.966.738.312.174.651.299.971.46 1.283.648 2.169 1.912 2.664 3.262.495 1.35.271 2.972.916 4.253 2.144 4.249 2.126 9.275 1.399 13.983Z"/><path fill="#3F3D56" d="M154.857 138.96a18.742 18.742 0 0 1-.055 9.239c-.141.54-.307 1.1-.195 1.647.064.311.216.603.251.92.016.288-.016.578-.092.856-.777 3.672-.499 7.486-.186 11.233-.133 0-.174.061-.314.061h-3.369c-.06-.984-1.283-1.722-1.881-2.507a6.49 6.49 0 0 1-1.114-5.453c.524-2.098 2.07-3.774 2.862-5.779.874-2.207.799-4.705 1.727-6.887.533-1.26 1.53-2.245 2.366-3.33Z"/><path fill="#000" d="M154.857 138.96a18.742 18.742 0 0 1-.055 9.239c-.141.54-.307 1.1-.195 1.647.064.311.216.603.251.92.016.288-.016.578-.092.856-.777 3.672-.499 7.486-.186 11.233-.133 0-.174.061-.314.061h-3.369c-.06-.984-1.283-1.722-1.881-2.507a6.49 6.49 0 0 1-1.114-5.453c.524-2.098 2.07-3.774 2.862-5.779.874-2.207.799-4.705 1.727-6.887.533-1.26 1.53-2.245 2.366-3.33Z" opacity=".1"/><path fill="#3F3D56" d="M147.787 122.133c-2.864-.458-5.638.984-8.404 1.86-4.225 1.337-8.878 1.42-12.781 3.519a3.28 3.28 0 0 0-.934.675 2.67 2.67 0 0 0-.575 1.367 4.852 4.852 0 0 0 .606 3.208c.243.413.549.792.738 1.235.448 1.048.149 2.258.072 3.405-.175 2.561.818 5.054 1.017 7.614.119 1.508-.036 3.05.319 4.522.222.924.639 1.794.813 2.728.173.933.097 1.846.155 2.769.163 2.645 1.367 5.215 1.074 7.85l22.727.075c-.843-2.932-1.544-5.963-.78-8.916.265-.934.595-1.848.986-2.736 1.271-3.072 2.577-6.152 3.278-9.401.701-3.248.764-6.716-.423-9.821-1.322-3.462-4.131-6.341-4.743-9.995-1.049-.14-2.094.21-3.145.042ZM123.936 49.84c-.221-.462-.845-.767-1.264-.475-.42.292-.366.944-.469 1.469-.199 1.031-1.224 1.734-2.273 1.899-.491.078-1.038.047-1.419-.271a1.977 1.977 0 0 1-.525-.855c-1.049-2.797-.411-6.063 1.306-8.504a5.968 5.968 0 0 1 1.338-1.43c1.445-1.049 3.379-1.049 5.167-.993.364.04.731-.003 1.076-.124.262-.138.503-.315.713-.524 1.694-1.49 4.035-2.116 6.294-2.016 2.258.1 4.431.874 6.438 1.904.96.49 1.901 1.049 2.652 1.825 1.806 1.858 2.247 4.612 2.602 7.178.381 2.77.76 5.616.119 8.338-.364 1.541-1.049 3.048-.969 4.63a37.402 37.402 0 0 1-4.419.978c-.7.11-1.507.175-2.02-.32a2.01 2.01 0 0 1-.461-.818c-.554-1.638-.369-3.509-1.206-5.023a4.223 4.223 0 0 0-3.457-2.13c-.549-.019-1.173.116-1.454.586-.108.231-.191.472-.249.72-.388 1.17-1.977 1.749-3.024 1.097-.524-.329-.883-.874-1.357-1.283-.601-.516-1.372-.782-2.047-1.198-2.248-1.393-.222-2.834-1.092-4.66ZM106.402 109.4c-.956.306-1.827.86-2.757 1.25-1.638.684-3.439.843-5.157 1.28a21.207 21.207 0 0 0-4.74 1.909c-.11.06-.456.35-.732.549v-.269a2.438 2.438 0 0 1 .674-1.525c.41-.424.957-.683 1.495-.924a48.813 48.813 0 0 1 8.661-2.929c.474-.112.976-.217 1.442-.075.149.456.631.617 1.114.734Z"/><path fill="#000" d="M81.617 154.234c1.881 2.098 3.568 4.388 5.757 6.158-2.526-3.355-6.15-5.595-9.426-8.124-.665-.514-1.993-1.243-2.395-1.986-.635-1.165.767-.338 1.35-.021 1.817.987 3.342 2.445 4.714 3.973ZM149.301 92.997c-.089.755-.371 1.472-.656 2.174-.699 1.749-1.449 3.48-2.505 5.03-.727 1.068-1.593 2.033-2.351 3.077a35.177 35.177 0 0 0-2.14 3.449 249.664 249.664 0 0 0-3.486 6.388c-.54 1.028-1.077 2.065-1.775 2.993a20.583 20.583 0 0 1-1.573 1.791c-1.224 1.29-2.481 2.482-3.575 3.881-.542.699-1.446.968-2.291 1.206a3.09 3.09 0 0 1-.874.157 2.985 2.985 0 0 1-.874-.194 21.967 21.967 0 0 1-2.762-1.049c-.203-3.872-.663-7.758.35-11.468.302-1.095.729-2.15 1.071-3.233.67-2.11.843-4.292 1.011-6.48.208-.439.43-.874.645-1.298 1.458-2.88 2.687-6.054 2.308-9.265a17.107 17.107 0 0 1-.201-1.749 6.561 6.561 0 0 1 .358-2.11 11.662 11.662 0 0 1 6.643-7.168c.493-.23 1.03-.35 1.574-.35.699.038 1.369.401 2.05.268 2.31 1.016 4.179 2.75 5.576 4.852 1.396 2.101 1.473 4.909 2.993 6.923.449.612.571 1.421.484 2.175Z" opacity=".1"/><path fill="#000" d="m98.751 83.509-.073-.16-2.857 1.319-.477.22-.475.219 4.028 8.732.475-.22.477-.22 2.857-1.319-.073-.157-2.857 1.318-.073-.159 2.856-1.318-.073-.16-2.857 1.319-.073-.16 2.856-1.317-.071-.16-2.859 1.319-.073-.157 2.858-1.319-.073-.159-2.859 1.318-.073-.159 2.858-1.318-.073-.159-2.857 1.318-.073-.159 2.857-1.318-.074-.157-2.857 1.318-.073-.16 2.857-1.317-.074-.16-2.856 1.319-.074-.16 2.859-1.318-.074-.159-2.858 1.318-.074-.157 2.859-1.32-.074-.157-2.858 1.318-.072-.16 2.857-1.317-.074-.16-2.856 1.319-.074-.16 2.857-1.317-.073-.16-2.857 1.319-.074-.158 2.857-1.318-.072-.159-2.858 1.318-.073-.159 2.858-1.318-.073-.16-2.859 1.319-.071-.16 2.856-1.316-.073-.159-2.857 1.319-.073-.16 2.856-1.318-.073-.159-2.857 1.318-.073-.159 2.857-1.318-.072-.159-2.859 1.32-.073-.16 2.858-1.317-.073-.16-2.858 1.319-.074-.16 2.859-1.318-.074-.159-2.856 1.319-.074-.16 2.857-1.318-.074-.157-2.856 1.318-.074-.159 2.857-1.318-.074-.16-2.856 1.319-.074-.16 2.859-1.317-.074-.158-2.858 1.317-.074-.157 2.859-1.319-.073-.159-2.859 1.318-.072-.159 2.857-1.318-.073-.159-2.857 1.318-.073-.159 2.856-1.318-.073-.157-2.857 1.318-.073-.16 2.856-1.317-.071-.16-2.859 1.319-.073-.16 2.858-1.318-.073-.159-2.859 1.318-.073-.157 2.858-1.318-.073-.16-2.859 1.319-.071-.16 2.856-1.317Z"/><path fill="#000" d="M107.72 102.715c-.369.624-.933 1.166-1.634 1.35-.874.225-1.892-.212-2.273-1.03-.234-.507-.224-1.087-.236-1.645a18.22 18.22 0 0 0-.35-3.252c-.108-.537-.253-1.094-.619-1.5-.472-.524-1.223-.7-1.923-.711-.818-.01-1.715.211-2.192.874-.383.535-.45 1.286-.958 1.704a1.587 1.587 0 0 1-.778.317 2.6 2.6 0 0 1-2.75-1.652c-.16-.462-.24-1.035-.677-1.252-.227-.114-.498-.093-.74-.166-.746-.226-.941-1.17-1.01-1.944-.078-.908.224-2.7-.903-2.76-1.207-.067-2.607.634-3.724 1.006-.717.289-1.56.62-2.219.217-.484-.299-.683-.92-.653-1.488.03-.568.246-1.106.417-1.648.294-.916.47-1.868.74-2.798-.127.263-.24.533-.338.808-.388 1.103-.57 2.273-.926 3.381-.175.542-.388 1.08-.418 1.649-.03.568.175 1.189.654 1.488.659.403 1.502.071 2.218-.217 1.118-.373 2.518-1.074 3.724-1.007 1.128.061.825 1.853.904 2.76.068.775.264 1.719 1.009 1.944.243.074.514.053.741.166.437.217.525.79.677 1.252a2.6 2.6 0 0 0 2.75 1.652c.283-.033.551-.143.778-.316.508-.418.575-1.17.958-1.705.477-.666 1.374-.888 2.192-.874.699.01 1.46.186 1.923.712.365.405.511.963.619 1.5a18.4 18.4 0 0 1 .35 3.251c.012.558 0 1.139.236 1.646.379.818 1.398 1.255 2.272 1.029.7-.183 1.266-.725 1.635-1.349a6.98 6.98 0 0 0 .643-1.616 2.766 2.766 0 0 1-.119.224Z" opacity=".1"/><path fill="#FBBEBE" d="M116.713 101.554c-1.399-1.342-2.663-2.828-3.918-4.31-1.203-1.419-2.409-2.844-3.377-4.43-.6-.98-1.135-2.05-2.056-2.737-.7-.525-1.555-.77-2.327-1.17-.556-.288-1.068-.653-1.617-.952a7.696 7.696 0 0 0-3.906-.922c-.565.02-1.206.15-1.496.637-.1.166-.147.36-.249.524-.313.525-1.066.673-1.323 1.224-.434.926.874 1.778.956 2.797.039.51-.243.986-.325 1.491-.14.874.313 1.708.75 2.47.935 1.633 2.073 3.422 3.911 3.833.65.145 1.337.098 1.972.304a4.66 4.66 0 0 1 1.398.834 22.907 22.907 0 0 1 4.518 4.757c.591.834 1.126 1.704 1.722 2.533a20.59 20.59 0 0 0 7.267 6.248l2.146-6.818c.33-1.049.59-2.488-.35-3.306-1.178-1.061-2.537-1.898-3.696-3.007Z"/><path fill="#E8E8F0" d="M140.065 78.18c-.682.131-1.359-.23-2.051-.267-.544 0-1.081.119-1.573.35a11.673 11.673 0 0 0-6.644 7.167 6.657 6.657 0 0 0-.353 2.117c.011.586.133 1.163.201 1.749.38 3.206-.849 6.38-2.306 9.265-.806 1.593-1.715 3.273-1.524 5.047.024.238.063.506-.082.7-.175.23-.553.243-.715.486-.163.243-.014.61-.144.884-.175.388-.745.341-1.152.203a9.261 9.261 0 0 1-3.047-1.731c-1.453.848-3.007 1.859-3.484 3.471-.112.411-.19.831-.233 1.255l-.75 6.259c-.1.828-.148 1.8.477 2.353 1.079.954 3-.282 4.154.582.296.22.488.549.7.848 1.26 1.729 3.43 2.489 5.465 3.147.28.106.574.171.874.192.297-.008.592-.061.874-.157.846-.238 1.748-.514 2.29-1.205 1.096-1.398 2.353-2.591 3.577-3.881a21.042 21.042 0 0 0 1.573-1.79c.7-.93 1.235-1.967 1.775-2.995a244.836 244.836 0 0 1 3.482-6.388 35.517 35.517 0 0 1 2.159-3.434c.761-1.049 1.625-2.01 2.352-3.077 1.049-1.552 1.802-3.29 2.505-5.03.285-.699.567-1.42.657-2.174.091-.754-.031-1.563-.489-2.17-1.519-2.015-1.594-4.821-2.991-6.923-1.397-2.101-3.266-3.839-5.577-4.853Z"/><path fill="#3F3D56" d="M98.799 84.225a.33.33 0 0 0-.15.237c0 .087.071.155.11.234.106.224-.065.482-.26.636-.197.154-.434.273-.54.498a.175.175 0 0 0-.022.098.21.21 0 0 0 .077.116c.115.132.264.23.432.283.267.056.524-.12.752-.266.246-.156.509-.285.783-.384a.768.768 0 0 0 .236-.118.527.527 0 0 0 .152-.325c.059-.439-.175-.86-.442-1.224-.322-.428-.854-.02-1.128.215ZM71.977 136.035l-18.147-9.262a.27.27 0 0 0-.362.117l-4.625 9.061a.27.27 0 0 0 .117.363l18.148 9.262a.27.27 0 0 0 .362-.117l4.625-9.061a.27.27 0 0 0-.118-.363Z"/><path fill="#E8E8F0" d="m70.306 136.268-15.655-7.99-3.972 7.782 15.655 7.991 3.972-7.783Z"/><path fill="#E6E8EC" d="M52.32 131.996c.048-.094-.028-.229-.17-.301-.142-.072-.296-.055-.344.039-.047.093.029.228.17.3.143.073.296.056.344-.038ZM69.44 140.757c.08-.154-.047-.376-.28-.495-.235-.119-.488-.091-.567.063-.078.153.048.375.282.494.234.12.487.092.566-.062Z"/><g fill="#000" opacity=".1"><path d="M145.687 56.03c-.363 1.542-1.049 3.049-.968 4.63a37.375 37.375 0 0 1-4.42.978c-.699.11-1.507.175-2.019-.32a1.986 1.986 0 0 1-.461-.818c-.555-1.638-.369-3.509-1.207-5.023a4.207 4.207 0 0 0-3.456-2.129c-.549-.02-1.173.115-1.455.586-.108.23-.191.472-.248.72-.388 1.17-1.977 1.748-3.024 1.096-.525-.329-.883-.874-1.357-1.283-.601-.516-1.372-.782-2.047-1.198-.609-.374-.901-.752-1.025-1.141-.154.84-.197 1.613 1.025 2.365.675.416 1.446.682 2.047 1.198.474.405.825.954 1.357 1.283 1.049.648 2.636.073 3.024-1.096.057-.248.14-.49.248-.72.282-.47.906-.605 1.455-.586a4.212 4.212 0 0 1 3.456 2.13c.838 1.513.652 3.384 1.207 5.022.087.308.248.59.468.823.512.49 1.322.43 2.019.32a37.375 37.375 0 0 0 4.42-.977c-.086-1.582.605-3.09.968-4.631.28-1.262.393-2.555.334-3.846a13.497 13.497 0 0 1-.341 2.617ZM124.105 50.329a2.728 2.728 0 0 0-.175-1.714c-.22-.461-.844-.765-1.264-.473-.419.292-.36.944-.463 1.468-.199 1.032-1.224 1.734-2.273 1.899-.491.078-1.038.047-1.419-.271a1.968 1.968 0 0 1-.525-.855 8.118 8.118 0 0 1-.484-2.262 8.322 8.322 0 0 0 .484 3.486c.098.325.279.62.525.855.381.318.928.35 1.419.27 1.037-.164 2.067-.874 2.273-1.898.1-.525.031-1.16.465-1.46.433-.3 1.049.012 1.264.474.075.153.133.315.173.48Z"/></g></g><defs><clipPath id="a"><path fill="#fff" d="M0 38h200v124.983H0z"/></clipPath></defs></svg>