<svg xmlns="http://www.w3.org/2000/svg" width="200" height="200" fill="none"><g clip-path="url(#a)"><path fill="#000" d="M106.128 186.443c36.511 0 66.109-4.764 66.109-10.642 0-5.877-29.598-10.642-66.109-10.642-36.51 0-66.108 4.765-66.108 10.642 0 5.878 29.598 10.642 66.108 10.642ZM98.99 150.981c13.809-7.643 29.583-10.083 44.997-6.804 21.845 4.643 49.297 2.822 54.607-33.003 9.081-61.187-28.976-77.337-28.976-77.337s-25.308-2.12-40.273-10.19c-21.258-11.464-45.556-12.928-66.922-3.225-13.662 6.198-24.912 14.834-26.836 26.682-5.375 33.146 3.452 51.407-13.06 62.228-16.514 10.82-2.402 40.527 10.263 39.499 12.665-1.028 41.267-12.31 52.414.757 3.962 4.628 8.97 4.059 13.787 1.393ZM183.571 171.992c5.343 0 9.674-1.54 9.674-3.44s-4.331-3.44-9.674-3.44c-5.343 0-9.675 1.54-9.675 3.44s4.332 3.44 9.675 3.44Z" opacity=".1"/><path stroke="#535461" stroke-miterlimit="10" stroke-width="2" d="M183.18 169.04s2.579-8.78-.486-15.243a13.866 13.866 0 0 1-1.123-8.7 23.358 23.358 0 0 1 1.232-4.085"/><path fill="#FB1" d="M180.894 136.929c0 1.075 1.948 4.197 1.948 4.197s1.948-3.12 1.948-4.197a1.952 1.952 0 0 0-1.949-1.949 1.95 1.95 0 0 0-1.949 1.949h.002ZM177.674 142.891c.584.903 3.917 2.464 3.917 2.464s-.061-3.679-.645-4.582a1.952 1.952 0 0 0-2.694-.576 1.948 1.948 0 0 0-.576 2.694h-.002ZM177.813 153.075c.961.484 4.625.15 4.625.15s-1.909-3.145-2.87-3.629a1.958 1.958 0 0 0-1.487-.11 1.949 1.949 0 0 0-.268 3.589ZM179.656 160.758c.86.645 4.532.929 4.532.929s-1.351-3.42-2.215-4.065a1.947 1.947 0 1 0-2.317 3.132v.004ZM185.68 145.563c-.772.751-4.369 1.527-4.369 1.527s.881-3.571 1.653-4.322a1.946 1.946 0 0 1 2.755.04 1.951 1.951 0 0 1-.039 2.755ZM187.716 154.573c-.961.484-4.625.151-4.625.151s1.909-3.145 2.87-3.629a1.946 1.946 0 0 1 2.617.862 1.949 1.949 0 0 1-.862 2.616ZM188.503 163.605c-.86.645-4.532.929-4.532.929s1.35-3.423 2.214-4.061a1.947 1.947 0 1 1 2.318 3.132Z"/><path fill="#000" d="M13.731 167.692c5.343 0 9.674-1.54 9.674-3.44s-4.33-3.44-9.674-3.44c-5.343 0-9.674 1.54-9.674 3.44s4.331 3.44 9.674 3.44Z" opacity=".1"/><path stroke="#535461" stroke-miterlimit="10" stroke-width="2" d="M13.74 164.287s5.518-18.741-1.034-32.532c-2.752-5.79-3.655-12.287-2.393-18.569a49.774 49.774 0 0 1 2.618-8.724"/><path fill="#FB1" d="M8.862 95.745c0 2.296 4.158 8.956 4.158 8.956s4.157-6.665 4.157-8.956a4.158 4.158 0 0 0-8.315 0ZM1.989 108.465c1.249 1.935 8.358 5.259 8.358 5.259s-.129-7.852-1.378-9.778a4.165 4.165 0 0 0-2.623-1.88 4.147 4.147 0 0 0-3.179.563 4.162 4.162 0 0 0-1.178 5.832v.004ZM2.287 130.205c2.045 1.034 9.87.329 9.87.329s-4.084-6.712-6.125-7.74a4.164 4.164 0 0 0-3.174-.237 4.159 4.159 0 0 0-.571 7.663v-.015ZM6.22 146.602c1.847 1.365 9.674 1.982 9.674 1.982s-2.88-7.31-4.73-8.668a4.158 4.158 0 1 0-4.944 6.686ZM19.078 114.169c-1.647 1.599-9.322 3.257-9.322 3.257s1.879-7.624 3.526-9.223a4.162 4.162 0 1 1 5.804 5.966h-.008ZM23.432 133.404c-2.051 1.034-9.87.32-9.87.32s4.084-6.712 6.124-7.739a4.157 4.157 0 1 1 3.746 7.425v-.006ZM25.098 152.677c-1.847 1.365-9.675 1.982-9.675 1.982s2.881-7.309 4.73-8.668a4.158 4.158 0 0 1 4.945 6.686Z"/><path fill="url(#b)" d="M173.774 93.676a3.006 3.006 0 0 0 1.268-1.157 14.058 14.058 0 0 1-2.133-.86l.617-2.687a1.922 1.922 0 0 0-.267-1.472 1.94 1.94 0 0 0-1.237-.841l-.731-.161a1.986 1.986 0 0 0-2.365 1.462l-.136.589a13.714 13.714 0 0 1-2.442-3.677 2.802 2.802 0 0 1-.325-1.317c.041-.549.366-1.03.63-1.505a8.011 8.011 0 0 0 .834-5.407c-.333-1.651-1.178-3.154-1.719-4.75a13.649 13.649 0 0 1 .344-9.674c.746-1.758 1.891-3.58 1.41-5.424-.535-2.057-2.795-3.102-4.73-4.085-1.935-.982-3.984-2.704-3.582-4.792.127-.657.499-1.302.349-1.954-.202-.86-1.202-1.29-2.073-1.556-2.328-.74-4.691-1.486-7.137-1.6-2.008-.092-4.107.295-5.779 1.34a7.135 7.135 0 0 0-1.376.982c-.381.396-.788.766-1.219 1.107-.881.445-1.935.387-2.93.482a7.525 7.525 0 0 0-3.238 1.075 5.996 5.996 0 0 0-1.61 1.24c-1.129 1.247-1.626 3.075-1.075 4.646.112.311.266.605.458.875a8.916 8.916 0 0 0-1.303 4.646c0 4.66 3.584 8.503 8.208 9.05.271 1.04.533 2.127.738 3.135a1.84 1.84 0 0 1-.175.138c-.38.183-.814.299-1.212.456a4.83 4.83 0 0 0-.841.43c-1.967 1.06-2.975 3.356-3.788 5.454a27.147 27.147 0 0 0 1.664-.35c-.028.068-.049.135-.069.197-.565 1.935-3.682 12.715-3.682 12.715l.662-1.424c.027.203-.007.41-.097.594-.275.535.252.146 1.088-.626 0 .045.011.071.043.073-1.965 3.208-8.152 13.224-11.231 17.287-3.825.514-6.611.955-6.611.955a3.858 3.858 0 0 0-1.739.43 4.73 4.73 0 0 0-2.567 4.085l-.215 6.808s-1.638 8.189-1.606 12.852c-.025.788.038 1.576.189 2.35.258 1.168.384 2.362.376 3.558a25.698 25.698 0 0 1-.376 4.181c.011.011.03.022.043.033-.026.157-.043.243-.043.243.312.303 1.267.524 2.486.683-.344 1.914-1.609 3.87-5.317 4.014-5.418.204-6.542 1.155-6.757 1.643a.428.428 0 0 0-.039.292c.284 3.592 8.355 3.177 10.762 3.317.356.009.71-.023 1.058-.097a9.35 9.35 0 0 0 .66-.146 20.449 20.449 0 0 0 1.905-.597 35.199 35.199 0 0 0 3.713-1.609c.262-.133.516-.266.761-.399 1.227-.667 2.223-1.333 2.663-1.851.041-.048.079-.098.112-.151l.033-.058c.01-.019.038-.069.055-.105.018-.037.022-.05.031-.076l.034-.096c.011-.033.017-.058.026-.088.008-.031.013-.061.019-.091s.013-.066.017-.101c.005-.034 0-.049 0-.075.112-1.159-.759-2.735-1.466-3.797v-4.489s1.002-10.571.983-15.236a10.77 10.77 0 0 0-.134-2.175 3.509 3.509 0 0 1-.107-.682 1.565 1.565 0 0 1 1.24-1.528c2.52-1.312 9.03-.777 13.897-.123-4.229.645-13.688 1.759-13.688 3.027v3.01a2.929 2.929 0 0 0 2.694 2.887v51.313h3.366v-51.298h29.92v51.298h3.367v-51.887a4.951 4.951 0 0 0 2.693-4.386v-.746l6.267-27.088a5.626 5.626 0 0 0 1.484-.658Zm-12.491 27.344c-.198-.86-1.595-1.623-3.823-2.216 3.78-1.853 4.578-5.53 4.55-8.385a16.359 16.359 0 0 0-.239-2.889 1.805 1.805 0 0 0 .617-1.675 2.84 2.84 0 0 0-.355-1.634c-2.236-4.514-2.58-7.094-2.627-10.603.445.415.957.75 1.516.991 1.32.57 2.795.67 4.241.658.699 0 1.398-.04 2.097-.094l-5.977 25.847Zm-23.047-27.017c.181.34.291.555.291.555l.617-.547c2.951.102 3.583 1.53 3.674 2.477a2.196 2.196 0 0 1-.043.28l-2.55 7.462c-4.427-.682-6.361.505-6.908.948-1.365.129-2.754.279-4.121.43 2.746-3.573 6.529-8.398 9.04-11.605Z"/><path fill="#F8BDC5" d="M131.097 84.625s-10.027 16.905-12.377 19.149c0 0-10.027 10.405-4.93 9.675.374-.054 7.712-6.257 8.14-7.271.427-1.015 14.303-19.04 14.303-19.04l-1.978-1.82-3.158-.693Z"/><path fill="#40414D" d="M158.763 175.818h3.18v-50.616h-3.18v50.616ZM126.971 175.818h3.18v-50.616h-3.18v50.616Z"/><path fill="#F6C6CD" d="M124.426 120.429c0 1.935 13.215 3.498 21.296 3.498 8.082 0 14.312-1.563 14.312-3.498 0-1.935-6.235-3.498-14.314-3.498s-21.294 1.563-21.294 3.498Z"/><path fill="#40414D" d="M160.617 126.154h-33.934a2.26 2.26 0 0 1-1.603-.657 2.25 2.25 0 0 1-.665-1.6v-3.468h40.071v1.856a3.868 3.868 0 0 1-3.869 3.869Z"/><path fill="#40414D" d="m160.586 125.556-1.69-.382 8.423-37.316a1.506 1.506 0 0 1 1.799-1.136l1.416.319a1.505 1.505 0 0 1 1.136 1.8l-7.824 34.66a2.722 2.722 0 0 1-3.254 2.056l-.006-.001Z"/><path fill="#594C76" d="M121.93 139.827s3.21 4.014 1.872 5.62c-1.337 1.606-8.014 4.676-10.166 4.549-2.275-.133-9.89.267-10.167-3.209 0 0-.535-1.606 6.422-1.873 6.957-.267 4.807-7.501 4.807-7.501l7.232 2.414Z"/><path fill="#000" d="M160.185 106.113s3.209 10.964-6.422 12.843l-10.435-.535s-14.716-2.943-18.73-.802c0 0-1.606.267-1.075 2.408.531 2.141-.802 16.588-.802 16.588v4.816s-9.098 0-10.167-1.075c0 0 .802-4.28 0-7.759-.802-3.478 1.338-14.449 1.338-14.449l.215-6.591a4.582 4.582 0 0 1 2.425-3.96 3.577 3.577 0 0 1 1.642-.418s18.194-2.943 24.616-2.407c6.422.535 17.395 1.341 17.395 1.341Z" opacity=".1"/><path fill="#8B9CD1" d="M160.185 105.844s3.209 10.965-6.422 12.844l-10.436-.536s-14.715-2.943-18.729-.802c0 0-1.606.267-1.075 2.408.531 2.142-.8 16.58-.8 16.58v4.816s-9.098 0-10.167-1.075c0 0 .802-4.281 0-7.759-.802-3.478 1.338-14.449 1.338-14.449l.215-6.592a4.589 4.589 0 0 1 2.425-3.96 3.588 3.588 0 0 1 1.642-.417s18.194-2.943 24.616-2.408c6.422.536 17.393 1.35 17.393 1.35Z"/><path fill="#FB1" d="M142.257 70.795s-4.816 5.62-5.351 7.492c-.536 1.873-6.422 6.689-6.422 6.689s4.28 3.205 3.485 4.815c-.796 1.61 5.611-5.35 5.611-5.35l7.492-10.965-4.815-2.68Z"/><path fill="#000" d="M142.257 70.795s-4.816 5.62-5.351 7.492c-.536 1.873-6.422 6.689-6.422 6.689s4.28 3.205 3.485 4.815c-.796 1.61 5.611-5.35 5.611-5.35l7.492-10.965-4.815-2.68Z" opacity=".1"/><path fill="#F8BDC5" d="M139.045 64.374s2.408 7.758 2.408 10.702c0 2.943 10.166-.802 9.889-2.408-.277-1.606-5.886-7.493-6.155-9.89-.269-2.397-6.142 1.596-6.142 1.596Z"/><path fill="#000" d="M147.083 69.725s9.365-2.408 10.702 11.237c1.338 13.645-1.075 15.251 2.944 23.545 4.018 8.295-27.293 1.075-27.293 1.075s1.606-1.872 6.688-1.075l2.408-7.223s.802-3.21-3.745-3.21c-4.547 0-2.408-9.365-2.408-9.365s2.408-8.027 3.745-8.83c1.337-.801 3.735-5.619 6.959-6.154Z" opacity=".1"/><path fill="#FB1" d="M147.083 69.19s9.365-2.409 10.702 11.237c1.338 13.645-1.075 15.25 2.944 23.545 4.018 8.294-27.293 1.075-27.293 1.075s1.606-1.873 6.688-1.075l2.408-7.224s.802-3.21-3.745-3.21c-4.547 0-2.408-9.364-2.408-9.364s2.408-8.028 3.745-8.83c1.337-.802 3.735-5.62 6.959-6.155Z"/><path fill="#F8BDC5" d="M135.612 88.28s-10.027 16.904-12.377 19.149c0 0-10.027 10.405-4.93 9.674.374-.053 7.712-6.256 8.14-7.271.427-1.014 14.303-19.039 14.303-19.039l-1.978-1.82-3.158-.693Z"/><path fill="#000" d="m152.692 81.764-14.189 12.843s-2.668-5.35-3.47-5.35 9.632-15.787 9.632-15.787 2.676-3.21 4.28-1.606c1.604 1.603 6.422.535 3.747 9.9Z" opacity=".1"/><path fill="#FB1" d="m152.959 81.228-14.19 12.844s-2.676-5.351-3.478-5.351 9.642-15.787 9.642-15.787 2.677-3.21 4.281-1.606c1.603 1.604 6.421.536 3.745 9.9Z"/><path fill="#F8BDC5" d="M141.453 69.19a8.83 8.83 0 0 0 8.829-8.83 8.83 8.83 0 1 0-8.829 8.83Z"/><path fill="#000" d="M137.159 57.457c-1.597.215-3.207-.92-3.736-2.442-.529-1.522-.06-3.291 1.006-4.497s2.653-1.882 4.257-2.038c.974-.095 2.012-.026 2.861-.512.536-.305.933-.8 1.383-1.221 1.683-1.587 4.123-2.163 6.434-2.056 2.311.108 4.543.832 6.744 1.548.822.267 1.768.665 1.957 1.505.144.632-.215 1.258-.329 1.892-.379 2.019 1.567 3.679 3.384 4.64 1.816.96 3.958 1.971 4.463 3.964.453 1.786-.628 3.547-1.333 5.25a13.523 13.523 0 0 0-.325 9.36c.516 1.544 1.316 3.01 1.63 4.599a7.932 7.932 0 0 1-.787 5.235c-.251.469-.559.935-.595 1.464-.003.444.102.882.305 1.277a13.62 13.62 0 0 0 8.21 7.402c-.574 1.04-1.827 1.475-2.984 1.748a27.465 27.465 0 0 1-6.019.727c-1.363.012-2.763-.084-4.008-.646-1.245-.56-2.326-1.633-2.56-2.977-.136-.778.015-1.582-.082-2.365-.215-1.763-1.632-3.145-2.15-4.843-.497-1.624-.785-1.87-.593-3.559.191-1.687.155-3.562-.946-4.854-1.153-1.354-3.178-1.655-4.915-1.27-1.737.384-2.636-.16-4.222.644a32.637 32.637 0 0 1-8.802 2.993c.83-2.197 1.873-4.62 4.049-5.508.623-.254 1.345-.389 1.769-.912.675-.834.215-2.17.797-3.07.583-.898 1.97-.939 2.767-1.687.678-.645.802-1.7.54-2.59-.262-.89-.841-1.65-1.425-2.366a65.346 65.346 0 0 0-1.589-1.9 7.13 7.13 0 0 1-1.251-1.772c-.183-.43-.149-1.242-.448-1.584-.756-.866-2.534.299-3.457.421Z" opacity=".1"/><path fill="#EB6475" d="M137.484 57.262c-1.597.215-3.207-.92-3.736-2.442-.529-1.523-.06-3.292 1.006-4.498 1.066-1.206 2.653-1.881 4.257-2.038.973-.095 2.012-.026 2.861-.512.535-.305.933-.8 1.382-1.22 1.684-1.587 4.124-2.164 6.435-2.056 2.311.107 4.543.832 6.744 1.548.821.266 1.767.664 1.956 1.505.145.632-.214 1.257-.328 1.892-.379 2.018 1.567 3.678 3.383 4.639 1.817.961 3.958 1.971 4.464 3.964.453 1.787-.628 3.548-1.333 5.25a13.523 13.523 0 0 0-.325 9.36c.516 1.544 1.316 3.01 1.63 4.6a7.938 7.938 0 0 1-.787 5.234c-.252.469-.559.936-.596 1.464-.002.445.102.883.306 1.278a13.611 13.611 0 0 0 8.21 7.402c-.574 1.04-1.828 1.474-2.984 1.747a27.487 27.487 0 0 1-6.02.727c-1.363.013-2.762-.084-4.007-.645-1.245-.561-2.326-1.634-2.561-2.978-.135-.778.015-1.582-.081-2.364-.215-1.763-1.632-3.146-2.15-4.844-.497-1.623-.785-1.87-.594-3.558.192-1.688.155-3.562-.945-4.855-1.153-1.354-3.178-1.655-4.915-1.27s-2.636-.16-4.222.645a32.64 32.64 0 0 1-8.802 2.993c.83-2.198 1.873-4.62 4.048-5.508.624-.254 1.346-.39 1.77-.912.675-.834.215-2.171.797-3.07.583-.899 1.969-.94 2.767-1.688.677-.645.802-1.7.54-2.59-.263-.89-.841-1.65-1.426-2.365a65.45 65.45 0 0 0-1.588-1.9 7.123 7.123 0 0 1-1.234-1.77c-.183-.43-.149-1.243-.448-1.584-.774-.869-2.552.298-3.474.419Z"/><g fill="#fff" opacity=".1"><path d="M115.003 139.527a9.256 9.256 0 0 0-.305-2.107l.135.045c.133.679.19 1.37.17 2.062ZM113.627 149.453c2.15.126 8.83-2.944 10.167-4.55a1.42 1.42 0 0 0 .309-.758 1.675 1.675 0 0 1-.309 1.289c-1.337 1.606-8.015 4.676-10.167 4.55-2.274-.134-9.889.266-10.167-3.21a.43.43 0 0 1 .037-.282c.613 3.212 7.914 2.836 10.13 2.961Z"/></g><path fill="url(#c)" d="M56.498 151.159c1.29-.43 3.225-.92 4.75-.746 1.449-.529 4.858-1.909 7.187-3.953a51.829 51.829 0 0 1 .152-6.072c1.191-13.544-1.487-22.464-1.487-22.464s-2.103-6.808-1.873-12.458l-.215.408c-.185-4.873-1.845-9.917-3.087-13.058a1.05 1.05 0 0 1-.14-.051l-1.412-3.294a2.862 2.862 0 0 1-.263-.608l-.215-.523.067-.028c-.022-.086-.045-.176-.067-.269-.888-3.755-1.565-12.662-1.565-12.662-2.38-9.374 3.272-15.174 3.272-15.174l9.59-8.262c-.047.107-.079.221-.094.338l.08-.07c.135-.386.284-.86.43-1.384a7.302 7.302 0 0 1-.96-.81A7.368 7.368 0 0 1 68.5 46.18c-.232-1.141-.187-2.317-.14-3.48l.16-3.982c.006-.78.086-1.557.236-2.322.724-3.169 3.962-5.374 7.21-5.514 1.035-.043 2.067.088 3.096.165.837.069 1.677.087 2.516.054.095.006.19-.02.27-.07a.398.398 0 0 0 .119-.276 1.37 1.37 0 0 0-.335-1.026 1.277 1.277 0 0 0-.43-.249l.232.056a1.263 1.263 0 0 0-.38-.204c.829.195 1.678.4 2.392.86.204.134.392.292.559.47.442.388.729.923.808 1.505.372-.363.73-.763.86-1.261.05-.201.05-.41 0-.611.056.07.11.142.164.215 0-.022 0-.043-.016-.065a6.384 6.384 0 0 1 1.25 2.58 1 1 0 0 0 .204-.742c.047.147.092.295.133.446a1.03 1.03 0 0 0 .015-.297c.373 1.139.54 2.335.497 3.532 0 1.195-.529 3.055-1.81 3.474a1.975 1.975 0 0 1-.203.054 8.03 8.03 0 0 1-5.415 12.265c-.02.143-.04.296-.06.458h-.052c-.034.322-.062.662-.084 1.017.323.316.676.6 1.054.847a8.699 8.699 0 0 0 3.513 1.163c1.481.113 2.921.542 4.224 1.255 1.53.86 3.225 2.105 3.752 3.62.886 2.531 5.753 6.45 9.029 6.938l1.161-.066.084-.026v.022l.284-.018h.092v.017l.295-.017s.03.136.068.377c1.645-.564 5.134-2.133 9.675-6.252 5.061-4.59 11.891-3.687 14.524-3.109a.454.454 0 0 1 .307.642.453.453 0 0 1-.186.194c-1.062.585-2.713 1.434-3.487 1.529 0 0 1.595 1.651-.099 2.532a1.22 1.22 0 0 1-1.275-.122c-.815-.596-3.081.755-6.362 1.457 0 0-9.261 9.585-13.855 11.068-.106.21-.223.413-.351.61l-.284-.023-.015.024h-.038l-.035.3s-7.148-.376-9.46-2.97a3.728 3.728 0 0 1-.453-.484l2.485 31.276h-.023l.023.297h-1.827c-.16 3.85.005 7.707.49 11.529v20.381s.095 1.795-3.63 4.407a139.436 139.436 0 0 0-11.283 8.744l-.452.391c.686 6.235 2.12 17.861 3.315 18.296l-.737.129c1.27 1.601 4.85 5.996 5.944 6.118 1.34.148 2.232 2.232 0 2.679-2.06.413-7.412.95-13.254-1.307a2.026 2.026 0 0 1-1.272-2.15l.43-3.285a.458.458 0 0 0-.19.2c-.296.892 0-1.191 0-1.191A93.11 93.11 0 0 1 69.6 157.25l-4.427 3.812s-.09-.11-.243-.308c-1.075 2.46-3.01 7.484-2.58 11.169.596 5.058-5.058.595-4.463-2.38.482-2.408-1.666-12.607-2.504-16.412a1.698 1.698 0 0 1 1.115-1.972Z"/><path fill="#FEC3BE" d="M102.693 68.617s4.213-.726 10.459-6.391c4.945-4.483 11.609-3.6 14.189-3.036a.431.431 0 0 1 .118.815c-1.038.57-2.651 1.4-3.405 1.494 0 0 1.556 1.612-.097 2.475a1.19 1.19 0 0 1-1.245-.12c-.795-.581-3.009.737-6.211 1.422 0 0-12.493 12.93-15.397 10.75l1.589-7.409ZM81.192 51.049s-1.163 4.944 0 8.425l-5.23.727-4.647-2.333v-3.042s2.18-4.648 1.598-10.023l8.279 6.246Z"/><path fill="#5A5773" d="M66.375 158.112s-3.781 7.409-3.194 12.347c.586 4.938-4.945.58-4.358-2.324.47-2.35-1.628-12.31-2.445-16.025a1.655 1.655 0 0 1 1.101-1.935c1.748-.574 4.67-1.29 6.14-.202 2.176 1.601 2.756 8.139 2.756 8.139ZM80.757 166.245s4.945 6.392 6.248 6.538c1.303.146 2.18 2.18 0 2.614-2.01.402-7.239.929-12.942-1.277a1.974 1.974 0 0 1-1.243-2.103l.82-6.208 7.117.436Z"/><path fill="#605D82" d="m88.892 98.406 4.73.632s-1.105 7.937.056 16.655v19.901s.093 1.753-3.545 4.3a136.103 136.103 0 0 0-11.016 8.537l-13.183 11.42s-5.23-6.391-4.504-10.169c0 0 8.716-2.76 9.879-7.264.666-2.58 4.046-4.73 6.813-6.095 3.564-1.761 5.508-5.761 4.532-9.614a7.403 7.403 0 0 0-.742-1.868c-2.324-4.068-5.665-13.22-5.665-13.22l6.391-12.202 6.254-1.013Z"/><path fill="#000" d="m88.914 98.406 4.73.632s-1.105 7.937.056 16.655v19.901s.092 1.753-3.545 4.3a135.807 135.807 0 0 0-11.008 8.542l-13.183 11.42s-5.23-6.392-4.504-10.169c0 0 8.716-2.761 9.879-7.265.666-2.579 4.046-4.729 6.813-6.094 3.564-1.761 5.508-5.762 4.532-9.615a7.418 7.418 0 0 0-.742-1.868c-2.324-4.067-5.665-13.219-5.665-13.219l6.392-12.203 6.245-1.017Z" opacity=".05"/><path fill="#605D82" d="M81.919 166.681s-8.576 1.454-8.862 2.335c-.286.882 0-1.163 0-1.163s-4.945-14.963-3.777-28.183c1.167-13.219-1.454-21.928-1.454-21.928s-3.05-9.879-1.307-15.544c1.744-5.665 20.048-3.197 20.048-3.197s-6.392 14.948-6.246 22.073c0 0-.726 21.499-2.034 23.969 0-.006 2.034 21.058 3.632 21.638Z"/><path fill="#fff" d="M80.902 54.826s-.87 5.375-9.588 3.05l5.804 44.161s16.85.58 16.707-1.453l-3.48-26.727-9.443-19.031Z"/><path fill="#000" d="M80.685 54.536s1.65 1.771 4.196 1.993c1.446.111 2.852.53 4.124 1.227 1.505.836 3.145 2.053 3.654 3.537 1.017 2.904 7.409 7.698 10.32 6.682l-1.017 8.715s-8.28-.43-9.733-3.631l2.47 31.087h-2.175s-1.163-8.425-2.034-10.169c-.87-1.743-2.614-11.33-2.76-13.656-.146-2.326-2.324-15.694-4.214-18.014l-2.833-6.9.002-.871Z" opacity=".1"/><path fill="#000" d="M80.685 54.972S82.62 56.6 85.17 56.82a10.21 10.21 0 0 1 4.124 1.227c1.505.837 3.145 2.054 3.655 3.537 1.017 2.904 7.408 7.699 10.319 6.682l-1.017 8.715s-8.279-.43-9.732-3.63l2.472 31.084h-2.178s-1.163-8.425-2.033-10.169c-.871-1.743-2.615-11.33-2.76-13.656-.147-2.326-2.325-15.694-4.215-18.013l-3.123-6.755.002-.869Z" opacity=".1"/><path fill="#67647E" d="M80.685 54.682s1.935 1.627 4.486 1.847c1.447.111 2.852.53 4.124 1.227 1.505.837 3.145 2.053 3.655 3.537 1.017 2.904 7.408 7.698 10.319 6.682l-1.017 8.715s-8.279-.43-9.732-3.631l2.47 31.087h-2.176s-1.163-8.425-2.033-10.169c-.871-1.743-2.615-11.33-2.76-13.656-.147-2.326-2.325-15.694-4.215-18.014l-3.123-6.754.002-.871Z"/><path fill="#000" d="M73.276 49.088c.19-1.376-.19-2.236-.363-3.85l8.279 6.247s-.198.845-.348 2.079c-.414.067-.831.1-1.25.101-2.889 0-4.962-2.247-6.318-4.577Z" opacity=".1"/><path fill="#FEC3BE" d="M79.594 53.23a7.845 7.845 0 1 0 0-15.689 7.845 7.845 0 0 0 0 15.69Z"/><path fill="#000" d="M88.155 37.696a9.93 9.93 0 0 0-.645-3.883.967.967 0 0 1-.165 1.254 6.215 6.215 0 0 0-1.963-3.492c.559.09.845.785.71 1.335-.136.55-.562.974-.97 1.365.047-.832-.501-1.605-1.198-2.063-.696-.458-1.526-.645-2.337-.848a1.354 1.354 0 0 1 .897 1.39.387.387 0 0 1-.116.268.445.445 0 0 1-.265.071c-.818.032-1.638.015-2.455-.052a25.74 25.74 0 0 0-3.023-.16c-3.173.133-6.333 2.289-7.04 5.374a12.35 12.35 0 0 0-.23 2.266l-.155 3.887c-.045 1.135-.09 2.285.137 3.399a7.2 7.2 0 0 0 3.7 4.901c1.14-1.65 1.24-3.773 1.636-5.74.062-.456.23-.89.493-1.268.286-.357.789-.583 1.214-.413.426.17.61.821.256 1.111.306.372.907.095 1.258-.236a6.784 6.784 0 0 0 1.97-3.515c.141-.677.283-1.505.936-1.74.23-.062.468-.078.704-.046 1.382.094 3.545.666 4.886.227 1.25-.419 1.765-2.227 1.765-3.392Z" opacity=".1"/><path fill="#916168" d="M88.011 37.55a9.928 9.928 0 0 0-.645-3.883.968.968 0 0 1-.165 1.253 6.214 6.214 0 0 0-1.963-3.495c.559.09.845.784.71 1.335-.136.55-.562.974-.97 1.365.047-.832-.501-1.606-1.198-2.064-.696-.458-1.526-.645-2.337-.847a1.354 1.354 0 0 1 .897 1.389.387.387 0 0 1-.116.268.445.445 0 0 1-.265.071 20.36 20.36 0 0 1-2.455-.051 25.737 25.737 0 0 0-3.023-.161c-3.173.133-6.333 2.29-7.04 5.374a12.35 12.35 0 0 0-.23 2.266l-.155 3.887c-.045 1.135-.09 2.285.137 3.4a7.2 7.2 0 0 0 3.7 4.888c1.14-1.651 1.24-3.773 1.636-5.74.062-.456.23-.89.493-1.269.286-.357.789-.582 1.214-.413.426.17.61.822.256 1.112.305.372.907.095 1.258-.236a6.785 6.785 0 0 0 1.97-3.516c.141-.677.283-1.504.936-1.739.23-.063.468-.079.703-.047 1.383.094 3.546.666 4.887.228 1.247-.392 1.765-2.208 1.765-3.375Z"/><path fill="#000" d="M103.637 67.972s1.163 5.375-1.017 8.716l-1.234-.101.673-8.524 1.578-.09Z" opacity=".1"/><path fill="#FD6F8D" d="M103.346 67.972s1.163 5.375-1.017 8.716l-1.234-.101.673-8.524 1.578-.09Z"/><path fill="#000" d="m72.113 53.302-9.369 8.062s-5.525 5.665-3.197 14.817c0 0 1.017 13.363 2.18 13.946 0 0 4.068 8.135 4.358 15.834 0 0 5.448-10.965 7.918-4.285 2.47 6.68 8.208 7.626 8.208 7.626l-3.197-39.513s-8.062-14.02-6.9-16.487Z" opacity=".1"/><path fill="#67647E" d="m71.823 53.302-9.37 8.062s-5.52 5.665-3.196 14.817c0 0 1.016 13.363 2.18 13.946 0 0 4.067 8.135 4.357 15.834 0 0 5.738-11.55 8.209-4.868 2.47 6.682 7.918 8.209 7.918 8.209l-3.204-39.513s-8.058-14.02-6.894-16.487Z"/><path fill="#FEC3BE" d="M67.538 87.366s-2.324-1.597-6.101 2.76l9.296 16.851 3.123-4.729s-6.608-12.992-6.318-14.882Z"/><path fill="#000" d="M69.789 88.31s-5.14 5.775-7.146 4.848l-1.858-4.332 6.968-2.986 2.036 2.47Z" opacity=".1"/><path fill="#FD6F8D" d="M69.789 88.02s-5.14 5.775-7.146 4.848l-1.858-4.323 6.968-2.995 2.036 2.47Z"/><path fill="#000" d="M73.543 101.162s-2.447 5.016-3.754 5.308l1.888 2.18 2.76-5.231-.894-2.257Z" opacity=".1"/><path fill="#4D4981" d="M73.689 101.306s-2.447 5.016-3.754 5.308l1.888 2.18 2.76-5.23-.894-2.258Z"/><path fill="#000" d="M69.063 70.296s-.29 10.46.87 14.38ZM92.597 72.33s-1.743-.58-1.743-2.034Z" opacity=".1"/><path fill="#40414D" d="m127.716 61.612-12.184-1.969-.141.87 12.184 1.97.141-.87Z"/><path fill="#40414D" d="M131.714 62.692s-1.262.86-2.475 1.015a2.365 2.365 0 0 1-.669 0c-1.111-.178-1.687-.722-1.792-1.36a1.468 1.468 0 0 1 .139-.86c.301-.575 1.019-.908 2.131-.727.339.064.663.193.954.378.653.42 1.232.945 1.712 1.554Z"/><path fill="#F8BDC5" d="M131.714 62.692s-1.262.86-2.475 1.015a.616.616 0 0 1 .026-.404c.117-.182.254-.35.408-.503.127-.176.162-.469-.025-.576a.714.714 0 0 1-.127-.07c-.112-.1 0-.28.094-.388.181-.183.387-.4.385-.645a6.997 6.997 0 0 1 1.714 1.571Z"/></g><defs><linearGradient id="b" x1="138.23" x2="138.23" y1="178.441" y2="42.785" gradientUnits="userSpaceOnUse"><stop stop-color="gray" stop-opacity=".25"/><stop offset=".54" stop-color="gray" stop-opacity=".12"/><stop offset="1" stop-color="gray" stop-opacity=".1"/></linearGradient><linearGradient id="c" x1="91.864" x2="91.864" y1="177.355" y2="29.333" gradientUnits="userSpaceOnUse"><stop stop-color="gray" stop-opacity=".25"/><stop offset=".54" stop-color="gray" stop-opacity=".12"/><stop offset="1" stop-color="gray" stop-opacity=".1"/></linearGradient><clipPath id="a"><path fill="#fff" d="M0 14h200v172.443H0z"/></clipPath></defs></svg>