<svg xmlns="http://www.w3.org/2000/svg" width="200" height="200" fill="none"><g clip-path="url(#a)"><path fill="#FB1" d="M200 117.012c.003 3.333-.4 6.654-1.201 9.89a38.238 38.238 0 0 1-.939 3.202 37.636 37.636 0 0 1-2.429 5.627c.005 3.418-.699 6.8-2.067 9.932a25.605 25.605 0 0 1-12.426 12.804 26.153 26.153 0 0 1-11.094 2.547H37.967a33.23 33.23 0 0 1-16.712-4.468l-.079-.044a33.17 33.17 0 0 1-6.458-4.924 32.3 32.3 0 0 1-4.773-5.915 31.558 31.558 0 0 1-4.854-16.849c-3.218-5.646-5.094-12.41-5.094-19.677 0-9.17 2.981-17.534 7.88-23.867a33.556 33.556 0 0 1 3.347-3.723 31.148 31.148 0 0 1 3.828-3.133 29.785 29.785 0 0 1 3.396-2.038 28.065 28.065 0 0 1 2.818-1.253 28.32 28.32 0 0 1 1.64-.566c.554-.172 1.1-.322 1.64-.451A26.515 26.515 0 0 1 29 73.41c.54-.04 1.085-.063 1.633-.07h.298c.604 0 1.205.024 1.801.065.063-.126.131-.253.194-.377.238-.453.484-.905.732-1.346a.04.04 0 0 1 0-.012 34.105 34.105 0 0 1 .752-1.304c.099-.17.195-.33.296-.49a57.079 57.079 0 0 1 2.016-3.094l.143-.206c.089-.126.17-.248.269-.374.234-.328.475-.657.718-.98.17-.23.34-.46.523-.679.442-.566.894-1.132 1.358-1.698a44.157 44.157 0 0 1 1.654-1.902l.725-.791c.036-.038.067-.072.1-.105.087-.094.17-.187.264-.277a61.79 61.79 0 0 1 1.188-1.22 64.728 64.728 0 0 1 6.504-5.666c.09-.071.182-.139.272-.207a68.83 68.83 0 0 1 8.849-5.665 71.985 71.985 0 0 1 7.764-3.617 75.873 75.873 0 0 1 11.296-3.479 78.687 78.687 0 0 1 13.285-1.81A83.848 83.848 0 0 1 95.757 38a78.959 78.959 0 0 1 19.867 2.513.72.72 0 0 0 .616.321h.571a75.107 75.107 0 0 1 4.836 1.513l.339.122a73.07 73.07 0 0 1 9.664 4.245 69.703 69.703 0 0 1 9.266 5.862c.469-.3.946-.587 1.43-.862a28.114 28.114 0 0 1 5.923-2.526 27.015 27.015 0 0 1 13.285-.52c5.646 1.198 10.758 4.17 14.886 8.396a34.818 34.818 0 0 1 4.74 6.111 37.276 37.276 0 0 1 2.843 5.667c.029.073.058.14.083.212a39.176 39.176 0 0 1 1.749 5.663l.065.294c.411 1.867.69 3.76.835 5.666 0 .068 0 .138.014.21.071.985.107 1.981.108 2.988 0 .9-.03 1.793-.086 2.68 0 .096-.014.196-.022.296-.016.257-.038.51-.06.768a32.238 32.238 0 0 1 3.631 3.425c.494.54.973 1.1 1.436 1.68a35.712 35.712 0 0 1 3.702 5.667c2.871 5.42 4.522 11.797 4.522 18.621Z" opacity=".1"/><path fill="#FB1" d="M180.812 157.838c0 1.16-3.996 2.247-10.968 3.181H37.967a33.23 33.23 0 0 1-16.713-4.468l-.078-.044c2.004-.73 5.62-1.411 10.544-2.026l.22-.027c2.208-.27 4.675-.526 7.372-.769.067 0 .137-.01.205-.019 2.14-.19 4.415-.368 6.828-.535.076 0 .15-.013.227-.017.93-.066 1.88-.13 2.85-.19l.373-.024c7.056-.438 15.076-.788 23.773-1.018h.01c1.218-.034 2.45-.064 3.693-.09 1.384-.033 2.784-.062 4.201-.087a490.09 490.09 0 0 1 3.276-.058h.025a1027.93 1027.93 0 0 1 15.315-.112c12.95 0 25.189.236 36.035.661h.03c1.668.064 3.305.136 4.901.209l1.358.064c1.801.086 3.556.178 5.264.277 20.088 1.143 33.136 2.999 33.136 5.092Z" opacity=".1"/><g opacity=".2"><path fill="#3F3D56" d="M115.515 150.756a3.226 3.226 0 0 1-.062.545 115.421 115.421 0 0 0-3.566-.51v-.146a2.866 2.866 0 0 1 .424-1.44c.35-.553.882-.9 1.467-.881.586.019 1.094.397 1.408.97.238.449.351.954.329 1.462Z"/><path fill="#3F3D56" d="M115.613 147.854c.041-1.313-.738-2.404-1.741-2.435-1.003-.032-1.85 1.007-1.891 2.32-.042 1.313.738 2.404 1.741 2.435 1.003.032 1.849-1.007 1.891-2.32Z"/><path fill="#3F3D56" d="M115.706 144.947c.041-1.313-.738-2.404-1.741-2.435-1.003-.032-1.85 1.007-1.891 2.32-.042 1.313.738 2.404 1.741 2.435 1.003.032 1.849-1.007 1.891-2.32Z"/><path fill="#3F3D56" d="M115.797 142.04c.041-1.313-.738-2.404-1.741-2.435-1.003-.032-1.85 1.007-1.892 2.32-.041 1.313.738 2.403 1.741 2.435 1.003.032 1.85-1.007 1.892-2.32Z"/><path fill="#3F3D56" d="M115.887 139.132c.042-1.313-.738-2.403-1.741-2.435-1.002-.031-1.849 1.008-1.891 2.321-.041 1.313.738 2.403 1.741 2.435 1.003.032 1.85-1.007 1.891-2.321Z"/><path fill="#FB1" d="M107.891 118.961a8.296 8.296 0 0 1-.645-1.019l4.798-.633-5.165-.124a8.723 8.723 0 0 1 .053-6.901l6.812 3.812-6.24-4.897a8.7 8.7 0 0 1 5.718-3.963 8.697 8.697 0 0 1 6.796 1.49 8.71 8.71 0 0 1 1.553 12.662c.371.503.687 1.046.942 1.618l-6.298 3.022 6.678-2.008a8.714 8.714 0 0 1-1.667 8.135 8.712 8.712 0 0 1 .7 9.215 8.714 8.714 0 0 1-7.984 4.654 8.703 8.703 0 0 1-7.674-5.148 8.707 8.707 0 0 1 1.278-9.152 8.713 8.713 0 0 1 .34-10.763h.005Z"/><path fill="#000" d="M123.264 124.833a8.665 8.665 0 0 1-2.038 5.322 8.712 8.712 0 0 1 .7 9.215 8.714 8.714 0 0 1-7.984 4.654 8.703 8.703 0 0 1-7.674-5.148 8.707 8.707 0 0 1 1.278-9.152c-1.115-1.517 15.748-5.867 15.718-4.891Z" opacity=".1"/></g><g opacity=".2"><path fill="#3F3D56" d="M89.705 150.756a3.228 3.228 0 0 1-.063.545c-1.182-.188-2.37-.358-3.566-.51v-.146a2.867 2.867 0 0 1 .425-1.44c.35-.553.881-.9 1.467-.881.586.019 1.093.397 1.407.97.238.449.352.954.33 1.462Z"/><path fill="#3F3D56" d="M89.8 147.855c.042-1.314-.737-2.404-1.74-2.435-1.003-.032-1.85 1.007-1.892 2.32-.041 1.313.738 2.403 1.741 2.435 1.003.032 1.85-1.007 1.891-2.32Z"/><path fill="#3F3D56" d="M89.893 144.947c.042-1.313-.738-2.403-1.74-2.435-1.004-.031-1.85 1.007-1.892 2.321-.041 1.313.738 2.403 1.741 2.435 1.003.032 1.85-1.007 1.891-2.321Z"/><path fill="#3F3D56" d="M89.984 142.04c.041-1.313-.738-2.403-1.74-2.435-1.004-.031-1.85 1.007-1.892 2.321-.041 1.313.738 2.403 1.74 2.435 1.004.032 1.85-1.007 1.892-2.321Z"/><path fill="#3F3D56" d="M90.075 139.133c.041-1.313-.738-2.403-1.741-2.435-1.003-.032-1.85 1.007-1.891 2.32-.042 1.314.738 2.404 1.74 2.436 1.004.031 1.85-1.008 1.892-2.321Z"/><path fill="#FB1" d="M82.08 118.961a8.346 8.346 0 0 1-.645-1.019l4.799-.633-5.165-.124a8.72 8.72 0 0 1 .052-6.901l6.813 3.812-6.24-4.897a8.71 8.71 0 0 1 12.513-2.473 8.708 8.708 0 0 1 1.553 12.662c.372.503.688 1.046.942 1.618l-6.298 3.022 6.679-2.008a8.718 8.718 0 0 1-1.668 8.135 8.705 8.705 0 0 1-2.623 12.689 8.704 8.704 0 0 1-9.237-.292 8.702 8.702 0 0 1-3.773-8.436 8.705 8.705 0 0 1 1.954-4.392 8.71 8.71 0 0 1 .34-10.763h.005Z"/><path fill="#000" d="M97.453 124.833a8.66 8.66 0 0 1-2.038 5.322 8.705 8.705 0 0 1-2.623 12.689 8.704 8.704 0 0 1-9.237-.292 8.702 8.702 0 0 1-3.773-8.436 8.705 8.705 0 0 1 1.954-4.392c-1.116-1.517 15.748-5.867 15.717-4.891Z" opacity=".1"/></g><g opacity=".2"><path fill="#3F3D56" d="M160.208 152.614a6.392 6.392 0 0 1-.124 1.032 200.92 200.92 0 0 0-6.876-.975v-.28a5.53 5.53 0 0 1 .819-2.773c.679-1.064 1.698-1.732 2.824-1.698 1.126.034 2.105.766 2.717 1.868.461.868.682 1.844.64 2.826Z"/><path fill="#3F3D56" d="M160.393 147.023c.079-2.529-1.422-4.629-3.354-4.69-1.932-.061-3.562 1.94-3.642 4.469-.08 2.529 1.421 4.628 3.353 4.689 1.932.061 3.563-1.939 3.643-4.468Z"/><path fill="#3F3D56" d="M160.569 141.426c.08-2.529-1.422-4.628-3.353-4.689-1.932-.061-3.563 1.939-3.643 4.468-.08 2.529 1.421 4.629 3.353 4.69 1.932.061 3.563-1.94 3.643-4.469Z"/><path fill="#3F3D56" d="M160.747 135.829c.08-2.529-1.421-4.628-3.353-4.689-1.932-.061-3.563 1.939-3.643 4.468-.08 2.529 1.422 4.629 3.353 4.69 1.932.061 3.563-1.94 3.643-4.469Z"/><path fill="#3F3D56" d="M160.725 129.978c.076-2.53-1.43-4.629-3.363-4.687-1.932-.058-3.561 1.947-3.637 4.477-.076 2.53 1.43 4.628 3.363 4.686 1.932.058 3.561-1.946 3.637-4.476Z"/><path fill="#FB1" d="M145.528 91.406a16.842 16.842 0 0 1-1.241-1.958l9.237-1.22-9.942-.239a16.794 16.794 0 0 1 .099-13.285l13.117 7.337-12.012-9.428a16.77 16.77 0 0 1 11.009-7.604 16.764 16.764 0 0 1 16.07 27.227c.715.97 1.324 2.015 1.815 3.116l-12.126 5.822 12.856-3.871a16.775 16.775 0 0 1-3.197 15.647 16.769 16.769 0 0 1 1.345 17.74 16.765 16.765 0 0 1-15.368 8.96 16.764 16.764 0 0 1-12.314-27.53 16.768 16.768 0 0 1 .652-20.716v.002Z"/><path fill="#000" d="M175.125 102.708a16.696 16.696 0 0 1-3.905 10.246 16.766 16.766 0 0 1-5.053 24.426 16.765 16.765 0 0 1-23.745-7.637 16.76 16.76 0 0 1 2.461-17.619c-2.163-2.923 30.302-11.296 30.242-9.416Z" opacity=".1"/></g><path fill="#F1C0C0" d="m26.799 152.912 1.781-.005h2.512l3.175-51.583 31.446-52.475-1.367-1.467v-3.715l-34.008 56.441-3.54 52.804Z"/><path fill="#000" d="M28.77 152.907h2.321l3.176-51.583 31.446-52.475-1.367-1.467-32.436 53.156-3.14 52.369Z" opacity=".1"/><path fill="#F1C0C0" d="m21.55 153.342 81.481 6.235.069.005 78.856-4.849.06-.004v-3.33l-86.89-1.594-72.491-.07h-.53l-.058.374-.497 3.233Z"/><path fill="#000" d="m21.55 153.342 81.481 6.235.069.005 78.856-4.849.06-.065v-3.199h-.07l-78.915 2.635-80.396-4.369h-.012l-.143.094-.433.28-.497 3.233Z" opacity=".1"/><path fill="#000" d="m21.55 153.342 81.481 6.235v-5.473l-80.55-4.275-.434.28-.497 3.233Z" opacity=".1"/><path fill="#F1C0C0" d="m64.336 47.312 35.922 38.556-1.11 67.82 3.051.369.051.007h3.051l.366-65.284 67.264 22.469 1.135 40.006 2.455.275.832.094-1.925-43.15-70.317-24.686-38.556-40.082h-2.22v3.606Z"/><path fill="#000" d="m105.39 87.532.276 1.248 67.265 22.469 1.135 40.006 2.455.275-1.926-41.113-69.205-22.885ZM64.336 47.312l35.922 38.556-1.11 67.82 3.051.369.832-70.408-38.695-39.943v3.606Z" opacity=".1"/><path fill="#F1C0C0" d="m105.521 114.75 24.671 4.858.008.002 43.21 8.512 1.979-.793-.007-.139-.129-2.759-69.707-14.086-.025 4.405Z"/><path fill="#000" d="m130.2 119.61 43.21 8.512 1.978-.793-.007-.139-45.181-7.58Z" opacity=".1"/><path fill="#F1C0C0" d="m131.852 97.527.667 36.736.345 18.846 3.038-.102 1.912-.064-.594-54.885-1.318-.438-.289-.093h-3.761Z"/><path fill="#000" d="M131.879 97.519v.008l.641 36.736.344 18.846 3.038-.101v-55.49h-4.023Z" opacity=".1"/><path fill="#3F3D56" d="M84.268 106.909c.178.097.348.207.51.331.19.166.36.354.509.558.728.943 1.4 2.038 1.33 3.227a1.318 1.318 0 0 1-.38.934c-.3.256-.731.268-1.125.268-.428 0-.878 0-1.248-.221-.37-.22-.68-.65-1.118-.64a.585.585 0 0 1-.186 0c-.152-.049-.182-.248-.28-.373-.17-.226-.529-.17-.795-.072-.267.099-.562.246-.826.133a.86.86 0 0 1-.358-.359c-.63-1.018-.764-2.243-.883-3.426-.073-.72-.63-3.176.907-2.617.68.245 1.314.734 1.932 1.092l2.01 1.165Z"/><path fill="#3F3D56" d="M82.75 107.151a.754.754 0 0 0 .932-.037c.253-.228.414-.541.453-.88.17-.052.257.17.365.306.19.231.578.228.75.474.121.17.094.406.18.598.11.248.383.377.57.577.176.219.303.473.373.745l.279.836c.133.347.219.711.254 1.081a1.405 1.405 0 0 1-.322 1.035c-.374.402-.987.444-1.529.433a2.022 2.022 0 0 1-.536-.063c-.48-.15-.788-.634-.915-1.121-.128-.487-.114-.998-.189-1.498a5.886 5.886 0 0 0-.424-1.423c-.15-.353-.56-.879-.554-1.254.122 0 .21.112.313.191Z"/><path fill="#BE6F72" d="M83.36 105.431a2.796 2.796 0 0 1-.138-.745c0-.509.232-.988.467-1.443l-1.941.263c-.235.032-.496.08-.629.275a.679.679 0 0 0 0 .627c.098.193.175.396.231.606.005.183.026.365.063.545.06.132.145.251.25.351.555.615.971 1.34 1.386 2.058-.012-.02 1.17-.935 1.122-1.234-.027-.17-.369-.374-.477-.537a2.723 2.723 0 0 1-.335-.766Z"/><path fill="#F1C0C0" d="M100 98.797v1.673l-28.641 5.586-1.486.9h-5.126v-.942l28.14-6.8 7.113-.417Z"/><path fill="#000" d="m100 100.47-28.641 5.586-1.486.9h-5.126l28.349-6.067 6.904-.419Z" opacity=".1"/><path fill="#FB1" d="M77.005 146.278a2.215 2.215 0 0 0-2.7-.574.7.7 0 0 0-.248.194c-.17.237-.061.565-.046.859.04.716-.531 1.299-1.044 1.8-.275.268-.555.555-.68.92-.123.365-.032.829.301 1.019.146.073.303.117.466.129.542.106 1.099.121 1.647.046.541-.104 1.073-.411 1.307-.91a.959.959 0 0 1 .22-.362c.298-.236.757.041 1.096-.127.28-.14.292-.359.296-.647.01-.798-.11-1.702-.615-2.347ZM81.08 146.248c.21.55.238 1.149.265 1.737.016.339.026.703-.158.99-.183.287-.541.438-.884.509-.708.146-1.529.009-1.985-.554-.35-.429-.423-1.018-.359-1.575.055-.457.17-.992-.158-1.316-.085-.087-.195-.148-.273-.241-.17-.208-.143-.52-.05-.775.119-.243.208-.5.266-.766.013-.125 2.299.089 2.51.192.286.141.242.377.329.663.12.397.351.755.497 1.136Z"/><path fill="#3F3D56" d="M81.5 121.853c.448.291.621.861.69 1.391.193 1.452-.143 2.919-.169 4.384-.024 2.053.57 4.144.063 6.132-.304 1.189-.046 2.547-.331 3.748-.085.356-.241.692-.323 1.049-.17.773.009 1.581.248 2.337.076.203.125.416.144.633-.011.333-.096.66-.248.958l-1.018 2.409c-.114.27-.562.314-.85.35-.54.064-1.142.11-1.572-.224-.43-.335-.533-.895-.6-1.418a21.75 21.75 0 0 1-.169-3.028 2.493 2.493 0 0 0-.07-.786c-.093-.29-.298-.542-.355-.849-.07-.397.131-.788.206-1.189a3.582 3.582 0 0 0-.017-1.102 43.595 43.595 0 0 0-.23-1.626c-.121-.756.053-1.501.17-2.259.111-.711-.03-1.436-.17-2.143a5.902 5.902 0 0 1-.212 1.698c-.09.27-.218.528-.297.804-.348 1.234.394 2.53.289 3.808-.05.598-.284 1.189-.217 1.778.045.431.246.827.383 1.238.138.411.21.881 0 1.265-.551 1.043-.139 2.461.355 3.53.1.19.188.386.262.588.146.482.024 1 .063 1.503a.959.959 0 0 1-.797-.24c-.074-.078-.136-.17-.209-.251a2.065 2.065 0 0 0-.71-.443.925.925 0 0 0-.509-.117 1.018 1.018 0 0 0-.484.3 4.774 4.774 0 0 1-.533.406.633.633 0 0 1-.272.12.236.236 0 0 1-.25-.127.3.3 0 0 1-.018-.088 13.447 13.447 0 0 1-.1-1.545c0-.889-1.063-1.5-1.197-2.378-.107-.708.091-1.429.025-2.143-.032-.366-.134-.726-.127-1.093 0-.238.054-.471.073-.707a5.276 5.276 0 0 0-.012-.786l-.053-.82c-.05-.81-.107-1.637-.426-2.377a8.083 8.083 0 0 1-.662-2.731c-.034-.594-.012-1.188-.08-1.784-.061-.539-.197-1.073-.158-1.613.032-.418.17-.822.202-1.24.067-.803-.24-1.584-.479-2.354-.239-.769-.416-1.621-.102-2.363a.773.773 0 0 1 .218-.316.95.95 0 0 1 .4-.15c2.914-.612 5.9-.802 8.868-.565.484.027.953.174 1.367.426Z"/><path fill="#BE6F72" d="M71.86 103.818a2.72 2.72 0 1 0 0-5.44 2.72 2.72 0 0 0 0 5.44Z"/><path fill="#BE6F72" d="M71.334 104.496c.039.155.039.318 0 .474a1.075 1.075 0 0 1-.179.298 7.66 7.66 0 0 1-.87.948c.16.36.45.646.813.803.359.153.736.261 1.122.321.193.051.393.064.59.041a1.57 1.57 0 0 0 .51-.231l1.512-.905c.228-.124.439-.276.628-.454.277-.284.434-.665.438-1.063a.291.291 0 0 0-.054-.2.361.361 0 0 0-.208-.087c-.531-.117-.95-.548-1.188-1.037a5.492 5.492 0 0 1-.413-1.574l-1.611.849c-.24.127-.477.255-.725.365-.158.071-.477.131-.59.275-.213.267.169.856.225 1.177Z"/><path fill="#3F3D56" d="M70.294 105.722a1.79 1.79 0 0 0-.521.704c-.105.34 0 .698.095 1.034a30.896 30.896 0 0 1 1.019 4.38c.142 1.019.195 2.053.265 3.083.142 2.103.35 5.455.626 7.543 1.02.046 2.012-.251 3.023-.36 1.888-.2 3.832.258 5.681-.17-.448-1.771-.896-4.795-1.344-6.564a12.532 12.532 0 0 1-.411-2.131c-.04-.518-.016-1.038-.009-1.559.016-1.019-.04-2.038-.097-3.057-.064-1.188-.129-2.377-.41-3.54a.66.66 0 0 0-.198-.389c-.17-.124-.39-.08-.592-.053a2.575 2.575 0 0 1-1.763-.417c-.224-.153-.524-.34-.733-.17a.728.728 0 0 0-.17.362 1.803 1.803 0 0 1-1.063 1.047c-.484.175-.99.28-1.504.309a.736.736 0 0 1-.468-.052c-.24-.148-.258-.68-.561-.715-.267-.031-.685.543-.865.715Z"/><path fill="#FB1" d="M74.312 109.868c-.627-.599-.902-1.469-1.359-2.207a4.915 4.915 0 0 0-1.173-1.291 3.502 3.502 0 0 1-.639-.541c-.16-.199-.283-.464-.528-.54a.645.645 0 0 0-.572.158 5.55 5.55 0 0 0-.424.451c-.72.746-1.986.849-2.556 1.712a1.403 1.403 0 0 0-.304.637 4.935 4.935 0 0 0 .907 3.549c.144.237.366.417.628.509-.035.317.007.637.122.934.315 1.075.701 2.127 1.157 3.15-.11.4-.185.808-.228 1.221-.119 1.037-.008 2.09-.12 3.129-.092.849-.34 1.676-.349 2.527 0 .136.012.297.13.367a.393.393 0 0 0 .202.042l2.088.063c1.213.036 2.437.071 3.63-.153a1.5 1.5 0 0 0 .457-.144c.405-.226.539-.735.603-1.189.085-.588.118-1.182.1-1.776.254.8.554 1.627 1.318 1.973.404.184.866.17 1.31.158a24.562 24.562 0 0 0 2.85-.294.37.37 0 0 0 .405-.263.375.375 0 0 0 .011-.173l.01-.927c.021-1.883-.446-3.683-.628-5.558-.057-.591-.052-1.189-.197-1.768-.06-.242-.146-.48-.198-.725a5.162 5.162 0 0 1-.085-.725l-.133-1.868c-.063-.864-.153-1.698-.219-2.56a12.412 12.412 0 0 0-.363-2.49c-.148-.509-.455-1.086-.987-1.149-.283-.032-.558.091-.828.178a3.351 3.351 0 0 1-2.038-.008 2.852 2.852 0 0 0-.635-.17.616.616 0 0 0-.58.241.872.872 0 0 0-.09.428c-.08 1.696-.228 3.443-.695 5.092Z"/><path fill="#3F3D56" d="M71.58 109.919c-.783-.825-1.587-1.665-2.595-2.19-.397-.207-.85-.364-1.289-.285-.44.078-.849.46-.829.906.014.277.182.522.235.793.06.306-.027.632.068.927.077.195.192.372.34.522l1.201 1.424c.51.595 1.02 1.198 1.675 1.608.655.411 1.504.603 2.224.311a2.733 2.733 0 0 0 1.22-1.119c.298-.475.509-.995.789-1.486a7.367 7.367 0 0 1 1.698-2.059c-.353-.092-.796-.221-1.019-.51a1.668 1.668 0 0 1-.161-.292l-.275-.594a.678.678 0 0 0-.51.192 4.26 4.26 0 0 1-.378.385c-.24.18-.564.229-.781.435-.084.088-.16.184-.228.285a1.91 1.91 0 0 1-1.386.747Z"/><path fill="#BE6F72" d="M76.38 106.369c.59-1.075.562-2.364.73-3.578a1.63 1.63 0 0 1 .325-.888c.34-.384.939-.389 1.451-.34.151.017.34.088.332.24a.304.304 0 0 1-.077.144 4.04 4.04 0 0 0-.839 2.228c.267.185.68-.195.936 0 .17.142.092.424-.01.628-.237.472-.48.941-.732 1.406-.2.41-.462.787-.776 1.119-.216.207-.469.37-.688.574-.51.477-.817 1.151-1.343 1.617a.277.277 0 0 1-.17.086.285.285 0 0 1-.178-.08 2.568 2.568 0 0 1-.642-.776c-.2-.37-.17-.478.146-.74.591-.467 1.167-.968 1.535-1.64Z"/><path fill="#FB1" d="M70.595 109.189c.102.063.227.134.34.082a.358.358 0 0 0 .113-.111c.194-.259.356-.541.482-.839a.32.32 0 0 0 .036-.135c0-.109-.097-.189-.187-.252-.482-.307-1-.554-1.543-.733-.449-.17-.917-.318-1.393-.275a1.33 1.33 0 0 0-.929.472c-.34.436.23.568.586.726.825.376 1.719.593 2.495 1.065Z"/><path fill="#000" d="M70.06 112.076a.249.249 0 0 0 .071.214c.05-.241-.015-.496.036-.739.075-.365.43-.64.46-1.007-.65-.127-.562 1.138-.567 1.532Z" opacity=".1"/><path fill="#000" d="M100 98.797v1.673l-6.904.419-.21-1.674 7.114-.418Z" opacity=".2"/><path fill="#3F3D56" d="M69.411 101.502c.431-.351.182-1.088.474-1.56.17-.258.457-.394.739-.51.34-.159.704-.26 1.078-.299a1.25 1.25 0 0 1 1.019.376c.11.125.185.278.288.409a1.102 1.102 0 0 0 1.07.37c.226-.051.46-.222.445-.453a.64.64 0 0 0-.204-.364l-.485-.538c-.552-.611-1.165-1.26-1.975-1.413-.564-.107-1.141.044-1.685.226-.219.073-.465.182-.526.404-.04.153.02.32-.015.474-.07.307-.464.41-.647.669-.184.258-.128.564-.18.849-.053.285-.206.564-.224.859-.012.179.078.51.278.574.2.065.426-.285.55-.073Z"/><path fill="#FED253" d="M74.36 99.59a5.093 5.093 0 0 0-.904-2.065 3.617 3.617 0 0 0-1.608-1.277 2.302 2.302 0 0 0-2.002.158 2.908 2.908 0 0 0-1 1.262c-.44.947-.603 2.105-.092 3.016.204-.248.554-.136.863-.226.387-.111.715-.369 1.083-.53 1.112-.49 2.47-.093 3.66-.338Z"/><path fill="#000" d="M69.014 99.537c-.04-.305-.065-.66.153-.878a.11.11 0 0 1 .09-.04.12.12 0 0 1 .07.06c.125.199.232.408.319.626a.648.648 0 0 0-.68.263M72.982 98.675l-.061-.606a.278.278 0 0 1 .012-.15.192.192 0 0 1 .248-.068.51.51 0 0 1 .198.199c.142.217.26.449.35.691a2.055 2.055 0 0 0-.827.01M74.502 123.278v1.385l-1.17.079h-6.154v-1.464h7.324Z" opacity=".1"/><path fill="#F1C0C0" d="M74.502 123.278v1.464H67.18L47.721 100.37v-1.152h4.079l22.701 24.06Z"/><path fill="#000" d="M74.502 123.278v1.464H67.18L47.721 100.37v-1.152h4.079l22.701 24.06Z" opacity=".1"/><path fill="#000" d="M74.502 123.278v1.464H67.18L47.721 100.37v-1.152l19.562 24.06h7.218Z" opacity=".1"/><path fill="#FB1" d="M50.272 147.706a.51.51 0 0 1-.445.6c-.472.159-.973.317-1.307.679-.335.362-.4 1.032 0 1.326.205.124.44.188.68.185.768.053 1.57.043 2.268-.283.499-.231.97-.625 1.518-.59.283.017.586.15.839.021s.324-.489.326-.79a5.847 5.847 0 0 0-.28-1.849c-.026-.082-1.106-.144-1.235-.17l-1.31-.17c-.247-.032-.782-.219-.977-.012-.195.208-.077.807-.077 1.053ZM58.085 143.468c.056.305.146.604.269.889.181.462.414.953.859 1.177.404.202.9.129 1.31-.063a1.08 1.08 0 0 0 .437-.331c.133-.231.192-.497.17-.762 0-.657-.039-1.337-.34-1.921-.258-.509-.708-.947-.714-1.511l-1.547.299a.44.44 0 0 0-.228.09.391.391 0 0 0-.098.185 5.055 5.055 0 0 0-.118 1.948ZM39.612 127.336c-.065.547-.037 1.133.248 1.605s.886.784 1.406.596a.204.204 0 0 0 .127-.097.24.24 0 0 0-.022-.17c-.23-.612-.21-1.29.053-1.888.034-.078.107-.17.187-.139.033.017.06.044.076.078a.886.886 0 0 1 .119.468 1.74 1.74 0 0 0-.014.45c.033.147.189.284.325.221a.345.345 0 0 0 .154-.219c.379-1.095.207-2.292.034-3.438a.18.18 0 0 0-.202-.189c-.801-.08-1.24-.272-1.698.474-.394.628-.793 1.492-.793 2.248Z"/><path fill="#3F3D56" d="M48.982 124.55c-.237.988-.477 1.988-.492 3.003a13.8 13.8 0 0 0 .142 1.89l.179 1.471c.06.496.12.99.207 1.481.055.252.085.51.09.769a4.105 4.105 0 0 1-.12.755 8.83 8.83 0 0 0-.179 1.58c-.019.849.087 1.698.153 2.547a28.364 28.364 0 0 1-.06 5.08c-.068.456.03.921.279 1.31.1.122.183.258.246.404.127.389-.17.777-.246 1.176a1.189 1.189 0 0 0 .988 1.359c1.359.161 2.754.088 3.979.71.129-.377-.153-.805-.024-1.189.081-.238.305-.392.458-.593.206-.305.308-.668.292-1.035.006-.48-.079-.957-.25-1.405-.145-.373-.352-.742-.34-1.143 0-.196.07-.404-.01-.585a.908.908 0 0 0-.22-.274 3.45 3.45 0 0 1-.888-2.012 9.266 9.266 0 0 1 .072-2.231c.083-.703.195-1.445.641-1.994a12.786 12.786 0 0 1 .359-4.966c.044-.15.113-.323.266-.359a.376.376 0 0 1 .326.129c.267.25.394.612.51.958.127.375.256.776.16 1.16-.041.17-.123.319-.17.482a1.43 1.43 0 0 0 .05.997.957.957 0 0 1 .123.375c-.016.114-.05.224-.102.326a1.5 1.5 0 0 0 .14 1.214c.217.361.484.688.794.973a3.566 3.566 0 0 0 .11 1.963.253.253 0 0 1 .022.189c-.03.064-.108.088-.17.134-.17.139-.064.402.05.584.311.499.656.976 1.03 1.43.34.405.31 1.188.815 1.334.213.046.433.046.646 0 .499-.076 1.056-.22 1.3-.662.1-.182.141-.402.297-.538.157-.136.359-.16.445-.323.087-.163-.01-.377.02-.565.028-.189.193-.34.245-.539.126-.458-.409-.835-.482-1.304-.105-.679.75-1.188.715-1.868-.075-1.475-.122-2.958-.199-4.433a31.982 31.982 0 0 1-.04-3.972c.059-.823.17-1.686-.133-2.452-.435-1.08-1.633-1.686-2.793-1.802-1.16-.115-2.316.16-3.466.34a21.907 21.907 0 0 1-5.765.121Z"/><path fill="#FBBEBE" d="M52.43 108.32a2.72 2.72 0 1 0-.001-5.44 2.72 2.72 0 0 0 0 5.44Z"/><path fill="#FBBEBE" d="M51.322 108.827a1.156 1.156 0 0 1-1.109.702c-.098.407.138.818.408 1.139a4.84 4.84 0 0 0 4.629 1.588c.328-.059.639-.189.911-.381a2.02 2.02 0 0 0 .697-1.205c.078-.469.1-.945.066-1.418a.368.368 0 0 0-.075-.262.377.377 0 0 0-.237-.078c-.574-.051-1.174-.073-1.678-.355-.505-.282-.863-.918-.62-1.441-.039.081-1.03.12-1.161.137-.41.058-.819.123-1.226.197-.196.011-.39.048-.576.109-.246.127-.155.064-.097.295.087.354.214.607.068.973Z"/><path fill="#3F3D56" d="M53.392 110.481a4.481 4.481 0 0 1-1.089-.12 1.528 1.528 0 0 1-.893-.596c-.125-.19-.207-.43-.407-.537-.328-.17-.702.117-.963.381a3.504 3.504 0 0 1-.818.658c-.364.192-.788.26-1.131.486a2.848 2.848 0 0 0-.68.734l-2.406 3.277c-.966 1.318-1.806 2.732-2.667 4.123-.746 1.204-1.136 2.589-1.698 3.888a.436.436 0 0 0-.053.262c.02.088.127.159.202.108-.253.252-.03.68-.09 1.033a1.265 1.265 0 0 1-.404.633 3.2 3.2 0 0 1 1.12.053c.38.108.739.28 1.06.509.206-.032.187-.397.34-.533.092-.08.227-.069.348-.093.453-.089.633-.634.981-.941.29-.256.702-.34 1.009-.581.5-.392.606-1.09.868-1.669.222-.491.572-.919.767-1.421.128-.326.189-.679.37-.98.29-.486.838-.744 1.359-.976.33-.148.68-.301 1.034-.277-.019.789-.119 1.567.053 2.338.06.272.142.537.214.807.324 1.215.4 2.482.416 3.735.78-.178 1.577-.274 2.377-.285.63-.019 1.258.063 1.888.051.747-.014 1.486-.158 2.233-.209.747-.051 1.528 0 2.189.34a20.774 20.774 0 0 1 .09-3.226l.18-1.688c.04-.491.116-.978.226-1.457.098-.387.24-.761.35-1.146.382-1.359.312-2.809.239-4.224-.037-.726-.318-1.441-.647-2.088a5.691 5.691 0 0 0-.408-.693 4.016 4.016 0 0 0-3.508-1.647.723.723 0 0 0-.251.054.839.839 0 0 0-.321.382 4.152 4.152 0 0 1-1.479 1.535ZM50.036 106.501c.077-.17.282-.233.408-.368.241-.258.132-.671.17-1.019.06-.51.484-.936.968-1.118a3.13 3.13 0 0 1 1.528-.096c.245.018.482.096.69.229.088.064.169.148.252.207a.676.676 0 0 0 .924-.216c-.601-.723-1.267-1.487-2.18-1.71a4.546 4.546 0 0 0-.953-.09c-.423-.008-.86-.015-1.25.147-.531.219-.905.723-1.097 1.266a6.166 6.166 0 0 0-.266 1.698 6.402 6.402 0 0 0 0 1.155c.065.525.26 1.025.567 1.455.041.067.1.122.17.158.774.34.007-1.557.07-1.698Z"/><path fill="#FED253" d="M54.888 103.701c-.093-.8-.664-1.46-1.27-1.992a4.679 4.679 0 0 0-1.707-1.027c-.64-.189-1.377-.148-1.925.234-.442.308-.722.797-.938 1.289a4.057 4.057 0 0 0-.409 1.868c.043.642.355 1.292.912 1.616.2-.295.548-.448.883-.568a43.151 43.151 0 0 1 4.454-1.42Z"/><path fill="#000" d="M49.737 103.368c.055 0 .09.056.118.102.138.216.257.443.355.679-.2.043-.54.09-.639-.085-.053-.088.01-.704.166-.696ZM53.608 102.984c-.041.04-.089-.04-.089-.098v-.659a.095.095 0 0 1 .012-.052.073.073 0 0 1 .025-.02.107.107 0 0 1 .031-.008c.138-.015.252.102.34.214.134.182.25.376.348.579l-.718-.022" opacity=".1"/><path fill="#3F3D56" d="M62.572 113.894c.156-.148.323-.285.499-.409.47-.314 1.04-.438 1.567-.638.528-.201 1.065-.525 1.27-1.051.103-.33.137-.676.099-1.019a1.019 1.019 0 0 0-.075-.42.843.843 0 0 0-.268-.292c-.717-.529-1.678-.572-2.568-.518a16.091 16.091 0 0 0-5.673 1.417.491.491 0 0 0-.238.169.487.487 0 0 0-.045.236 3.905 3.905 0 0 0 .191 1.479c.235.605.717 1.092.92 1.709.09.276.121.57.201.849.066.287.236.54.477.709.671.401 1.304-.137 1.77-.555l1.873-1.666Z"/><path fill="#FB1" d="m53.788 116.246-.861-1.878a6.536 6.536 0 0 1-.326-.803c-.099-.328-.146-.667-.238-.997-.302-1.097-1.065-2.01-1.437-3.085a.585.585 0 0 0-.139-.26.463.463 0 0 0-.379-.068c-.52.09-.925.486-1.4.71-.221.102-.459.17-.68.287a.851.851 0 0 0-.455.542c-.052.259.077.509.185.762.462 1.043.568 2.207.588 3.349.015.767-.024 1.591-.477 2.207-.871 1.189-.314 2.934.012 4.373.039.169.085.353.112.533.028.225.041.452.039.679 0 .762-.043 1.549-.362 2.24.315.167.663.266 1.019.288.986.126 1.976.214 2.97.265.311.029.625.013.932-.047a1.704 1.704 0 0 0 1.255-1.664c.054.47.154.981.496 1.307.341.326.838.375 1.302.401 1.308.069 2.62.032 3.923-.111a.65.65 0 0 0 .24-.056c.252-.125.266-.472.245-.75a31.903 31.903 0 0 0-.139-1.561 6.382 6.382 0 0 1-.081-.998c.025-.344.082-.685.17-1.019.227-1.06.407-2.141.33-3.226a5.458 5.458 0 0 1-.032-.797c.044-.599.36-1.17.3-1.766-.17-1.752-.307-3.55-.796-5.241-.088-.303-.2-.627-.463-.8-.34-.228-.817-.109-1.206-.253a2.995 2.995 0 0 1-.518-.308 2.38 2.38 0 0 0-1.17-.36c-.312-.011-.66.058-.849.309-.087.142-.145.3-.17.464-.246 1.036-.535 2.06-.823 3.084l-.277.981-.742 2.636c-.073.28-.024.366-.098.631Z"/><path fill="#F1C0C0" d="m58.13 105.965 16.425 17.26v1.464H67.23L54.888 108.58"/><path fill="#000" d="m58.13 105.965 16.425 17.26v1.464H67.23L54.888 108.58" opacity=".1"/><path fill="#000" d="m55.15 108.352.052.019 12.134 14.854h7.219v1.464H67.23L54.888 108.58l.261-.228Z" opacity=".1"/><path fill="#FB1" d="M57.04 108.715c-.595.26-1.255.593-1.434 1.218a.7.7 0 0 0-.022.34.692.692 0 0 0 .623.477c.28.007.558-.044.817-.15l3.507-1.158c.095-.03.203-.076.227-.17a.291.291 0 0 0-.034-.169c-.108-.265-.215-.807-.443-.992-.187-.149-.557-.097-.783-.093-.87.006-1.686.358-2.459.697Z"/><path fill="#3F3D56" d="M60.165 109.58a5.619 5.619 0 0 1 1.74.27 3.095 3.095 0 0 1 1.442.985c.11.128.188.28.228.444.034.17.588.272.465.388.372-.06.284.115.66.112.378-.004.785-.101 1.011-.401.157-.247.227-.539.199-.83a1.418 1.418 0 0 0-.112-.588c-.17-.357-.56-.548-.92-.713l-3.033-1.387a1.997 1.997 0 0 0-.56-.199 2.043 2.043 0 0 0-.495.012l-1.373.158a2.054 2.054 0 0 1 .938 1.812"/></g><defs><clipPath id="a"><path fill="#fff" d="M0 38h200v123.019H0z"/></clipPath></defs></svg>