<svg xmlns="http://www.w3.org/2000/svg" width="200" height="200" fill="none"><g clip-path="url(#a)"><path fill="#3F3D56" d="M184.529 98.248H22.351a3.947 3.947 0 0 1-3.942-3.943V38.942A3.947 3.947 0 0 1 22.352 35h162.177a3.947 3.947 0 0 1 3.943 3.942v55.363a3.947 3.947 0 0 1-3.943 3.942ZM22.351 35.47a3.476 3.476 0 0 0-3.472 3.472v55.363a3.476 3.476 0 0 0 3.473 3.472h162.177a3.477 3.477 0 0 0 3.473-3.472V38.942a3.477 3.477 0 0 0-3.473-3.472H22.351Z"/><path fill="#E6E6E6" d="M200 164.385H0v.396h200v-.396ZM200 144.175H0v.395h200v-.395Z"/><path fill="#FFB6B6" d="M91.145 100.283c.144 1.805 1.192 3.194 2.34 3.103 1.149-.092 1.963-1.629 1.82-3.435a4.532 4.532 0 0 0-.642-2.041l-.705-7.64-3.578.407 1.075 7.488a4.53 4.53 0 0 0-.31 2.118Z"/><path fill="#E6E6E6" d="M86.872 64.642s3.344-1.77 5.04.876c1.696 2.645 2.866 31.26 2.866 31.26l-4.7.502-.891-20.164-2.315-12.474Z"/><path fill="#FFB6B6" d="m79.93 142.682 2.722-.001 1.296-10.503h-4.02l.001 10.504Z"/><path fill="#2F2E41" d="M89.259 142.62c.085.143.13.603.13.769a.925.925 0 0 1-.925.925h-8.433a.631.631 0 0 1-.63-.631v-.351s-.418-1.055.441-2.356c0 0 1.068 1.019 2.663-.576l.47-.853 3.405 2.491 1.888.232c.412.051.779-.008.991.35Z"/><path fill="#FFB6B6" d="m95.688 142.231 2.638-.674-1.344-10.498-3.894.995 2.6 10.177Z"/><path fill="#2F2E41" d="M104.712 139.862c.118.117.275.553.316.713a.925.925 0 0 1-.666 1.125l-8.171 2.087a.631.631 0 0 1-.767-.455l-.087-.34s-.666-.919-.155-2.392c0 0 1.286.723 2.437-1.218l.245-.942 3.915 1.57 1.886-.242c.413-.053.753-.2 1.047.094Z"/><path fill="#FFB6B6" d="m77.677 62.384-.13-.937 1.535-3.748 4.216-.468.91 5.366-6.531-.213Z"/><path fill="#000" d="m77.677 62.384-.13-.937 1.535-3.748 4.216-.468.91 5.366-6.531-.213Z" opacity=".1"/><path fill="#2F2E41" d="m72.757 88.854-1.874 5.153 1.406 2.811 7.027 40.759h4.672l-.924-36.074 10.775 36.074h4.624l-3.718-24.362-2.78-22.487-1.686-1.042-8.152-4.58-9.37 3.748Z"/><path fill="#E6E6E6" d="m84.704 92.368-2.811.468-3.748-8.901h8.433l-1.874 8.433Z"/><path fill="#2F2E41" d="m90.326 90.025-5.622 2.343-1.874-4.217-.937 4.685-9.838-3.167 1.405-5.734-1.405-18.74 4.961-3.307.66-.44 6.09.468.535.29 3.682 2.052.937 15.46 1.406 10.307Z"/><path fill="#E6E6E6" d="M84.301 62.206 81.66 73.394l-4.643-11.506.66-.44 6.091.468.534.29Z"/><path fill="#2F2E41" d="m79.785 61.447-.937 1.614.937.538-.469 9.824 1.874 2.547 1.874-3.765-1.405-8.606.468-2.152h-2.342Z"/><path fill="#FFB6B6" d="M81.19 60.51a4.45 4.45 0 1 0 0-8.9 4.45 4.45 0 0 0 0 8.9Z"/><path fill="#2F2E41" d="m78.346 56.45.962.42.42-2.518s1.678-.84 2.937-.42c1.26.42 3.358 0 3.358 0s0-4.197-2.938-4.197-5.876.42-5.876 1.679c0 1.259-1.259 2.518-1.259 2.518s-1.678 2.518 0 4.197c1.679 1.679 2.518 1.679 2.518 1.679l-.122-3.358Z"/><path fill="#FFB6B6" d="M69.71 100.152c-.049 1.81.845 3.302 1.997 3.333 1.152.031 2.125-1.411 2.174-3.222a4.53 4.53 0 0 0-.421-2.098l.11-7.671-3.601.025.274 7.56a4.531 4.531 0 0 0-.533 2.073Z"/><path fill="#E6E6E6" d="M74.165 64.25s-3.045-.937-4.45 1.874c-1.406 2.81.468 31.388.468 31.388h4.727l-1.254-20.145.51-13.118Z"/><path fill="#3F3D56" d="m190.981 117.49-11.356-3.477a2.058 2.058 0 0 0-.776-.082l-57.554 4.898c-.821.07-1.027 1.177-.287 1.537l1.844.898h-.049v42.996h1.737v-42.173l5.778 2.815c.442.215.935.303 1.424.254l.615-.063v39.167h1.737v-39.342l44.516-4.497v43.839h1.737v-44.014l7.383-.746v44.76h1.737v-44.935l1.347-.136c.945-.096 1.076-1.421.167-1.699Z"/><path fill="#fff" d="M138.003 118.659c1.086 0 17.155-1.955 17.155-1.955l2.388 3.258-16.72 3.257-2.823-4.56Z"/><path fill="#A0616A" d="m155.639 162.59-2.792-.005-1.309-10.771 4.12.008-.019 10.768Z"/><path fill="#2F2E41" d="M146.074 162.51c-.087.146-.134.619-.134.789a.948.948 0 0 0 .946.949l8.646.015a.646.646 0 0 0 .647-.645l.001-.36s.429-1.081-.449-2.416c0 0-1.096 1.042-2.729-.596l-.48-.875-3.496 2.547-1.935.235c-.423.052-.799-.009-1.017.357Z"/><path fill="#A0616A" d="m170.623 157.581-2.203 1.662-7.457-7.706 3.251-2.452 6.409 8.496Z"/><path fill="#2F2E41" d="M163.039 163.224c.019.167.264.567.365.702a.936.936 0 0 0 1.311.183l6.821-5.145a.64.64 0 0 0 .126-.895l-.215-.284s-.306-1.108-1.794-1.636c0 0-.242 1.475-2.506 1.158l-.9-.402-1.235 4.092-1.385 1.339c-.303.293-.634.469-.588.888Z"/><path fill="#A0616A" d="M164.788 101.916a4.662 4.662 0 1 1-9.323 0 4.662 4.662 0 0 1 9.323 0Z"/><path fill="#2F2E41" d="M164.349 128.793s-17.163-.971-18.135.972c-.971 1.943 5.252 28.632 5.252 28.632l5.553-1.164-2.709-18.725s14.322 3.793 16.265-.74c1.943-4.534 1.384-6.222 1.384-6.222l-7.61-2.753Z"/><path fill="#2F2E41" d="M168.746 125.532s-16.809 3.603-17.232 5.734c-.422 2.131 12.639 26.223 12.639 26.223l5.047-2.591-7.565-17.342s14.815-.13 15.49-5.016c.674-4.887-.312-6.367-.312-6.367l-8.067-.641Z"/><path fill="#FB1" d="M170.663 107.259h-8.075l-5.525 9.067s-1.296 5.859 0 6.492c1.295.632 1.295 7.433 1.295 7.433l13.601 1.295s1.943-20.401 1.295-22.344c-.648-1.943-2.591-1.943-2.591-1.943Z"/><path fill="#A0616A" d="m157.872 113.25-.809 9.568-9.106-3.865-2.174-1.093c-.425-.555-.978-1-1.611-1.298-1.574-.767-3.245-.577-3.733.425-.488 1.001.392 2.434 1.966 3.201a4.377 4.377 0 0 0 2.015.469l6.359 3.611.008-.014.028.051 9.972 4.165 2.294-12.561-5.209-2.659Z"/><path fill="#2F2E41" d="M156.901 102.563s-4.858.648-2.915-3.562c0 0-.296-2.282 1.147-2.437 1.444-.154 3.387-2.744 3.387-2.744s4.454-2.267 6.761 0c2.306 2.266 9.107 15.543 9.107 15.543l-4.534 4.858s-2.726-7.165-5.897-6.335c-3.17.83-6.085 3.304-6.085 3.304s-3.218-1.61-1.771-3.014c1.447-1.403.8-5.613.8-5.613Z"/><path fill="#FB1" d="M163.377 109.687s-2.267-2.914-3.886-.648c-1.619 2.267-2.914 5.182-2.914 5.182l6.476 2.267.324-6.801Z"/><path fill="#E6E6E6" d="m187.968 163.615-7.525-23.917h.019l-.031-.039v-.001l-.536-1.703v-.001a4.307 4.307 0 0 0 1.483-2.866l-3.439-18.918a4.337 4.337 0 0 0-4.163-4.744l-7.761-.02a4.332 4.332 0 0 0-4.438 3.7l-.172 1.16-2.378 16.175a4.275 4.275 0 0 0 .085 1.692l-1.711.223-.519.07-2.052.267-.007.002-.256.033h-.278v6.948h.017v22.21a.262.262 0 0 0 .524 0v-22.21h3.044l3.038 22.184c.02.13.13.226.261.226.01 0 .024 0 .034-.002a.262.262 0 0 0 .224-.296l-3.027-22.112h14.607a6.63 6.63 0 0 0 3.889-1.248l5.792 23.391a.26.26 0 0 0 .318.189.261.261 0 0 0 .189-.318l-5.848-23.617c.078-.065.156-.134.229-.205l2.325-.137 7.564 24.041a.261.261 0 1 0 .499-.157Zm-8.57-25.289c.019-.011.037-.024.054-.035l.056.178-.11-.143Z"/><path fill="#FFB6B6" d="m40.319 123.075 5.064-3.221 2.059 1.242-7.123 8.185v-6.206Z"/><path fill="#E6E6E6" d="M33.394 110.61s-3.364.791-1.781 5.342c1.583 4.551 6.727 14.048 8.31 13.455 1.583-.594 1.781-6.53 1.781-6.53s-.198.198-.99-.593c-.79-.792-.79-.43-.79-1.304 0-.873-.648-1.52-.648-1.52l-.738-1.529s0-7.123-2.968-7.519c-2.968-.396-2.176.198-2.176.198Z"/><path fill="#FFB6B6" d="M49.11 120.884c1.313-1.314 1.72-3.037.909-3.848-.812-.811-2.535-.404-3.848.91-1.314 1.313-1.72 3.036-.91 3.847.812.811 2.534.404 3.848-.909Z"/><path fill="#E6E6E6" d="m20.293 136.827 3.455 5.719 20.138-1.191-5.362-6.911-18.232 2.383Z"/><path fill="#E6E6E6" d="M26.31 163.578a.239.239 0 0 1-.236-.206l-6.018-43.949a.238.238 0 0 1 .473-.064l6.017 43.948a.238.238 0 0 1-.236.271Z"/><path fill="#E6E6E6" d="M20.293 163.634a.239.239 0 0 1-.239-.239V119.4a.239.239 0 1 1 .477 0v43.995a.239.239 0 0 1-.238.239ZM50.5 163.459a.24.24 0 0 1-.228-.167l-14.24-45.259a.238.238 0 1 1 .455-.143l14.24 45.259a.239.239 0 0 1-.228.31ZM46.15 163.514a.238.238 0 0 1-.231-.179l-9.89-39.944a.238.238 0 1 1 .462-.118l9.89 39.944a.238.238 0 0 1-.231.297Z"/><path fill="#E6E6E6" d="m20.293 120.1 16.503-.253 3.038 17.337H20.531l-.238-17.084Z"/><path fill="#FFB6B6" d="m45.654 145.594-4.16 7.323 4.83 1.063 2.013-5.208-2.683-3.178Z"/><path fill="#2F2E41" d="M42.989 151.534s-.162-1.194-1.112-.815c-.95.379-3.692 1.787-3.692 1.787s7.152 11.622 8.51 11.08c1.356-.541-.268-3.826-.268-3.826l.358-5.807-3.796-2.419ZM27.26 131.386s-1.484 6.826 3.067 9.2c4.55 2.374 20.083-3.462 20.083-3.462l-7.123 10.672 4.947 1.991s11.278-14.84 10.486-17.214c-.791-2.375-6.133-2.573-6.133-2.573l-12.07.594-3.166-.989-10.091 1.781Z"/><path fill="#FFB6B6" d="m39.501 148.844-6.539 5.307 4.112 2.748 3.77-4.119-1.343-3.936Z"/><path fill="#2F2E41" d="M34.857 153.407s.284-1.171-.74-1.164c-1.022.007-4.089.321-4.089.321s2.433 13.428 3.895 13.417c1.46-.01 1.143-3.661 1.143-3.661l2.447-5.278-2.656-3.635ZM27.538 128.916s-3.866 5.819-.491 9.686c3.375 3.868 19.966 4.083 19.966 4.083l-10.518 7.349 3.883 3.654s15.905-9.719 16.032-12.218c.127-2.5-4.778-4.628-4.778-4.628l-11.458-3.839-2.589-2.073-10.047-2.014ZM37.47 115.44s-3.76-1.385-5.54-1.385c-.17 0-.338.019-.506.055-1.14.241-2.189 1.221-2.691 1.755-.196.21-.309.35-.309.35s.012-.136.036-.376c.116-1.258.548-5.387 1.321-8.031.277-.944.596-1.698.962-2.064.853-.854 1.247-1.879 1.429-2.643.154-.655.154-1.116.154-1.116l-1.443-.621-.267-1.746c-.047.206-.267.608-1.005 1.378-.063.065-.132.12-.206.168-1.064.669-3.235-.495-4.404-1.227.487-1.692 1.37-3.239 2.972-3.492 3.76-.594 3.76-2.77 6.134-.396.196.196.393.384.591.566.76 1.452 1.037 3.399 1.136 4.753.071.947.053 1.606.053 1.606s.99 5.936 2.573 7.123c1.582 1.188-.99 5.343-.99 5.343Z"/><path fill="#FFB6B6" d="m30.15 105.942-2.674 3.922 6.037 1.618v-5.54H30.15Z"/><path fill="#000" d="m30.15 105.942-2.674 3.922 6.037 1.618v-5.54H30.15Z" opacity=".1"/><path fill="#E6E6E6" d="m33.888 109.719-5.738-2.374s-7.716 3.364-7.123 9.893c.594 6.53 6.134 17.808 6.134 17.808l11.08-4.749-1.187-12.663-3.166-7.915Z"/><path fill="#FFB6B6" d="M31.428 107.693a5.062 5.062 0 1 0 0-10.124 5.062 5.062 0 0 0 0 10.124Z"/><path fill="#2F2E41" d="M38.262 100.798c-.99.989-1.781 1.978-1.781 1.978l-.396-1.582s-.09.067-.251.174c-.627.427-2.311 1.501-3.663 1.733-.601.103-1.135.038-1.483-.325-.738-.769-.958-1.171-1.006-1.377l-.267 1.745-1.442.622s0 2.172 1.583 3.759c.077.077.152.172.225.283.756 1.14 1.298 3.93 1.643 6.302.304 2.109.45 3.886.45 3.886s-1.497-1.876-3.141-2.131a2.1 2.1 0 0 0-.273-.026c-.03-.004-.062-.004-.091-.004-1.781 0-5.54 1.385-5.54 1.385s-2.573-4.155-.99-5.342c1.583-1.187 2.572-7.123 2.572-7.123s-.065-2.541.59-4.818c.487-1.692 1.37-3.239 2.972-3.492 3.76-.594 3.76-2.77 6.134-.396.196.196.393.384.591.566 2.212 2.034 4.472 3.275 3.564 4.183Z"/><path fill="#3F3D56" d="M16.059 127.358h-1.88v37.131h1.88v-37.131ZM61.65 127.358h-1.88v37.131h1.88v-37.131Z"/><path fill="#FB1" d="M49.665 111.613H37.209v12.455h12.456v-12.455Z"/><path fill="#FFB6B6" d="m30.03 124.856 5.064-3.221 2.06 1.242-7.124 8.185v-6.206Z"/><path fill="#E6E6E6" d="M23.105 112.391s-3.364.791-1.78 5.342c1.582 4.551 6.727 14.048 8.31 13.455 1.583-.594 1.78-6.53 1.78-6.53s-.197.198-.989-.594c-.791-.791-.791-.43-.791-1.303s-.648-1.52-.648-1.52l-.737-1.53s0-7.123-2.968-7.518c-2.968-.396-2.177.198-2.177.198Z"/><path fill="#FFB6B6" d="M38.82 122.664c1.314-1.313 1.721-3.036.91-3.847-.811-.811-2.534-.404-3.848.909-1.313 1.314-1.72 3.036-.909 3.848.811.811 2.534.404 3.848-.91Z"/><path fill="#3F3D56" d="M65.41 125.948H8.54v4.23H65.41v-4.23ZM123.192 92.107h-8.399c-.666 0-1.206.54-1.206 1.206v3.464c0 .665.54 1.205 1.206 1.205h8.399c.666 0 1.206-.54 1.206-1.205v-3.465c0-.665-.54-1.205-1.206-1.205Z"/><path fill="#FB1" d="M140.818 95.571h-8.4a1.206 1.206 0 0 0 0 2.411h8.4a1.205 1.205 0 0 0 0-2.411Z"/></g><defs><clipPath id="a"><path fill="#fff" d="M0 35h200v130.981H0z"/></clipPath></defs></svg>