<svg xmlns="http://www.w3.org/2000/svg" width="200" height="200" fill="none"><g clip-path="url(#a)"><path fill="#FB1" d="M41.01 29.94c-.446-.607-1.367.05-.951.679.109.164.228.322.34.475 1.373 1.841 2.084 4.101 2.697 6.326.149.552.295 1.127.123 1.657.245-1.444.087-2.935-.283-4.353-.37-1.418-.947-2.765-1.542-4.103a3.735 3.735 0 0 0-.385-.682Z" opacity=".5"/><path fill="#FB1" d="M32.105 33.836c-.92-.027-1.042 1.376-.122 1.45.242.02.487.025.719.03 2.834.078 5.515 1.106 8.092 2.21.631.271 1.289.575 1.657 1.155-1.162-1.346-2.69-2.331-4.317-3.057-1.626-.725-3.359-1.2-5.09-1.644a4.453 4.453 0 0 0-.939-.144Z"/><path fill="#FB1" d="M32.361 37.28c-.585.022-.453.853.136.858.153 0 .308 0 .453-.013 1.789-.072 3.621.422 5.396.965.437.133.897.284 1.214.61a9.724 9.724 0 0 0-3.153-1.619 24.42 24.42 0 0 0-3.433-.755 3.105 3.105 0 0 0-.613-.046Z" opacity=".2"/><path fill="#FB1" d="M44.324 52.733c.166.562.94.227.797-.344-.036-.15-.082-.297-.125-.437-.514-1.714-.49-3.611-.405-5.466.022-.456.053-.939.291-1.328a9.708 9.708 0 0 0-.785 3.457 24.018 24.018 0 0 0 .12 3.512c.016.205.051.408.107.606Z" opacity=".5"/><path fill="#FB1" d="M33.425 29.16c-.351-.06-.377.451-.027.53.092.02.184.036.272.05 1.078.184 2.109.711 3.102 1.262.255.116.477.295.646.52a5.935 5.935 0 0 0-1.678-1.37 14.528 14.528 0 0 0-1.954-.885 1.847 1.847 0 0 0-.36-.107Z" opacity=".2"/><path fill="#FB1" d="M27.993 42.746c-.893.46-.138 1.722.779 1.304.24-.11.473-.234.698-.35 2.727-1.414 5.893-1.936 9.024-2.337.764-.098 1.58-.184 2.287.118-1.928-.544-3.984-.59-5.969-.358-1.985.233-3.917.728-5.829 1.253-.341.09-.673.214-.99.37Z"/><path fill="#FB1" d="M30.543 47.657c-.64.599.368 1.306 1.033.737.184-.15.345-.307.505-.459 1.956-1.841 4.54-3.141 7.112-4.346.632-.296 3.232-.596 3.925-.58-1.813.162-5.514.737-7.16 1.474a39.643 39.643 0 0 0-4.67 2.622c-.266.16-.515.345-.745.553Z" opacity=".5"/><path fill="#FB1" d="M35.121 55.495c-.184.857 1.037.87 1.266.013.059-.223.106-.45.152-.665.566-2.62 1.949-5.165 3.382-7.618.351-.603 2.318-2.328 2.898-2.71-1.4 1.164-4.123 3.735-5.051 5.286a39.77 39.77 0 0 0-2.354 4.812c-.124.285-.222.58-.293.882ZM44.335 25.403c-.438-.891-1.687-.158-1.29.755.104.24.22.474.33.697 1.347 2.723 1.809 5.87 2.155 8.966.085.76.159 1.57-.15 2.267.563-1.906.638-3.94.443-5.911-.195-1.97-.654-3.892-1.14-5.794a5.215 5.215 0 0 0-.348-.98ZM37.372 26.919a.166.166 0 0 0 .075.024c.05 0 .083-.05.103-.094.11-.238.047-.552.216-.737.169.202.306.428.407.67l.64-.183a.947.947 0 0 1-.12.736.96.96 0 0 1 .301.206.33.33 0 0 1 .08.34c-.149.035-.301.05-.454.043a3.01 3.01 0 0 1-.047.844.153.153 0 0 1-.056.107c-.046.03-.108 0-.156-.026a1.473 1.473 0 0 1-.527-.552l-.24.569a.258.258 0 0 1-.104.143.172.172 0 0 1-.201-.07.48.48 0 0 1-.07-.215l-.09-.542a.13.13 0 0 0-.03-.077.138.138 0 0 0-.094-.028h-.68c-.038-.121.082-.232.198-.283.116-.052.252-.089.311-.201.118-.23-.184-.552-.057-.746.151-.248.398-.026.595.072Z"/><path fill="#FB1" d="M49.751 29.94c.446-.607 1.367.05.95.679-.108.164-.228.322-.34.475-1.372 1.841-2.085 4.101-2.696 6.326-.151.552-.297 1.127-.126 1.657-.244-1.444-.084-2.935.286-4.353.37-1.418.947-2.774 1.541-4.113.105-.236.234-.462.385-.672Z" opacity=".5"/><path fill="#FB1" d="M58.654 33.836c.92-.027 1.044 1.376.121 1.45-.24.02-.484.025-.716.03-2.836.078-5.515 1.106-8.092 2.21-.632.271-1.29.575-1.657 1.155 1.16-1.346 2.688-2.331 4.316-3.057 1.628-.725 3.36-1.199 5.083-1.642.309-.083.626-.132.945-.146Z"/><path fill="#FB1" d="M58.4 37.28c.583.022.453.853-.137.858-.153 0-.307 0-.455-.013-1.788-.072-3.618.422-5.394.965-.436.133-.897.284-1.213.61a9.724 9.724 0 0 1 3.152-1.619 24.365 24.365 0 0 1 3.433-.755c.203-.036.408-.051.614-.046Z" opacity=".5"/><path fill="#FB1" d="M57.334 29.16c.353-.06.379.451.029.53-.092.02-.184.036-.274.05-1.078.184-2.107.711-3.1 1.262a1.675 1.675 0 0 0-.646.52 5.91 5.91 0 0 1 1.677-1.37c.628-.342 1.28-.638 1.953-.885.116-.047.237-.083.36-.107ZM48.173 53.796c-.079.35-.563.184-.499-.184.017-.094.037-.185.057-.273.247-1.064.157-2.22.033-3.346a1.696 1.696 0 0 0-.23-.798c.331.65.54 1.356.615 2.081.074.713.096 1.43.065 2.146-.002.126-.015.25-.04.374Z" opacity=".2"/><path fill="#FB1" d="M57.108 51.48c.275.467-.4.433-.696-.033a6.284 6.284 0 0 1-.219-.368c-.836-1.423-2.11-2.832-3.392-4.193a4.705 4.705 0 0 0-1.053-.908 16.593 16.593 0 0 1 2.762 2.357c.823.862 1.55 1.759 2.263 2.656.123.155.235.319.335.49Z" opacity=".5"/><path fill="#FB1" d="M32.656 51.48c-.275.467.401.433.697-.033.078-.121.15-.243.218-.368.836-1.423 2.11-2.832 3.394-4.193.303-.353.658-.66 1.051-.908a16.745 16.745 0 0 0-2.762 2.357c-.823.862-1.55 1.759-2.261 2.656a4.34 4.34 0 0 0-.337.49ZM41.598 53.796c.08.35.562.184.5-.184-.017-.094-.04-.185-.06-.273-.244-1.064-.156-2.22-.03-3.346.009-.28.087-.555.227-.798a5.928 5.928 0 0 0-.615 2.081c-.074.713-.096 1.43-.066 2.146.003.126.017.25.044.374ZM54.512 32.66c.352-.063.378.45.028.528-.092.02-.184.037-.273.051-1.077.185-2.108.711-3.101 1.26a1.71 1.71 0 0 0-.646.52 5.93 5.93 0 0 1 1.677-1.367 14.77 14.77 0 0 1 1.954-.888c.117-.047.238-.082.361-.105ZM51.23 25.79c.304-.184.52.278.225.48-.08.054-.159.104-.236.15-.93.573-1.689 1.447-2.403 2.328a1.712 1.712 0 0 0-.407.723c.23-.69.584-1.332 1.046-1.895.452-.553.945-1.071 1.473-1.552.093-.088.194-.166.302-.234Z" opacity=".2"/><path fill="#FB1" d="M62.768 42.746c.893.46.138 1.722-.779 1.304-.24-.11-.475-.234-.698-.35-2.73-1.414-5.893-1.936-9.024-2.337-.764-.098-1.58-.184-2.287.118 1.928-.544 3.982-.59 5.969-.358 1.987.233 3.915.728 5.828 1.253.342.09.674.214.991.37Z"/><path fill="#FB1" d="M60.221 47.657c.641.599-.368 1.306-1.033.737-.184-.149-.344-.307-.505-.458-1.961-1.844-4.54-3.15-7.117-4.354-.632-.297-3.233-.597-3.927-.58 1.814.162 5.516.736 7.162 1.473a39.658 39.658 0 0 1 4.67 2.623c.268.162.519.35.75.56Z" opacity=".5"/><path fill="#FB1" d="M52.656 56.473c.079.873-1.138.737-1.256-.145-.032-.229-.05-.459-.07-.678-.232-2.672-1.29-5.37-2.394-7.983-.275-.641-2.01-2.6-2.538-3.05 1.243 1.33 3.622 4.22 4.35 5.877a39.745 39.745 0 0 1 1.733 5.068c.086.297.145.603.175.911ZM53.387 26.919a.158.158 0 0 1-.076.024c-.048 0-.08-.05-.101-.094-.11-.238-.048-.552-.216-.737a2.595 2.595 0 0 0-.407.67l-.642-.183a.954.954 0 0 0 .121.736.98.98 0 0 0-.302.206.333.333 0 0 0-.077.34c.148.035.3.05.453.043-.025.282-.009.567.048.844a.153.153 0 0 0 .055.107c.046.03.109 0 .157-.026a1.51 1.51 0 0 0 .526-.552l.24.569c.015.059.053.11.105.143a.171.171 0 0 0 .2-.07.504.504 0 0 0 .07-.215l.09-.542a.13.13 0 0 1 .03-.077c.027-.02.06-.03.094-.028h.68c.038-.121-.082-.232-.198-.283-.116-.052-.254-.089-.31-.201-.119-.23.183-.552.056-.746-.15-.248-.392-.026-.596.072Z"/><path fill="#FB1" d="M55.322 53.33a.161.161 0 0 1-.075.022c-.05 0-.083-.05-.103-.094-.109-.236-.046-.543-.214-.737a2.55 2.55 0 0 0-.409.684l-.64-.198a.949.949 0 0 0 .12.737.951.951 0 0 0-.301.205.336.336 0 0 0-.08.338c.149.037.301.052.454.046-.024.282-.008.565.047.842.005.042.024.08.056.109.048.03.108 0 .156-.028.222-.134.404-.325.527-.552l.24.569a.254.254 0 0 0 .106.141.167.167 0 0 0 .2-.068.517.517 0 0 0 .071-.215l.088-.544a.129.129 0 0 1 .03-.077.14.14 0 0 1 .096-.026c.224 0 .45-.009.677 0 .039-.12-.08-.232-.197-.283-.116-.052-.252-.089-.311-.2-.118-.23.184-.553.057-.738-.15-.261-.398-.03-.595.067Z" opacity=".2"/><path fill="#FB1" d="M60.757 35.623a.142.142 0 0 1-.075.022c-.05 0-.083-.048-.104-.092-.108-.238-.046-.553-.215-.737a2.6 2.6 0 0 0-.407.685l-.64-.199a.949.949 0 0 0 .12.737.984.984 0 0 0-.301.204.333.333 0 0 0-.08.34c.149.037.301.052.453.045-.023.282-.007.566.048.843a.155.155 0 0 0 .056.107c.046.03.108 0 .156-.025.221-.135.403-.326.527-.553l.24.57c.016.058.053.109.104.143a.173.173 0 0 0 .201-.07.48.48 0 0 0 .07-.216l.09-.552a.13.13 0 0 1 .03-.076c.026-.02.06-.03.094-.027h.68c.038-.12-.082-.232-.198-.282-.116-.05-.252-.088-.311-.2-.118-.231.184-.553.057-.737-.151-.253-.394-.024-.595.07ZM39.03 55.978a.216.216 0 0 1-.106.031c-.068 0-.114-.068-.143-.129-.151-.331-.065-.76-.299-1.038-.238.286-.43.608-.567.953l-.899-.283a1.332 1.332 0 0 0 .17 1.024c-.158.068-.3.166-.422.287a.466.466 0 0 0-.109.472c.207.05.42.072.632.064a4.18 4.18 0 0 0 .066 1.173.21.21 0 0 0 .078.15c.064.042.15 0 .217-.036.31-.19.564-.46.737-.78l.333.793a.369.369 0 0 0 .147.2.236.236 0 0 0 .278-.097.69.69 0 0 0 .1-.302l.123-.755a.197.197 0 0 1 .043-.106.184.184 0 0 1 .132-.04c.315 0 .63-.01.945-.008.055-.168-.112-.323-.274-.395-.163-.071-.352-.123-.433-.28-.166-.318.26-.762.079-1.038-.208-.315-.552.004-.829.14ZM29.99 36.155a.22.22 0 0 1-.106.03c-.066 0-.114-.067-.142-.128-.153-.332-.064-.76-.298-1.039-.239.286-.43.608-.57.954l-.892-.278a1.325 1.325 0 0 0 .167 1.024 1.35 1.35 0 0 0-.42.287.466.466 0 0 0-.11.472c.206.05.419.072.631.064-.033.393-.01.788.069 1.173a.166.166 0 0 0 .294.115c.31-.192.564-.46.737-.781l.331.794a.35.35 0 0 0 .15.198.237.237 0 0 0 .278-.095.68.68 0 0 0 .097-.302l.125-.755a.185.185 0 0 1 .041-.107.184.184 0 0 1 .133-.037c.315 0 .63-.013.946-.011.054-.168-.114-.322-.274-.394-.16-.072-.354-.124-.435-.28-.164-.319.262-.763.081-1.039-.213-.32-.558-.002-.832.135Z"/><path fill="#FB1" d="M57.42 48.431a.107.107 0 0 1-.055.017c-.037 0-.061-.037-.078-.069-.08-.184-.033-.403-.158-.552a1.935 1.935 0 0 0-.302.506l-.475-.147a.718.718 0 0 0 .09.553.692.692 0 0 0-.223.15.247.247 0 0 0-.059.251c.11.027.223.039.335.035a2.207 2.207 0 0 0 .05.666.11.11 0 0 0 .028.036.114.114 0 0 0 .116-.019c.163-.102.298-.245.39-.414l.184.422c.013.043.04.08.078.105a.127.127 0 0 0 .149-.05.369.369 0 0 0 .051-.16l.067-.402c.001-.02.009-.04.022-.057a.091.091 0 0 1 .07-.02h.503c.027-.089-.061-.171-.148-.208-.086-.037-.184-.067-.23-.15-.087-.169.14-.405.044-.552-.096-.147-.304-.015-.45.059ZM45.14 55.521a.149.149 0 0 1-.055.017.104.104 0 0 1-.076-.07c-.08-.175-.035-.404-.16-.553a1.9 1.9 0 0 0-.302.507l-.473-.148a.704.704 0 0 0 .088.544.775.775 0 0 0-.223.153.247.247 0 0 0-.059.25c.11.028.223.039.336.033a2.21 2.21 0 0 0 .036.625.115.115 0 0 0 .041.079c.035.022.081 0 .116-.019.164-.102.298-.245.39-.414l.185.422c.012.043.04.08.077.105a.13.13 0 0 0 .15-.052.368.368 0 0 0 .05-.16l.067-.402c.001-.02.01-.04.022-.055a.095.095 0 0 1 .07-.02h.503c.027-.089-.06-.172-.146-.21-.084-.039-.184-.065-.23-.15-.088-.169.138-.404.043-.552-.096-.147-.303-.004-.45.07Z" opacity=".2"/><path fill="#FB1" d="M33.256 30.707a.137.137 0 0 1-.055.017.102.102 0 0 1-.075-.07c-.082-.184-.035-.404-.159-.553a1.81 1.81 0 0 0-.302.507l-.475-.148a.699.699 0 0 0 .09.553.758.758 0 0 0-.224.153.244.244 0 0 0-.058.25c.11.028.223.04.336.033a2.21 2.21 0 0 0 .035.625.113.113 0 0 0 .04.079c.035.022.081 0 .116-.018.164-.102.299-.245.39-.415l.185.422c.012.043.04.08.079.105a.127.127 0 0 0 .147-.052.369.369 0 0 0 .052-.16l.066-.401a.094.094 0 0 1 .022-.056.096.096 0 0 1 .07-.02h.503c.03-.088-.06-.171-.146-.21-.084-.039-.184-.064-.23-.15-.088-.169.138-.404.043-.552-.096-.147-.302-.012-.45.061ZM39.582 44.689a.109.109 0 0 1-.057.016c-.035 0-.061-.035-.076-.068-.08-.175-.035-.403-.158-.552a1.858 1.858 0 0 0-.302.506l-.475-.147a.714.714 0 0 0 .09.552.737.737 0 0 0-.223.153.244.244 0 0 0-.059.25c.11.028.223.04.335.034a2.21 2.21 0 0 0 .035.624c.004.03.018.059.04.08.036.021.082 0 .117-.021.164-.1.299-.243.39-.413l.184.422a.2.2 0 0 0 .08.105.125.125 0 0 0 .147-.051.37.37 0 0 0 .053-.16l.067-.402c0-.02.008-.04.022-.055a.09.09 0 0 1 .07-.02h.5c.03-.089-.058-.172-.145-.21-.086-.04-.184-.067-.23-.15-.087-.17.14-.405.042-.552-.097-.148-.302-.013-.447.059ZM34.991 39.238a.101.101 0 0 1-.055.016c-.037 0-.061-.035-.076-.068-.08-.175-.035-.403-.16-.553a1.901 1.901 0 0 0-.302.507l-.473-.147a.705.705 0 0 0 .088.552.774.774 0 0 0-.223.153.245.245 0 0 0-.059.25c.11.028.223.04.335.034a2.21 2.21 0 0 0 .037.624.113.113 0 0 0 .04.08c.036.021.082 0 .117-.021.164-.1.299-.243.39-.413l.184.422c.013.043.04.08.078.105a.128.128 0 0 0 .149-.052.368.368 0 0 0 .051-.16l.067-.401a.095.095 0 0 1 .022-.055.096.096 0 0 1 .07-.02h.503c.027-.09-.061-.172-.146-.21-.084-.04-.184-.067-.23-.15-.088-.17.138-.405.042-.552-.095-.148-.302-.013-.449.059ZM54.707 40.521a.107.107 0 0 1-.055.017c-.037 0-.06-.035-.077-.068-.08-.175-.033-.404-.159-.553a1.901 1.901 0 0 0-.302.507l-.473-.148a.706.706 0 0 0 .088.544.697.697 0 0 0-.222.152.245.245 0 0 0-.06.25c.11.027.223.039.336.034a2.21 2.21 0 0 0 .037.624.115.115 0 0 0 .04.08c.035.022.081 0 .116-.02.164-.102.298-.244.39-.413l.185.42c.011.044.039.082.077.106a.128.128 0 0 0 .15-.051.37.37 0 0 0 .05-.16l.067-.402c.002-.02.01-.04.022-.057a.098.098 0 0 1 .07-.018h.503c.028-.089-.06-.172-.146-.21-.084-.039-.184-.066-.23-.15-.088-.169.138-.405.043-.552-.096-.147-.302-.004-.45.068Z" opacity=".5"/><path fill="#FB1" d="M45.14 39.45a.102.102 0 0 1-.055.016c-.037 0-.061-.037-.076-.068-.08-.184-.035-.404-.16-.553a1.963 1.963 0 0 0-.302.507l-.473-.148a.71.71 0 0 0 .088.553.736.736 0 0 0-.223.15.25.25 0 0 0-.059.253c.11.026.223.037.335.033a2.21 2.21 0 0 0 .049.667.108.108 0 0 0 .029.035c.035.024.08 0 .116-.019.164-.101.298-.244.39-.414l.184.422c.012.043.04.08.078.105a.125.125 0 0 0 .149-.05.367.367 0 0 0 .051-.16l.067-.402c.001-.02.009-.04.022-.057a.116.116 0 0 1 .07-.02h.502c.028-.088-.06-.171-.145-.208-.085-.037-.184-.066-.23-.15-.088-.169.138-.404.042-.552-.096-.147-.302-.013-.45.06Z" opacity=".2"/><path fill="#FB1" d="M42.138 40.755a.107.107 0 0 1-.055.017c-.037 0-.061-.035-.078-.068-.08-.185-.033-.404-.158-.553a1.963 1.963 0 0 0-.302.507l-.475-.146a.712.712 0 0 0 .09.543.72.72 0 0 0-.223.151.248.248 0 0 0-.059.253c.11.025.223.036.335.033-.017.209-.004.419.037.624a.115.115 0 0 0 .04.08c.036.021.082 0 .117-.02.164-.103.299-.245.39-.415l.184.421c.012.044.04.082.078.107a.129.129 0 0 0 .149-.051.369.369 0 0 0 .052-.16l.066-.402c.001-.02.009-.04.022-.057a.109.109 0 0 1 .07-.02h.503c.027-.09-.061-.173-.146-.21-.085-.037-.184-.067-.23-.15-.089-.169.138-.405.042-.552-.096-.147-.302-.004-.45.068Z" opacity=".3"/><path fill="#FB1" d="M39.34 32.86a.109.109 0 0 1-.057.017c-.035 0-.06-.035-.075-.068-.081-.185-.035-.404-.158-.553a1.876 1.876 0 0 0-.302.505l-.476-.146a.697.697 0 0 0 .09.553.755.755 0 0 0-.224.15.252.252 0 0 0-.057.253c.11.027.222.038.335.033-.018.209-.006.42.035.624a.115.115 0 0 0 .04.08c.035.022.081 0 .117-.02.164-.101.3-.244.39-.415l.184.422a.197.197 0 0 0 .08.107.125.125 0 0 0 .148-.069.369.369 0 0 0 .054-.16l.064-.401c.002-.021.01-.041.022-.057a.116.116 0 0 1 .07-.02h.503c.03-.09-.059-.174-.145-.21-.087-.037-.184-.067-.23-.15-.087-.17.138-.405.042-.552-.096-.148-.304-.004-.45.077Z" opacity=".2"/><path fill="#FB1" d="M44.852 43.173a.126.126 0 0 1-.057.017c-.035 0-.06-.037-.075-.07-.081-.175-.035-.402-.158-.553a1.888 1.888 0 0 0-.302.507l-.476-.148a.702.702 0 0 0 .09.553.72.72 0 0 0-.224.15.251.251 0 0 0-.057.251c.11.027.222.04.335.035-.018.208-.006.418.035.623.003.03.018.058.04.079a.114.114 0 0 0 .117-.019c.164-.101.298-.244.39-.414l.184.422c.013.043.04.08.08.105a.127.127 0 0 0 .147-.05.37.37 0 0 0 .053-.16l.066-.402a.074.074 0 0 1 .027-.061.075.075 0 0 1 .065-.016h.501c.03-.088-.059-.171-.145-.208-.087-.037-.184-.066-.23-.15-.087-.169.138-.404.042-.552-.096-.147-.302-.02-.447.061Z" opacity=".3"/><g opacity=".1"><path fill="#3F3D56" d="M143.792 168.834c1.829 0 3.313-1.942 3.313-4.337 0-2.395-1.484-4.337-3.313-4.337-1.83 0-3.313 1.942-3.313 4.337 0 2.395 1.483 4.337 3.313 4.337Z"/><path fill="#3F3D56" d="M146.409 145.935c.463-.805.702-1.72.692-2.65 0-2.394-1.484-4.338-3.315-4.338-1.83 0-3.315 1.942-3.315 4.338-.007.93.234 1.845.698 2.65a5.423 5.423 0 0 0 0 5.303 5.416 5.416 0 0 0 0 5.3 5.235 5.235 0 0 0-.692 2.652c0 2.394 1.484 4.337 3.315 4.337 1.83 0 3.315-1.941 3.315-4.337a5.24 5.24 0 0 0-.698-2.647 5.416 5.416 0 0 0 0-5.3 5.419 5.419 0 0 0 0-5.308Z"/><path fill="#3F3D56" d="M143.792 142.326c1.829 0 3.313-1.942 3.313-4.337 0-2.395-1.484-4.337-3.313-4.337-1.83 0-3.313 1.942-3.313 4.337 0 2.395 1.483 4.337 3.313 4.337Z"/><path fill="#3F3D56" d="M143.792 137.026c1.829 0 3.313-1.942 3.313-4.337 0-2.396-1.484-4.337-3.313-4.337-1.83 0-3.313 1.941-3.313 4.337 0 2.395 1.483 4.337 3.313 4.337Z"/><path fill="#FB1" d="M156.195 96.409a15.68 15.68 0 0 0 1.234-1.818l-8.707-1.429 9.416.07a15.903 15.903 0 0 0 .304-12.576l-12.634 6.554 11.65-8.566a15.86 15.86 0 0 0-10.192-7.522 15.873 15.873 0 0 0-16.021 25.287 15.944 15.944 0 0 0-1.811 2.893l11.302 5.871-12.049-4.052a15.871 15.871 0 0 0 2.558 14.905 15.869 15.869 0 0 0 4.054 23.264 15.873 15.873 0 0 0 24.201-15.15 15.869 15.869 0 0 0-3.305-8.114 15.874 15.874 0 0 0 0-19.625v.008Z"/><path fill="#000" d="M127.849 106.221a15.799 15.799 0 0 0 3.396 9.812 15.86 15.86 0 0 0-3.305 8.114 15.864 15.864 0 0 0 7.359 15.15 15.87 15.87 0 0 0 20.896-23.264c2.127-2.694-28.346-11.593-28.346-9.812Z" opacity=".1"/></g><g opacity=".1"><path fill="#3F3D56" d="M30.241 168.834c1.83 0 3.313-1.942 3.313-4.337 0-2.395-1.483-4.337-3.313-4.337s-3.313 1.942-3.313 4.337c0 2.395 1.483 4.337 3.313 4.337Z"/><path fill="#3F3D56" d="M32.864 145.935c.462-.806.7-1.72.692-2.65 0-2.394-1.484-4.338-3.315-4.338-1.83 0-3.314 1.942-3.314 4.338-.008.93.233 1.845.697 2.65a5.425 5.425 0 0 0 0 5.303 5.417 5.417 0 0 0 0 5.3 5.223 5.223 0 0 0-.692 2.652c0 2.394 1.484 4.337 3.315 4.337 1.83 0 3.315-1.941 3.315-4.337a5.244 5.244 0 0 0-.693-2.652 5.42 5.42 0 0 0 0-5.3 5.424 5.424 0 0 0 0-5.303h-.005Z"/><path fill="#3F3D56" d="M30.241 142.326c1.83 0 3.313-1.942 3.313-4.337 0-2.395-1.483-4.337-3.313-4.337s-3.313 1.942-3.313 4.337c0 2.395 1.483 4.337 3.313 4.337Z"/><path fill="#3F3D56" d="M30.241 137.026c1.83 0 3.313-1.942 3.313-4.337 0-2.396-1.483-4.337-3.313-4.337s-3.313 1.941-3.313 4.337c0 2.395 1.483 4.337 3.313 4.337Z"/><path fill="#FB1" d="M17.838 96.409a15.68 15.68 0 0 1-1.234-1.818l8.707-1.429-9.416.07a15.902 15.902 0 0 1-.304-12.576l12.634 6.554-11.65-8.566A15.874 15.874 0 1 1 42.788 96.41a15.93 15.93 0 0 1 1.81 2.893l-11.301 5.871 12.05-4.052a15.883 15.883 0 0 1-2.559 14.905 15.87 15.87 0 1 1-24.95 0 15.874 15.874 0 0 1 0-19.625v.008Z"/><path fill="#000" d="M46.184 106.221a15.802 15.802 0 0 1-3.396 9.812 15.871 15.871 0 1 1-24.95 0c-2.127-2.694 28.346-11.593 28.346-9.812Z" opacity=".1"/></g><g opacity=".1"><path fill="#3F3D56" d="M83.483 168.834c1.83 0 3.313-1.941 3.313-4.337 0-2.395-1.484-4.337-3.314-4.337s-3.313 1.942-3.313 4.337c0 2.396 1.484 4.337 3.314 4.337Z"/><path fill="#3F3D56" d="M86.105 145.936c.462-.807.7-1.721.69-2.65 0-2.394-1.473-4.339-3.314-4.339-1.842 0-3.315 1.943-3.315 4.339a5.217 5.217 0 0 0 .696 2.65 5.42 5.42 0 0 0 0 5.302 5.416 5.416 0 0 0 0 5.3 5.226 5.226 0 0 0-.693 2.652c0 2.394 1.485 4.337 3.315 4.337 1.83 0 3.315-1.941 3.315-4.337a5.243 5.243 0 0 0-.69-2.652 5.43 5.43 0 0 0 0-5.3 5.433 5.433 0 0 0 0-5.302h-.004Z"/><path fill="#3F3D56" d="M83.483 142.326c1.83 0 3.313-1.942 3.313-4.337 0-2.395-1.484-4.337-3.314-4.337s-3.313 1.942-3.313 4.337c0 2.395 1.484 4.337 3.314 4.337Z"/><path fill="#3F3D56" d="M83.483 137.026c1.83 0 3.313-1.942 3.313-4.337 0-2.395-1.484-4.337-3.314-4.337s-3.313 1.942-3.313 4.337c0 2.395 1.484 4.337 3.314 4.337Z"/><path fill="#FB1" d="M71.087 96.409a15.68 15.68 0 0 1-1.234-1.818l8.705-1.429-9.414.07a15.902 15.902 0 0 1-.304-12.576l12.633 6.554-11.652-8.565a15.873 15.873 0 1 1 26.216 17.764 15.82 15.82 0 0 1 1.808 2.893l-11.307 5.871 12.05-4.051a15.877 15.877 0 0 1-2.558 14.904 15.87 15.87 0 1 1-24.95 0 15.874 15.874 0 0 1 0-19.624l.007.007Z"/><path fill="#000" d="M99.425 106.221a15.802 15.802 0 0 1-3.396 9.812 15.87 15.87 0 1 1-24.95 0c-2.127-2.694 28.346-11.593 28.346-9.812Z" opacity=".1"/></g><g fill="#FB1" opacity=".6"><path d="M96.402 50.772a.369.369 0 0 0-.599.427c.068.103.144.203.216.298.863 1.168 1.31 2.578 1.697 3.986.094.344.185.71.078 1.051a6.553 6.553 0 0 0-.184-2.744 17.085 17.085 0 0 0-.97-2.591 2.297 2.297 0 0 0-.238-.427Z" opacity=".5"/><path d="M90.792 53.227c-.584-.019-.657.865-.077.911.152.013.305.017.453.02 1.786.048 3.473.697 5.095 1.393.4.171.818.368 1.05.736a7.652 7.652 0 0 0-2.718-1.926 20.132 20.132 0 0 0-3.208-1.037 2.742 2.742 0 0 0-.595-.097Z"/><path d="M90.954 55.4c-.368.012-.286.537.086.54h.286c1.127-.047 2.28.264 3.4.607.282.062.545.195.764.385a6.133 6.133 0 0 0-1.987-1.02 15.163 15.163 0 0 0-2.159-.483 2.084 2.084 0 0 0-.39-.03Z" opacity=".2"/><path d="M98.49 65.129c.105.353.591.143.503-.218-.024-.093-.052-.184-.08-.274-.322-1.08-.307-2.274-.254-3.444-.009-.29.055-.577.185-.836a6.158 6.158 0 0 0-.501 2.177c-.029.738-.003 1.476.075 2.21.012.13.036.259.072.385Z" opacity=".5"/><path d="M91.626 50.28c-.223-.039-.24.285-.018.333l.17.033c.68.116 1.329.448 1.955.794.16.073.3.185.407.326a3.728 3.728 0 0 0-1.057-.86 9.334 9.334 0 0 0-1.23-.553 1.384 1.384 0 0 0-.227-.073Z" opacity=".2"/><path d="M88.203 58.838c-.562.289-.087 1.084.491.821.151-.07.299-.147.438-.219 1.72-.893 3.717-1.221 5.68-1.473.483-.063.996-.116 1.442.073a9.761 9.761 0 0 0-3.76-.224c-1.242.17-2.47.433-3.67.79a3.274 3.274 0 0 0-.621.232Z"/><path d="M89.81 61.932c-.405.368.227.821.65.46.111-.096.218-.195.317-.289 1.232-1.156 2.86-1.98 4.48-2.738.399-.184 2.027-.369 2.474-.369-1.142.103-3.475.459-4.512.921a25.033 25.033 0 0 0-2.946 1.658c-.165.104-.32.224-.463.357Z" opacity=".5"/><path d="M92.692 66.87c-.117.539.654.552.798 0 .037-.14.068-.283.097-.419.356-1.657 1.227-3.254 2.13-4.8.22-.379 1.46-1.472 1.826-1.705-.882.737-2.598 2.352-3.182 3.328a25.054 25.054 0 0 0-1.473 3.032c-.082.181-.148.37-.196.563ZM98.497 47.913c-.276-.561-1.063-.099-.812.477.064.15.138.297.208.439.847 1.714 1.14 3.698 1.357 5.648.054.477.1.987-.096 1.427a9.76 9.76 0 0 0 .28-3.724 24.699 24.699 0 0 0-.718-3.65 3.278 3.278 0 0 0-.22-.617ZM94.107 48.87c.014.008.03.013.046.012a.081.081 0 0 0 .064-.057c.07-.15.03-.344.137-.47.107.13.193.275.256.431l.405-.125a.6.6 0 0 1-.078.462.627.627 0 0 1 .185.13.211.211 0 0 1 .047.213.984.984 0 0 1-.285.03 1.84 1.84 0 0 1-.03.53.103.103 0 0 1-.034.068.096.096 0 0 1-.098-.017.939.939 0 0 1-.333-.351l-.15.357a.162.162 0 0 1-.068.09.106.106 0 0 1-.125-.042.33.33 0 0 1-.044-.136l-.057-.343a.077.077 0 0 0-.019-.048.083.083 0 0 0-.058-.017h-.428c-.026-.075.05-.145.124-.184.073-.038.158-.057.195-.127.075-.145-.118-.346-.035-.47.083-.123.263 0 .383.063Z"/><path d="M101.908 50.772a.366.366 0 0 1 .514-.087.369.369 0 0 1 .086.514c-.07.103-.144.202-.215.298-.864 1.168-1.313 2.578-1.698 3.985-.096.345-.185.711-.08 1.052a6.556 6.556 0 0 1 .185-2.744c.252-.889.576-1.755.97-2.591.064-.15.143-.294.238-.427Z" opacity=".5"/><path d="M107.517 53.227c.582-.019.658.865.076.911-.151.013-.306.017-.451.02-1.787.048-3.476.697-5.098 1.393-.398.171-.816.368-1.048.736a7.66 7.66 0 0 1 2.718-1.926 20.17 20.17 0 0 1 3.207-1.037c.194-.054.394-.087.596-.097Z"/><path d="M107.366 55.4c.369.013.284.537-.086.54h-.286c-1.127-.047-2.279.264-3.399.607a1.719 1.719 0 0 0-.764.385 6.108 6.108 0 0 1 1.987-1.02c.708-.211 1.43-.37 2.162-.475.127-.025.257-.037.386-.037Z" opacity=".5"/><path d="M106.685 50.28c.223-.039.24.285.019.333l-.173.033c-.678.116-1.328.448-1.953.794-.16.073-.3.185-.407.326a3.72 3.72 0 0 1 1.056-.86 9.431 9.431 0 0 1 1.232-.553 1.34 1.34 0 0 1 .226-.073ZM100.921 65.8c-.05.218-.354.11-.314-.113 0-.06.024-.116.037-.171.155-.67.098-1.398.021-2.11a1.078 1.078 0 0 0-.146-.5c.208.408.339.85.387 1.306.046.449.06.9.042 1.352-.001.079-.01.158-.027.235Z" opacity=".2"/><path d="M106.543 64.34c.173.293-.252.273-.438-.02-.05-.077-.094-.154-.138-.228-.527-.897-1.33-1.785-2.138-2.64a2.958 2.958 0 0 0-.662-.574c.631.431 1.214.929 1.737 1.485.519.552.976 1.105 1.426 1.672.078.097.149.2.213.306Z" opacity=".5"/><path d="M91.14 64.34c-.173.293.252.273.44-.02.048-.077.094-.154.136-.228.527-.897 1.33-1.785 2.138-2.64a2.97 2.97 0 0 1 .663-.574c-.631.43-1.214.929-1.738 1.485a26.18 26.18 0 0 0-1.426 1.672c-.078.097-.15.2-.213.306ZM96.773 65.8c.05.218.354.11.315-.113a3.998 3.998 0 0 0-.037-.171c-.154-.67-.1-1.398-.02-2.11.005-.175.054-.348.144-.5-.209.408-.34.85-.387 1.306-.047.449-.06.9-.04 1.352 0 .079.01.158.025.235ZM104.912 52.484c.221-.038.237.284.016.334-.057.013-.116.022-.171.031-.68.116-1.328.448-1.954.796-.16.073-.3.185-.407.326.296-.35.655-.642 1.057-.862a9.314 9.314 0 0 1 1.23-.553 1.21 1.21 0 0 1 .229-.072ZM102.84 48.158c.184-.12.328.173.142.302l-.148.094c-.585.369-1.064.912-1.515 1.474a1.04 1.04 0 0 0-.255.456c.144-.435.367-.84.658-1.195a9.38 9.38 0 0 1 .932-.978c.056-.057.119-.108.186-.153Z" opacity=".2"/><path d="M110.109 58.838c.561.289.086 1.085-.492.821-.151-.07-.298-.147-.44-.219-1.718-.893-3.715-1.22-5.678-1.473-.482-.063-.996-.116-1.442.074a9.76 9.76 0 0 1 3.759-.225c1.242.169 2.47.433 3.672.79.214.057.422.134.621.232Z"/><path d="M108.501 61.932c.405.368-.227.821-.65.46a11.639 11.639 0 0 1-.319-.289c-1.232-1.156-2.858-1.98-4.48-2.738-.396-.184-2.035-.369-2.472-.369 1.142.103 3.473.459 4.51.921a24.915 24.915 0 0 1 2.947 1.658c.165.104.321.224.464.357Z" opacity=".5"/><path d="M103.738 67.482c.05.553-.718.463-.792-.09-.018-.145-.031-.289-.044-.427-.145-1.683-.81-3.383-1.512-5.03-.171-.403-1.265-1.637-1.597-1.92.783.838 2.282 2.659 2.741 3.701a25.114 25.114 0 0 1 1.09 3.192c.056.187.094.38.114.574ZM104.199 48.87a.088.088 0 0 1-.048.012.09.09 0 0 1-.04-.02.08.08 0 0 1-.024-.037c-.069-.15-.03-.344-.135-.47-.108.13-.195.275-.258.431l-.403-.125a.602.602 0 0 0 .077.462.633.633 0 0 0-.184.13.205.205 0 0 0-.054.1.21.21 0 0 0 .004.113c.094.023.19.033.286.03-.015.177-.004.355.031.53.003.026.015.05.035.068a.095.095 0 0 0 .098-.017.935.935 0 0 0 .333-.351l.149.357a.167.167 0 0 0 .067.09.11.11 0 0 0 .127-.042.344.344 0 0 0 .044-.136l.057-.343a.083.083 0 0 1 .018-.048.083.083 0 0 1 .059-.017h.428c.025-.075-.052-.145-.124-.184-.072-.038-.16-.057-.197-.127-.073-.145.12-.346.037-.47-.083-.123-.258 0-.383.063Z"/><path d="M105.418 65.504a.114.114 0 0 1-.048.015c-.031 0-.052-.031-.064-.059-.069-.149-.03-.344-.135-.47a1.605 1.605 0 0 0-.258.432l-.403-.126a.6.6 0 0 0 .075.463.615.615 0 0 0-.184.13.21.21 0 0 0-.049.214c.093.022.189.031.285.028-.015.177-.005.356.029.53.003.026.015.05.035.068.03.019.069 0 .1-.016a.931.931 0 0 0 .331-.352l.151.357c.01.037.034.07.067.09a.107.107 0 0 0 .125-.042.33.33 0 0 0 .046-.136l.055-.343a.106.106 0 0 1 .019-.048.083.083 0 0 1 .06-.016h.428c.024-.076-.052-.146-.124-.184-.072-.04-.16-.058-.197-.127-.073-.146.118-.345.037-.47-.081-.125-.256 0-.381.063Z" opacity=".2"/><path d="M108.84 54.354a.121.121 0 0 1-.048.014c-.031 0-.052-.03-.065-.059-.07-.149-.029-.344-.136-.47-.107.13-.193.276-.256.432l-.405-.125a.598.598 0 0 0 .077.462.601.601 0 0 0-.184.13.213.213 0 0 0-.05.214c.094.022.19.032.286.028-.015.177-.005.356.029.53.003.027.015.051.035.068a.095.095 0 0 0 .098-.016.935.935 0 0 0 .333-.352l.151.357c.01.038.034.07.067.09a.107.107 0 0 0 .125-.042.3.3 0 0 0 .044-.136l.057-.343a.077.077 0 0 1 .019-.047.08.08 0 0 1 .058-.017h.43c.023-.076-.052-.146-.126-.184-.073-.039-.158-.057-.195-.127-.075-.146.118-.347.037-.47-.081-.123-.256 0-.381.063ZM95.155 67.173a.14.14 0 0 1-.067.02c-.042 0-.071-.044-.09-.082-.096-.209-.04-.477-.184-.654-.15.18-.27.383-.357.6l-.564-.173a.837.837 0 0 0 .107.645.847.847 0 0 0-.265.184.293.293 0 0 0-.07.296c.13.033.264.047.398.04a2.68 2.68 0 0 0 .042.737.14.14 0 0 0 .05.096c.04.026.094 0 .136-.024.194-.12.354-.29.464-.49l.208.5a.219.219 0 0 0 .094.125.149.149 0 0 0 .184-.061.421.421 0 0 0 .063-.184l.077-.475a.092.092 0 0 1 .11-.093h.596c.034-.104-.072-.204-.174-.248-.1-.044-.22-.077-.272-.184-.103-.201.164-.48.05-.654-.146-.208-.361-.007-.536.08ZM89.46 54.687a.138.138 0 0 1-.066.018c-.042 0-.072-.042-.09-.08-.096-.209-.04-.48-.184-.654-.15.18-.27.382-.358.6l-.563-.175a.836.836 0 0 0 .107.644.923.923 0 0 0-.266.185.293.293 0 0 0-.068.298c.13.032.263.045.396.04-.02.247-.005.495.043.737a.137.137 0 0 0 .05.094c.04.028.093 0 .136-.022.194-.121.354-.29.464-.492l.208.501a.24.24 0 0 0 .094.125.153.153 0 0 0 .175-.06.43.43 0 0 0 .062-.185l.078-.477a.12.12 0 0 1 .027-.066.109.109 0 0 1 .083-.024h.595c.035-.107-.07-.204-.173-.248-.103-.045-.221-.08-.273-.185-.103-.2.164-.48.052-.653-.138-.201-.354-.008-.529.079Z"/><path d="M106.738 62.418a.06.06 0 0 1-.035.011.06.06 0 0 1-.029-.015.064.064 0 0 1-.019-.027c-.049-.113-.02-.255-.099-.348a1.223 1.223 0 0 0-.184.318l-.3-.092a.44.44 0 0 0 .057.343.435.435 0 0 0-.14.095.153.153 0 0 0-.037.159.735.735 0 0 0 .21.02c-.011.132-.003.265.024.394.002.02.011.037.026.05a.068.068 0 0 0 .071-.013.683.683 0 0 0 .247-.262l.111.267c.008.028.026.051.049.067a.082.082 0 0 0 .053 0 .078.078 0 0 0 .041-.033.243.243 0 0 0 .03-.105l.04-.255a.05.05 0 0 1 .005-.02.058.058 0 0 1 .014-.017.046.046 0 0 1 .019-.01.047.047 0 0 1 .021 0h.315c.019-.056-.037-.107-.09-.131-.053-.024-.12-.042-.146-.094-.055-.107.087-.256.026-.348-.061-.092-.186.002-.28.046ZM99.004 66.884a.08.08 0 0 1-.035.011.065.065 0 0 1-.048-.044c-.05-.11-.02-.252-.1-.346-.077.096-.14.203-.184.318l-.3-.092a.449.449 0 0 0 .057.343.44.44 0 0 0-.14.096.155.155 0 0 0-.037.158c.069.017.14.023.21.02-.011.131-.003.264.024.392.001.02.01.038.024.052.022.013.052 0 .074-.013a.686.686 0 0 0 .246-.261l.11.267c.01.027.027.05.05.066a.083.083 0 0 0 .094-.033.227.227 0 0 0 .032-.1l.042-.254a.05.05 0 0 1 .06-.048h.314c.018-.055-.037-.108-.09-.13-.054-.023-.12-.043-.146-.094-.055-.107.087-.256.026-.348-.06-.093-.192-.004-.284.04Z" opacity=".2"/><path d="M91.529 51.254a.087.087 0 0 1-.035.011c-.024 0-.04-.024-.048-.044-.052-.11-.022-.254-.102-.346-.078.096-.14.203-.184.318l-.313-.1a.44.44 0 0 0 .055.342.5.5 0 0 0-.14.095.157.157 0 0 0-.036.159c.069.016.14.024.211.022a1.399 1.399 0 0 0 .03.42c.005.008.01.016.018.022.022.015.05 0 .072-.011a.7.7 0 0 0 .247-.262l.11.265a.114.114 0 0 0 .05.067.077.077 0 0 0 .094-.032.244.244 0 0 0 .033-.1l.04-.253a.067.067 0 0 1 .015-.037.06.06 0 0 1 .045-.011h.316c.017-.057-.038-.109-.092-.133-.053-.023-.118-.04-.145-.093-.055-.107.086-.255.027-.347-.058-.092-.186.002-.268.048ZM95.503 60.063a.058.058 0 0 1-.035 0c-.022 0-.039-.023-.048-.043-.052-.11-.022-.254-.1-.348-.077.096-.14.205-.183.32l-.299-.093a.44.44 0 0 0 .057.342.47.47 0 0 0-.142.096.159.159 0 0 0-.036.158c.069.017.14.024.211.022a1.4 1.4 0 0 0 .023.393c.001.019.01.037.025.05.022.014.052 0 .074-.012a.696.696 0 0 0 .245-.261l.112.265a.114.114 0 0 0 .05.066.08.08 0 0 0 .092-.031c.02-.03.03-.065.033-.101l.043-.253c0-.013.004-.026.012-.036a.074.074 0 0 1 .045-.013h.316c.019-.057-.038-.109-.092-.133-.053-.024-.118-.04-.145-.094-.054-.107.088-.256.027-.348-.06-.092-.193.008-.285.053ZM92.611 56.628a.079.079 0 0 1-.035.011.065.065 0 0 1-.048-.044c-.051-.11-.022-.254-.099-.346-.078.095-.14.203-.184.318l-.299-.092a.442.442 0 0 0 .058.343.47.47 0 0 0-.142.095.158.158 0 0 0-.037.159c.07.017.14.023.212.02a1.4 1.4 0 0 0 .03.42c.004.01.01.017.018.024.022.013.051 0 .073-.013a.683.683 0 0 0 .245-.262l.113.267c.008.028.025.051.05.067a.08.08 0 0 0 .091-.033.235.235 0 0 0 .034-.102l.042-.252c0-.013.005-.025.013-.035a.063.063 0 0 1 .044-.013h.317c.018-.055-.039-.108-.092-.13-.054-.023-.118-.043-.146-.095-.055-.106.089-.256.028-.348-.061-.092-.194-.005-.286.04ZM105.031 57.437a.086.086 0 0 1-.035.01.06.06 0 0 1-.03-.015.058.058 0 0 1-.018-.029c-.051-.11-.022-.252-.101-.346-.078.096-.14.204-.184.319l-.298-.092a.44.44 0 0 0 .055.342.46.46 0 0 0-.14.096.152.152 0 0 0-.041.074.152.152 0 0 0 .004.084.738.738 0 0 0 .212.02 1.396 1.396 0 0 0 .029.421.078.078 0 0 0 .019.023c.022.013.049 0 .071-.013a.683.683 0 0 0 .247-.261l.111.267c.008.027.026.05.049.066a.082.082 0 0 0 .053 0 .078.078 0 0 0 .041-.033.243.243 0 0 0 .034-.101l.04-.252a.05.05 0 0 1 .018-.038.056.056 0 0 1 .02-.01.048.048 0 0 1 .021 0h.317c.016-.056-.039-.109-.092-.131-.054-.022-.118-.042-.146-.094-.055-.107.087-.256.028-.348-.059-.092-.192-.005-.284.04Z" opacity=".5"/><path d="M99.004 56.76a.061.061 0 0 1-.035.012.065.065 0 0 1-.048-.043c-.05-.11-.02-.254-.1-.348-.077.096-.14.204-.184.319l-.3-.092a.448.448 0 0 0 .057.342.44.44 0 0 0-.14.096.155.155 0 0 0-.037.158c.069.017.14.024.21.02-.011.132-.003.265.024.395.002.019.01.036.024.05a.074.074 0 0 0 .074-.013.686.686 0 0 0 .246-.262l.11.267c.01.027.027.05.05.066a.083.083 0 0 0 .094-.033.227.227 0 0 0 .032-.1l.042-.253a.05.05 0 0 1 .06-.048h.314c.018-.056-.037-.107-.09-.131-.054-.024-.12-.042-.146-.094-.055-.107.087-.256.026-.348-.06-.092-.192-.004-.284.04Z" opacity=".2"/><path d="M97.114 57.584a.094.094 0 0 1-.037.01c-.022 0-.037-.023-.047-.043-.05-.11-.02-.255-.1-.347-.078.096-.14.204-.184.319l-.3-.092a.449.449 0 0 0 .057.342.43.43 0 0 0-.14.096.155.155 0 0 0-.037.159c.069.016.14.023.21.02a1.404 1.404 0 0 0 .031.42c.005.008.011.016.019.022.022.014.05 0 .072-.011a.698.698 0 0 0 .246-.262l.11.265a.12.12 0 0 0 .05.069.081.081 0 0 0 .094-.034.275.275 0 0 0 .034-.1l.04-.253a.05.05 0 0 1 .059-.048h.317c.016-.055-.039-.109-.092-.133-.054-.024-.118-.04-.146-.092-.055-.108.087-.256.026-.348-.06-.092-.19-.005-.282.04Z" opacity=".3"/><path d="M95.35 52.606a.058.058 0 0 1-.035.009c-.022 0-.039-.022-.048-.042-.05-.11-.02-.255-.1-.348-.077.096-.139.203-.184.318l-.3-.092a.448.448 0 0 0 .057.343.438.438 0 0 0-.14.095.155.155 0 0 0-.037.159c.069.016.14.024.21.022-.011.131-.003.263.024.392.002.02.01.037.024.05.022.015.052 0 .074-.013a.68.68 0 0 0 .246-.26l.111.266c.008.027.026.05.05.066a.085.085 0 0 0 .094-.032.241.241 0 0 0 .031-.1l.042-.253a.066.066 0 0 1 .015-.037.07.07 0 0 1 .044-.013h.315c.019-.057-.037-.108-.09-.132-.053-.024-.12-.043-.145-.094-.056-.107.086-.256.025-.348-.06-.093-.191.003-.283.044Z" opacity=".2"/><path d="M98.823 59.103a.053.053 0 0 1-.083-.033c-.051-.11-.022-.254-.101-.348-.077.096-.14.204-.184.319l-.299-.093a.445.445 0 0 0 .056.343.483.483 0 0 0-.14.096.155.155 0 0 0-.037.158c.07.017.14.024.212.02-.011.132-.004.265.022.395.001.019.01.037.026.05a.07.07 0 0 0 .071-.014.696.696 0 0 0 .247-.26l.11.266c.009.027.027.05.05.066a.081.081 0 0 0 .094-.033.228.228 0 0 0 .028-.103l.04-.254a.076.076 0 0 1 .015-.035.061.061 0 0 1 .044-.013h.317c.019-.055-.039-.107-.092-.13-.053-.025-.118-.043-.145-.095-.056-.107.088-.256.027-.348-.06-.092-.186 0-.278.046Z" opacity=".3"/></g><g fill="#FB1" opacity=".8"><path d="M145.234 32.123c-.447-.607-1.372.052-.954.68.109.166.229.324.343.477 1.375 1.858 2.088 4.114 2.701 6.342.151.553.297 1.133.126 1.673.246-1.448.086-2.947-.286-4.367s-.939-2.779-1.545-4.129a3.68 3.68 0 0 0-.385-.676Z" opacity=".5"/><path d="M136.306 36.026c-.921-.03-1.046 1.38-.122 1.453.243.018.486.024.72.031 2.842.078 5.525 1.105 8.113 2.21.633.273 1.289.578 1.67 1.16-1.164-1.35-2.698-2.339-4.328-3.066-1.63-.727-3.368-1.204-5.105-1.657a4.33 4.33 0 0 0-.948-.131Z"/><path d="M136.562 39.49c-.586.02-.453.854.136.858.155 0 .309 0 .457-.011 1.792-.074 3.628.422 5.409.965.438.134.898.285 1.217.613a9.753 9.753 0 0 0-3.162-1.622 24.281 24.281 0 0 0-3.44-.757 3.022 3.022 0 0 0-.617-.046Z" opacity=".2"/><path d="M148.558 54.97c.166.564.939.229.797-.344-.037-.15-.081-.296-.123-.438-.516-1.719-.492-3.62-.407-5.48.022-.458.053-.942.291-1.33a9.756 9.756 0 0 0-.787 3.464 24.242 24.242 0 0 0 .12 3.523c.016.205.053.408.109.605Z" opacity=".5"/><path d="M137.63 31.337c-.352-.06-.379.453-.028.53.093.02.185.037.275.052 1.079.184 2.112.713 3.107 1.263.256.118.479.297.65.521a5.98 5.98 0 0 0-1.683-1.372 15.087 15.087 0 0 0-1.958-.889 2.066 2.066 0 0 0-.363-.105Z" opacity=".2"/><path d="M132.182 44.96c-.895.46-.138 1.725.781 1.305.241-.11.475-.234.7-.35 2.737-1.42 5.913-1.94 9.041-2.344.766-.098 1.583-.184 2.294.12-1.935-.553-3.994-.592-5.985-.369-1.991.223-3.926.737-5.844 1.258-.341.093-.671.22-.987.38Z"/><path d="M134.74 49.882c-.644.6.369 1.31 1.035.737.185-.151.345-.312.507-.463 1.959-1.841 4.55-3.149 7.131-4.357.633-.296 3.239-.598 3.935-.582-1.818.162-5.525.737-7.182 1.474a39.65 39.65 0 0 0-4.682 2.627 4.98 4.98 0 0 0-.744.564Z" opacity=".5"/><path d="M139.33 57.742c-.184.858 1.04.871 1.269.013.059-.225.107-.451.153-.667.567-2.628 1.954-5.18 3.39-7.639.354-.604 2.326-2.335 2.908-2.716-1.403 1.168-4.135 3.744-5.066 5.3a39.827 39.827 0 0 0-2.36 4.823 4.926 4.926 0 0 0-.294.886ZM148.567 27.569c-.438-.893-1.691-.158-1.289.759.105.24.221.473.333.698 1.348 2.729 1.812 5.893 2.161 8.989.084.762.156 1.572-.153 2.272.565-1.91.641-3.95.445-5.926-.195-1.976-.661-3.895-1.147-5.809a5.124 5.124 0 0 0-.35-.983ZM141.588 29.09a.158.158 0 0 0 .075.022c.048 0 .083-.05.103-.094.109-.237.046-.552.216-.736.171.205.309.436.409.685l.642-.2a.957.957 0 0 1-.121.738c.112.05.214.12.302.206a.338.338 0 0 1 .079.34 1.63 1.63 0 0 1-.453.045 2.96 2.96 0 0 1-.05.845.138.138 0 0 1-.017.06.144.144 0 0 1-.038.047c-.046.031-.109 0-.157-.026a1.493 1.493 0 0 1-.528-.552l-.245.548a.255.255 0 0 1-.107.142.17.17 0 0 1-.201-.068.523.523 0 0 1-.07-.217l-.09-.553a.128.128 0 0 0-.029-.077.14.14 0 0 0-.094-.028h-.682c-.038-.121.081-.234.197-.283.116-.05.255-.09.313-.203.118-.23-.184-.552-.058-.748.158-.22.405.01.604.107Z"/><path d="M153.998 32.123c.448-.607 1.371.052.954.68-.11.166-.228.324-.342.477-1.376 1.858-2.089 4.114-2.704 6.342-.151.553-.296 1.133-.123 1.673-.247-1.448-.087-2.947.285-4.367s.947-2.779 1.544-4.123c.105-.24.235-.468.386-.682Z" opacity=".5"/><path d="M162.924 36.026c.921-.03 1.046 1.38.122 1.453-.241.018-.486.024-.718.031-2.844.078-5.525 1.105-8.113 2.21-.633.273-1.3.578-1.67 1.16 1.164-1.35 2.696-2.339 4.328-3.066 1.631-.727 3.366-1.204 5.105-1.657a4.33 4.33 0 0 1 .946-.131Z"/><path d="M162.668 39.49c.588.02.455.854-.134.858-.155 0-.309 0-.457-.011-1.793-.074-3.628.422-5.409.965-.438.134-.9.285-1.217.613a9.753 9.753 0 0 1 3.162-1.622 24.3 24.3 0 0 1 3.45-.76c.2-.035.403-.05.605-.043Z" opacity=".5"/><path d="M161.602 31.337c.352-.06.38.453.028.53-.092.02-.184.037-.274.052-1.08.184-2.115.713-3.109 1.263a1.697 1.697 0 0 0-.648.521 5.945 5.945 0 0 1 1.681-1.372c.631-.342 1.286-.64 1.96-.889.117-.046.238-.081.362-.105ZM152.414 56.037c-.079.35-.563.184-.499-.184.017-.092.039-.184.059-.273.245-1.066.157-2.225.032-3.353a1.705 1.705 0 0 0-.231-.8c.332.65.541 1.354.617 2.08.074.714.096 1.433.065 2.15a1.794 1.794 0 0 1-.043.38Z" opacity=".2"/><path d="M161.376 53.715c.276.467-.402.436-.7-.032a7.029 7.029 0 0 1-.217-.368c-.84-1.427-2.116-2.84-3.404-4.205A4.721 4.721 0 0 0 156 48.2a16.73 16.73 0 0 1 2.762 2.363c.825.864 1.555 1.765 2.269 2.663.126.155.241.318.345.489Z" opacity=".5"/><path d="M136.858 53.715c-.276.467.402.436.698-.032a5.9 5.9 0 0 0 .219-.368c.84-1.427 2.116-2.84 3.404-4.205.304-.354.66-.66 1.055-.91a16.682 16.682 0 0 0-2.762 2.363c-.826.864-1.557 1.765-2.269 2.663a4.391 4.391 0 0 0-.345.489ZM145.825 56.037c.079.35.564.184.499-.184-.016-.092-.038-.184-.059-.273-.245-1.066-.156-2.225-.031-3.353.009-.282.088-.557.23-.8a5.946 5.946 0 0 0-.608 2.085 14.855 14.855 0 0 0-.064 2.151c-.002.125.009.25.033.374ZM158.777 34.845c.352-.062.379.452.028.53-.092.021-.184.036-.275.05-1.079.185-2.112.715-3.108 1.266a1.698 1.698 0 0 0-.649.519 5.93 5.93 0 0 1 1.684-1.37 14.581 14.581 0 0 1 1.957-.89c.117-.047.239-.083.363-.105ZM155.483 27.957c.303-.184.521.279.222.483-.077.053-.158.101-.234.15-.933.574-1.694 1.45-2.41 2.334a1.656 1.656 0 0 0-.407.724 5.95 5.95 0 0 1 1.048-1.9c.456-.554.952-1.075 1.484-1.557a1.9 1.9 0 0 1 .297-.233Z" opacity=".2"/><path d="M167.05 44.96c.895.46.138 1.725-.781 1.305-.241-.11-.477-.234-.7-.35-2.737-1.42-5.915-1.94-9.04-2.344-.767-.098-1.584-.184-2.295.12 1.934-.553 3.994-.592 5.985-.369 1.991.223 3.926.737 5.844 1.258.341.093.671.22.987.38Z"/><path d="M164.492 49.882c.642.6-.369 1.31-1.037.737a15.426 15.426 0 0 1-.505-.463c-1.961-1.841-4.552-3.149-7.131-4.357-.633-.296-3.241-.598-3.935-.582 1.817.162 5.525.737 7.182 1.474a39.504 39.504 0 0 1 4.683 2.627c.265.165.513.353.743.564Z" opacity=".5"/><path d="M156.906 58.722c.079.875-1.143.736-1.261-.146-.032-.23-.05-.46-.068-.681-.234-2.678-1.29-5.383-2.407-8.004-.275-.642-2.015-2.606-2.545-3.057 1.246 1.334 3.633 4.236 4.362 5.893a39.57 39.57 0 0 1 1.735 5.08c.09.298.151.605.184.915ZM157.643 29.09a.162.162 0 0 1-.076.022c-.049 0-.083-.05-.103-.094-.11-.237-.046-.552-.215-.736a2.55 2.55 0 0 0-.409.685l-.643-.2a.958.958 0 0 0 .122.738c-.113.05-.216.12-.304.206a.339.339 0 0 0-.078.34c.149.036.301.051.454.045-.024.282-.008.567.047.845a.16.16 0 0 0 .056.107c.048.031.11 0 .158-.026.221-.135.403-.326.529-.552l.239.57c.017.06.055.11.107.142a.166.166 0 0 0 .111.001.172.172 0 0 0 .088-.069.508.508 0 0 0 .072-.217l.088-.553a.138.138 0 0 1 .031-.077.14.14 0 0 1 .094-.028h.682c.038-.121-.083-.233-.199-.283-.116-.05-.253-.09-.312-.203-.117-.23.185-.552.057-.747-.149-.244-.395-.013-.596.084Z"/><path d="M159.584 55.569a.163.163 0 0 1-.076.022c-.049 0-.082-.048-.103-.092-.108-.24-.046-.553-.215-.748a2.585 2.585 0 0 0-.409.685l-.643-.199a.957.957 0 0 0 .122.737 1 1 0 0 0-.302.206.33.33 0 0 0-.079.341c.148.036.3.052.453.046-.024.282-.008.566.049.843.002.021.008.042.017.06.01.02.023.036.039.05.046.029.108 0 .156-.028.221-.136.403-.326.529-.553l.239.571c.018.059.056.11.107.144.037.01.076.009.111-.004a.185.185 0 0 0 .09-.066.523.523 0 0 0 .07-.218l.09-.543a.102.102 0 0 1 .035-.083.098.098 0 0 1 .088-.02c.227 0 .455-.01.682 0 .038-.122-.081-.232-.197-.284-.116-.051-.254-.088-.313-.202-.118-.229.184-.553.059-.746-.146-.247-.4-.017-.599.08Z" opacity=".2"/><path d="M165.033 37.82a.145.145 0 0 1-.077.022c-.048 0-.081-.048-.101-.093-.111-.237-.048-.552-.216-.747a2.59 2.59 0 0 0-.409.687l-.642-.201a.94.94 0 0 0 .121.736c-.113.05-.216.12-.304.207a.348.348 0 0 0-.079.34c.149.037.302.052.455.047-.024.282-.008.566.048.843.004.042.023.08.055.109.048.03.109 0 .157-.026.221-.136.404-.326.53-.553l.238.571c.017.06.055.11.106.144a.174.174 0 0 0 .201-.07.482.482 0 0 0 .072-.217l.088-.553a.148.148 0 0 1 .03-.075.134.134 0 0 1 .096-.028h.679c.041-.12-.081-.232-.197-.284-.116-.051-.254-.088-.311-.2-.118-.23.184-.553.057-.748-.151-.24-.4-.01-.597.088ZM143.249 58.224a.218.218 0 0 1-.105.032c-.068 0-.116-.068-.144-.13-.153-.33-.064-.761-.3-1.04-.238.287-.43.609-.569.954l-.897-.276a1.333 1.333 0 0 0 .169 1.026 1.36 1.36 0 0 0-.421.287.474.474 0 0 0-.111.474c.207.05.421.072.634.064-.034.393-.011.79.068 1.177a.225.225 0 0 0 .075.149.213.213 0 0 0 .22-.037c.31-.19.564-.46.736-.78l.333.795a.35.35 0 0 0 .15.199.238.238 0 0 0 .28-.096.718.718 0 0 0 .097-.302l.125-.757a.187.187 0 0 1 .041-.109.194.194 0 0 1 .133-.036c.316 0 .633-.013.948 0 .055-.17-.114-.325-.274-.396-.161-.072-.354-.124-.435-.28-.166-.32.261-.766.079-1.043-.212-.331-.556-.009-.832.126ZM134.186 38.35a.222.222 0 0 1-.107.031c-.066 0-.114-.068-.143-.13-.151-.332-.065-.761-.299-1.041-.239.287-.431.61-.571.956l-.895-.278a1.338 1.338 0 0 0 .17 1.027 1.338 1.338 0 0 0-.422.288.463.463 0 0 0-.111.473c.208.05.421.071.634.063-.033.393-.011.79.066 1.176a.22.22 0 0 0 .023.084.22.22 0 0 0 .055.067c.066.043.151 0 .219-.037.309-.191.563-.46.736-.78l.334.795a.367.367 0 0 0 .147.2.24.24 0 0 0 .28-.097.719.719 0 0 0 .099-.302l.124-.758a.198.198 0 0 1 .042-.107.186.186 0 0 1 .133-.037c.315 0 .632-.013.948-.011.054-.168-.114-.324-.276-.394-.162-.07-.354-.125-.435-.282-.164-.32.262-.764.081-1.04-.211-.323-.556-.004-.832.134Z"/><path d="M161.694 50.657a.099.099 0 0 1-.055.017c-.037 0-.061-.037-.077-.068-.081-.184-.033-.405-.159-.553a1.855 1.855 0 0 0-.302.507l-.477-.147a.705.705 0 0 0 .091.552.753.753 0 0 0-.225.153.255.255 0 0 0-.057.252c.11.026.222.037.335.033a2.145 2.145 0 0 0 .049.67.13.13 0 0 0 .028.036c.035.022.081 0 .116-.02.165-.102.299-.245.391-.415l.184.422a.195.195 0 0 0 .079.107.13.13 0 0 0 .084 0 .125.125 0 0 0 .065-.052.366.366 0 0 0 .052-.16l.066-.404c0-.011.002-.023.006-.033a.076.076 0 0 1 .052-.042.072.072 0 0 1 .034 0h.505c.029-.09-.061-.173-.146-.21-.084-.037-.184-.066-.232-.15-.086-.17.14-.406.043-.552-.098-.145-.31-.014-.45.057ZM149.376 57.766a.109.109 0 0 1-.057.017c-.035 0-.061-.037-.076-.07-.081-.175-.035-.404-.158-.553-.127.153-.23.324-.304.508l-.475-.147a.695.695 0 0 0 .09.553.712.712 0 0 0-.224.152.238.238 0 0 0-.065.118.237.237 0 0 0 .006.135c.11.026.223.037.337.033a2.18 2.18 0 0 0 .035.624.11.11 0 0 0 .04.08c.035.023.081 0 .116-.019a1.1 1.1 0 0 0 .392-.414l.185.421a.196.196 0 0 0 .079.107.128.128 0 0 0 .149-.051.379.379 0 0 0 .052-.16l.066-.404a.1.1 0 0 1 .022-.057.115.115 0 0 1 .07-.02h.504c.028-.09-.06-.173-.147-.21-.086-.037-.184-.066-.23-.15-.088-.17.138-.406.042-.552-.095-.145-.302-.015-.449.06Z" opacity=".2"/><path d="M137.461 32.886a.11.11 0 0 1-.056.016.105.105 0 0 1-.048-.023.11.11 0 0 1-.029-.045c-.081-.184-.035-.405-.158-.552-.128.152-.23.323-.304.506l-.475-.147a.696.696 0 0 0 .09.552.723.723 0 0 0-.225.151.245.245 0 0 0-.064.118.246.246 0 0 0 .005.135c.11.027.224.038.337.033-.018.21-.006.42.035.626.002.015.006.03.014.044a.11.11 0 0 0 .029.035c.035.022.079 0 .116-.018.164-.102.299-.246.39-.416l.184.423c.013.044.041.081.079.105a.131.131 0 0 0 .15-.052.364.364 0 0 0 .051-.16l.067-.401a.1.1 0 0 1 .022-.057.095.095 0 0 1 .07-.02h.504c.028-.089-.061-.172-.147-.21-.087-.04-.184-.067-.23-.15-.089-.17.14-.407.042-.552-.098-.146-.302-.013-.449.059ZM143.801 46.906a.095.095 0 0 1-.055.017c-.037 0-.061-.035-.075-.069-.081-.184-.035-.405-.161-.552a1.956 1.956 0 0 0-.302.506l-.477-.147a.715.715 0 0 0 .091.553.735.735 0 0 0-.223.153.245.245 0 0 0-.059.252c.109.026.222.038.335.033-.017.21-.005.42.037.626a.111.111 0 0 0 .04.08c.035.021.081 0 .116-.021.165-.101.3-.244.393-.414l.184.421c.012.045.04.083.079.107.027.01.056.01.083 0a.127.127 0 0 0 .064-.051.367.367 0 0 0 .054-.16l.066-.402c0-.023.009-.044.024-.06a.09.09 0 0 1 .07-.02l.503-.001c.029-.088-.059-.173-.146-.21-.086-.037-.184-.066-.23-.15-.088-.169.138-.406.042-.552-.095-.145-.305-.01-.453.061ZM139.199 41.442a.138.138 0 0 1-.055.016.101.101 0 0 1-.076-.07c-.081-.174-.035-.403-.16-.552a1.874 1.874 0 0 0-.302.508l-.477-.147a.722.722 0 0 0 .09.552.723.723 0 0 0-.225.151.255.255 0 0 0-.057.253c.11.027.223.038.335.033-.017.21-.004.42.037.626.001.015.006.03.013.044a.098.098 0 0 0 .028.035c.035.022.081 0 .116-.018.164-.103.3-.246.392-.416l.184.423c.012.043.04.08.078.105.027.01.056.01.083 0a.13.13 0 0 0 .066-.051.365.365 0 0 0 .053-.16l.065-.402a.1.1 0 0 1 .022-.057.097.097 0 0 1 .072-.02h.502c.03-.089-.06-.172-.145-.21-.085-.04-.184-.067-.232-.15-.087-.169.14-.407.044-.552-.096-.146-.304-.015-.451.059ZM158.967 42.727a.097.097 0 0 1-.055.017c-.037 0-.061-.035-.076-.068-.081-.184-.035-.405-.16-.553a1.862 1.862 0 0 0-.302.507l-.477-.148a.704.704 0 0 0 .09.553.78.78 0 0 0-.225.153.255.255 0 0 0-.057.252c.11.027.223.038.336.033-.018.21-.005.42.036.626.001.016.006.03.013.044a.11.11 0 0 0 .028.035c.035.023.081 0 .116-.02a1.1 1.1 0 0 0 .392-.414l.184.422a.184.184 0 0 0 .08.107.126.126 0 0 0 .147-.052.366.366 0 0 0 .053-.16l.067-.402a.07.07 0 0 1 .026-.063.07.07 0 0 1 .031-.015.076.076 0 0 1 .035 0h.502c.03-.088-.06-.172-.145-.21-.085-.036-.184-.065-.232-.148-.087-.17.14-.407.044-.553-.096-.145-.302-.014-.451.057Z" opacity=".5"/><path d="M149.376 41.652a.109.109 0 0 1-.057.017c-.035 0-.061-.035-.076-.069-.081-.184-.035-.405-.158-.552-.127.152-.23.323-.304.506l-.475-.147a.696.696 0 0 0 .09.553.721.721 0 0 0-.225.15.245.245 0 0 0-.064.118.246.246 0 0 0 .005.135c.11.027.224.038.337.033-.017.21-.006.42.035.626.004.03.018.059.041.08.035.021.081 0 .116-.02.165-.101.3-.245.392-.415l.184.423c.013.044.041.081.08.105a.128.128 0 0 0 .149-.051.364.364 0 0 0 .051-.16l.067-.402a.1.1 0 0 1 .022-.057.095.095 0 0 1 .07-.02h.504c.028-.089-.061-.172-.147-.21-.087-.039-.184-.067-.23-.15-.089-.169.138-.407.042-.552-.096-.146-.302-.013-.449.059Z" opacity=".2"/><path d="M146.365 42.963a.138.138 0 0 1-.055.017.101.101 0 0 1-.076-.07c-.081-.184-.035-.404-.16-.553a1.867 1.867 0 0 0-.302.508l-.477-.149a.722.722 0 0 0 .09.553.723.723 0 0 0-.225.15.255.255 0 0 0-.057.253c.11.028.223.039.335.033-.017.21-.004.42.037.626.001.016.006.03.013.044a.098.098 0 0 0 .028.036c.035.022.081 0 .116-.019.164-.102.3-.246.392-.416l.184.424a.187.187 0 0 0 .079.105.128.128 0 0 0 .148-.052.365.365 0 0 0 .053-.16l.066-.402a.1.1 0 0 1 .021-.057.097.097 0 0 1 .072-.02h.502c.03-.089-.06-.171-.145-.21-.085-.039-.184-.066-.232-.15-.087-.169.14-.406.044-.552-.096-.145-.304-.013-.451.061Z" opacity=".3"/><path d="M143.56 35.037a.109.109 0 0 1-.057.016c-.035 0-.061-.035-.076-.068-.081-.184-.035-.405-.158-.552-.127.151-.23.322-.304.506l-.475-.147a.694.694 0 0 0 .09.553.76.76 0 0 0-.224.152.245.245 0 0 0-.059.252c.11.027.223.038.337.033-.018.21-.006.42.035.627.003.03.017.058.04.079.035.022.081 0 .116-.02.166-.101.301-.244.393-.415l.184.422a.196.196 0 0 0 .079.107.128.128 0 0 0 .149-.052.379.379 0 0 0 .052-.16l.066-.401a.1.1 0 0 1 .022-.058.096.096 0 0 1 .07-.02h.505c.027-.09-.061-.173-.148-.21-.086-.037-.184-.066-.23-.149-.088-.171.138-.407.042-.552-.095-.146-.302-.015-.449.057Z" opacity=".2"/><path d="M149.087 45.383a.165.165 0 0 1-.057.017c-.035 0-.061-.037-.076-.07-.081-.175-.035-.404-.158-.553-.128.153-.23.324-.304.508l-.475-.147a.705.705 0 0 0 .09.553.723.723 0 0 0-.225.15.245.245 0 0 0-.064.118.246.246 0 0 0 .005.135c.11.027.224.038.337.033-.018.21-.006.42.035.626.003.03.018.059.041.08.035.021.081 0 .118-.02.164-.102.298-.245.39-.415l.184.423c.013.044.041.081.079.105a.131.131 0 0 0 .15-.051.364.364 0 0 0 .051-.16l.066-.402c.002-.02.01-.04.023-.057a.093.093 0 0 1 .07-.02h.504c.028-.089-.061-.172-.147-.21-.087-.039-.184-.067-.23-.15-.089-.169.138-.407.042-.552-.096-.145-.302-.018-.449.059Z" opacity=".3"/></g><path fill="#3F3D56" d="M156.383 147.558c.403-.702.611-1.5.602-2.309 0-2.087-1.289-3.778-2.886-3.778-1.596 0-2.885 1.691-2.885 3.778a4.539 4.539 0 0 0 .602 2.309 4.729 4.729 0 0 0 0 4.619 4.726 4.726 0 0 0 0 4.619 4.723 4.723 0 0 0 0 4.618 4.542 4.542 0 0 0-.602 2.31c0 2.086 1.289 3.779 2.885 3.779 1.597 0 2.886-1.693 2.886-3.779a4.552 4.552 0 0 0-.602-2.31 4.723 4.723 0 0 0 0-4.618 4.73 4.73 0 0 0 0-4.619 4.73 4.73 0 0 0 0-4.619Z"/><path fill="#3F3D56" d="M154.1 144.411c1.593 0 2.885-1.692 2.885-3.779 0-2.087-1.292-3.779-2.885-3.779-1.594 0-2.886 1.692-2.886 3.779 0 2.087 1.292 3.779 2.886 3.779Z"/><path fill="#3F3D56" d="M154.1 139.792c1.593 0 2.885-1.692 2.885-3.779 0-2.087-1.292-3.779-2.885-3.779-1.594 0-2.886 1.692-2.886 3.779 0 2.087 1.292 3.779 2.886 3.779Z"/><path fill="#FB1" d="M143.293 104.407a13.79 13.79 0 0 1-1.074-1.582l7.584-1.247-8.203.061a13.85 13.85 0 0 1-.263-10.952l11.004 5.709-10.15-7.464a13.83 13.83 0 1 1 22.837 15.47 13.869 13.869 0 0 1 1.576 2.521l-9.843 5.127 10.497-3.523a13.84 13.84 0 0 1-2.229 12.985 13.824 13.824 0 0 1-3.528 20.271 13.825 13.825 0 0 1-19.775-5.68 13.823 13.823 0 0 1 1.572-14.591 13.834 13.834 0 0 1 0-17.098l-.005-.007Z"/><path fill="#000" d="M167.987 112.956a13.77 13.77 0 0 1-2.958 8.549 13.824 13.824 0 0 1-3.528 20.27 13.826 13.826 0 0 1-18.203-20.27c-1.862-2.354 24.689-10.102 24.689-8.549Z" opacity=".1"/><path fill="#3F3D56" d="M50.717 148.902a4.816 4.816 0 0 0 .639-2.445c0-2.21-1.369-4.002-3.058-4.002-1.688 0-3.057 1.792-3.057 4.002a4.817 4.817 0 0 0 .64 2.445 5.002 5.002 0 0 0 0 4.892 4.998 4.998 0 0 0 0 4.891 4.998 4.998 0 0 0 0 4.89 4.83 4.83 0 0 0-.64 2.445c0 2.21 1.369 4.002 3.057 4.002 1.69 0 3.058-1.792 3.058-4.002a4.829 4.829 0 0 0-.64-2.445 5 5 0 0 0 0-4.89 5 5 0 0 0 0-4.891 5 5 0 0 0 0-4.892Z"/><path fill="#3F3D56" d="M48.298 145.569c1.689 0 3.057-1.792 3.057-4.002s-1.368-4.002-3.057-4.002c-1.688 0-3.057 1.792-3.057 4.002s1.369 4.002 3.057 4.002Z"/><path fill="#3F3D56" d="M48.298 140.678c1.689 0 3.057-1.792 3.057-4.002s-1.368-4.002-3.057-4.002c-1.688 0-3.057 1.792-3.057 4.002s1.369 4.002 3.057 4.002Z"/><path fill="#FB1" d="M59.742 103.21a14.86 14.86 0 0 0 1.138-1.676l-8.025-1.322 8.687.064a14.665 14.665 0 0 0 .28-11.602L50.16 94.72l10.748-7.9a14.642 14.642 0 1 0-24.184 16.39 14.543 14.543 0 0 0-1.669 2.67l10.433 5.413-11.118-3.731a14.654 14.654 0 0 0 2.361 13.749 14.643 14.643 0 1 0 23.02 0 14.646 14.646 0 0 0 0-18.105l-.009.004Z"/><path fill="#000" d="M33.591 112.26a14.584 14.584 0 0 0 3.131 9.051 14.645 14.645 0 0 0 3.74 21.463 14.642 14.642 0 0 0 19.28-21.463c1.962-2.491-26.15-10.696-26.15-9.051Z" opacity=".1"/><path fill="#3F3D56" d="M100 174.423c55.228 0 100-2.187 100-4.885 0-2.699-44.772-4.886-100-4.886S0 166.839 0 169.538c0 2.698 44.772 4.885 100 4.885Z"/><path fill="url(#b)" d="M107.182 151.061a.322.322 0 0 0-.221.195h-.035l-.136-.022s-.714-.059-.847-.05a.264.264 0 0 1-.217-.123l-.533-.45-.04-.035.094-.033s-1.427-1.771-1.735-1.806c-.308-.035-.816-.448-.821-.453v-.028a2.47 2.47 0 0 1-.026-.184l.075.046v-.063c.012-.219.086-.429.214-.608.149-.206.368-.368.457-.605a.91.91 0 0 0 .046-.319 1.048 1.048 0 0 0-.148-.553.7.7 0 0 0-.467-.322c-.05 0-.102 0-.151-.02-.299-.07-.407-.47-.696-.567a.59.59 0 0 0-.415.042c-.131.055-.247.136-.368.199-.135.054-.264.12-.387.197l-.037.031-.024.022a.784.784 0 0 0-.123.163v.009s0 .013-.009.018v.157a.033.033 0 0 0 0 .014.074.074 0 0 0 0 .021v.035a.02.02 0 0 1 0 .011v.031c.033.073.08.139.138.195l-.017.017a1.25 1.25 0 0 0-.366 1.132 1.248 1.248 0 0 0-.21-.127 1.855 1.855 0 0 0-.785-.184 5.42 5.42 0 0 1-1.066-.171c.015.03.027.063.035.096l-.088-.05a2.61 2.61 0 0 0-.833-.28s-.184.026-.208-.368a1.68 1.68 0 0 0-.066-.358 6.215 6.215 0 0 1-.297-1.082l-.059-.573s.278-1.486.11-2.116a.44.44 0 0 0-.154-.512c-.7-.516-1.407 1.493-1.407 1.493l-.263.254a.574.574 0 0 0-.223-.084 1.243 1.243 0 0 0-.24.539c-.051.21-.408.553-.736.842-.228.201-.45.409-.669.617-.163.155-.526.368-1.318.501l-.34.055a1.078 1.078 0 0 0-.805-1.333.275.275 0 0 0 0-.078.319.319 0 0 0-.082-.145 1.541 1.541 0 0 0-.595-.516.77.77 0 0 0-.322-.051h-.079a.817.817 0 0 0-.602.313c-.089.12-.142.259-.22.387-.153.229-.359.418-.6.552-.141.085-.293.16-.427.258a1.606 1.606 0 0 0-.593 1.6c.055.258.17.512.138.774-.038.2-.122.389-.245.552a1.771 1.771 0 0 0-.272.553.539.539 0 0 0 .17.552c.064.037.125.079.183.125a.63.63 0 0 1 .087.137 1.367 1.367 0 0 0 .841.653.533.533 0 0 0 .173.019h.019a.287.287 0 0 0 .313-.144.3.3 0 0 1 .03-.077.087.087 0 0 1 .051-.035.419.419 0 0 1 .123.046c.186.095.388.152.595.167.035.003.07.003.105 0a.458.458 0 0 0 .214-.029.448.448 0 0 0 .164-.142l.027-.037c-.048.29-.138.57-.269.833a1.522 1.522 0 0 0-.2.727.72.72 0 0 0 .08.383l.021-.04c.111.199.245.384.4.552.019.289.006.578-.039.864a1.785 1.785 0 0 0 .683 1.967l.227.497-.934.066c-.094-.013-1.317-.184-1.322.061-.006.245.184 2.671.817 2.507.592-.153.396-.86.369-.954h.02-.022l.471-.448a.203.203 0 0 0-.035-.155l1.14.052.267.586s.455.692.087 1.274c-.368.582-.751 1.494-.812 2.044a2.252 2.252 0 0 1-.505 1.043c-.213.073-1.033.394-.707.882.368.552 1.593 1.62 2.085 1.584.492-.037.294-.395.294-.395l-.41-.401a9.94 9.94 0 0 1-.044-1.105.254.254 0 0 0-.184-.262c.038-.278.136-.801.346-1.092.296-.407 1.243-2.195 1.243-2.195s.3-.267.234-1.062a18.542 18.542 0 0 1-.052-.825l1.072.047s1.149-.114.368-1.346c-.78-1.232-2.44-2.44-2.44-2.44l-.015-.762.12.029s0-.028-.018-.077h.018a16.36 16.36 0 0 1-.304-1.847l.068.031c.713.825 1.194.127 1.194.127s1.506-2.116 1.359-2.026a.121.121 0 0 1-.05.01.121.121 0 0 1-.05-.01l.109-.346s.446-.68-.2-1.063c-.528-.311-.515.667-.49 1.037l-.026-.024s-.505.759-.776 1.184c-.27.426-.497.146-.497.146l-.343-.385c.056-.155.084-.318.082-.483a.817.817 0 0 0-.233-.624 1.09 1.09 0 0 1-.344-.724.756.756 0 0 1 .068-.296l1.777-.941s.369 0 .879-.77c.327-.497.687-.971 1.077-1.42l-.03-.04.03-.034s-.02-.029-.057-.075l.274-.317a4.205 4.205 0 0 0 0 .429l.14.481.082 2.668s-.087.256.467.511c.468.215 1.21.58 1.426.685a.407.407 0 0 1-.013.031h.064c1.081-.098 1.044.982 1.044.982s.074 2.197-.257 2.961a4.362 4.362 0 0 0-.284 1.711s.033-.16.22.049l-.014.059c-.105.531-.324 1.658-.368 2.113a7.419 7.419 0 0 1-.24 1.232l-.11 2.026.692.033v.072a.22.22 0 0 1-.115.184c-.238.129-.796.58-.752 1.968l-.024.229a2.825 2.825 0 0 1-.337 1.079.677.677 0 0 0-.042.081.065.065 0 0 1 .018-.039s-.359.074-.285 1.045c.073.97.184 1.141.331 1.152.148.011.868.185.83-.169-.036-.354-.073-1.153-.023-1.274.05-.122.243-.448.057-.527.054-.223.08-.451.077-.68.177-.283.385-.546.62-.782.259-.214.399-.575.493-1.039 0-.03.762-.534.652-.952a3.933 3.933 0 0 1-.045-.184c0-.028 0-.052-.013-.074h.015l.153-.921v.899l.092.011v.074l-.039.86a1.392 1.392 0 0 1-.11.488 4.785 4.785 0 0 0-.381 2.171l-.01.827c-.025 0-.4.094-.33 1.031.075.971.185 1.14.332 1.153.148.013.868.184.831-.169-.037-.354-.074-1.153-.026-1.275.048-.121.135-.442-.051-.521a.688.688 0 0 1 .077-.311c.081-.138.352-.794.552-1.299.208-.51.324-1.053.343-1.604v-.018c.006-.186.046-.369.118-.54.082-.192.148-.391.197-.595 0-.023 0-.047.013-.069l.175.022.604-2.608s.164-1.414.085-2.054c0-.025 0-.051-.012-.073h.037s.124-.315.087-1.658c-.037-1.342.245-1.771.245-1.771.153-.485.322-.647.42-.702a.204.204 0 0 1 .084-.028l.457.523.085.096.038.043a.705.705 0 0 1 0-.065c.244.142.807.472 1.142.709.439.31.553.275.941.241.264-.042.52-.126.757-.248h.019c.058.03.12.054.184.072 0 0 .619.523.678-.433.059-.956-.743-.755-.743-.755Zm-16.04 11.129a.945.945 0 0 1-.184-.076l.184.076Zm-.967-10.347v.137c-.004-.043-.002-.091 0-.137Zm9.667 12.115v.053c-.011-.028-.017-.028 0-.053Z"/><path fill="#FB1" d="M101.816 148.057h-1.05v1.103h1.05v-1.103Z"/><path fill="#A0616A" d="M99.49 160.801c-.092.46-.228.82-.483 1.031a4.494 4.494 0 0 0-.609.777c0 .756-.204.984-.204.984l-.205.055h-.506a2.34 2.34 0 0 1-.109-.405.462.462 0 0 1 .08-.225c.18-.331.293-.696.33-1.072l.023-.222c-.043-1.382.504-1.831.736-1.958a.227.227 0 0 0 .114-.184l.041-.394 1.363.066a1.11 1.11 0 0 0 .024.398c0 .057.024.121.042.193.111.426-.631.925-.637.956ZM101.801 159.847a3.39 3.39 0 0 1-.184.59c-.07.17-.11.353-.116.537v.019a4.695 4.695 0 0 1-.335 1.595c-.201.5-.466 1.152-.553 1.289a1.06 1.06 0 0 0-.053.615l-.768-.054.013-1.289a4.8 4.8 0 0 1 .368-2.158c.064-.154.1-.318.107-.484l.039-.857.011-.252s1.357-.193 1.473.114a.667.667 0 0 1-.002.335Z"/><path fill="#8E5362" d="M99.49 160.801c-.092.46-.228.82-.483 1.031a4.494 4.494 0 0 0-.609.777c0 .756-.204.984-.204.984l-.205.055h-.506a2.34 2.34 0 0 1-.109-.405.462.462 0 0 1 .08-.225c.18-.331.293-.696.33-1.072l.023-.222c-.043-1.382.504-1.831.736-1.958a.227.227 0 0 0 .114-.184l.041-.394 1.363.066a1.11 1.11 0 0 0 .024.398c0 .057.024.121.042.193.111.426-.631.925-.637.956ZM101.801 159.847a3.39 3.39 0 0 1-.184.59c-.07.17-.11.353-.116.537v.019a4.695 4.695 0 0 1-.335 1.595c-.201.5-.466 1.152-.553 1.289a1.06 1.06 0 0 0-.053.615l-.768-.054.013-1.289a4.8 4.8 0 0 1 .368-2.158c.064-.154.1-.318.107-.484l.039-.857.011-.252s1.357-.193 1.473.114a.667.667 0 0 1-.002.335Z"/><path fill="#000" d="m100.086 159.661-1.427-.07.04-.394 1.364.066c-.017.133-.009.268.023.398ZM101.801 159.847l-1.473-.199.011-.252s1.357-.193 1.473.114a.675.675 0 0 1-.011.337Z" opacity=".1"/><path fill="#2F2E41" d="m102.578 157.206-.591 2.593-1.75-.235v-.892l-.151.921-2.097-.103.108-2.009c.113-.401.19-.81.234-1.223.04-.455.256-1.575.369-2.1.033-.184.055-.283.055-.283s3.595.747 3.83 1.018a.577.577 0 0 1 .083.276c.072.632-.09 2.037-.09 2.037Z"/><path fill="#000" d="M98.381 157.376s1.415-.737 1.759-.586l-1.759.586ZM99.153 154.959s1.175.894 1.212 1.135l-1.212-1.135ZM98.832 158.026s.851-.035 1.122.184l-1.121-.184ZM100.368 157.072s.404 1.322.229 1.685c-.175.363-.356-.085-.356-.085l.127-1.6Z" opacity=".1"/><path fill="#2F2E41" d="M99.797 163.969s-.4.061-.325 1.026c.073.965.184 1.132.325 1.145.142.013.849.184.814-.169-.035-.354-.073-1.146-.024-1.266.05-.119.131-.44-.051-.519l-.041.184s-.384-.355-.615-.096a.983.983 0 0 0-.046-.184c-.018-.057-.073-.086-.037-.121Z"/><path fill="#A0616A" d="M107.081 152.129s-.09.05-.225.114c-.231.12-.479.204-.736.247-.369.031-.494.068-.921-.239-.33-.236-.882-.566-1.122-.706l-.105-.062h-.011l.199-.553.706-.368.184.151.521.447a.256.256 0 0 0 .212.122c.131-.009.832.05.832.05l.133.022.28.046.053.729Z"/><path fill="#000" d="M107.081 152.129s-.09.05-.224.114c-.142-.072-.317-.208-.249-.431s.077-.359.127-.471l.28.046.066.742Z" opacity=".1"/><path fill="#A0616A" d="M106.987 151.151s.787-.226.728.724c-.059.95-.665.429-.665.429s-.516-.135-.407-.492c.109-.357.077-.574.344-.661ZM98.827 148.075l-.82.345h-.022l-.051-.026c-.212-.105-.94-.466-1.398-.681-.553-.253-.459-.507-.459-.507l-.079-2.654-.138-.475s-.1-1.617.687-2.026c.786-.408.278 2.339.278 2.339l.057.571c.04.365.113.725.216 1.078.034.115.056.233.064.353.024.387.204.369.204.369a2.487 2.487 0 0 1 1.087.447l.374.867Z"/><path fill="#8E5362" d="m101.746 149.343-.7-.074c.124-.189.224-.392.296-.606.013-.04.024-.082.032-.123a.428.428 0 0 0-.039-.308c-.204-.302 1.219-.724 1.219-.724a3.52 3.52 0 0 0-.016.503c.005.116.017.232.036.346.022.22.127.424.293.569.448.308-1.121.417-1.121.417Z"/><path fill="#000" d="m101.746 149.342-.7-.073c.124-.189.224-.392.296-.606.081.116.109.112.223.136 0 0 .706.105 1.009-.442.022.22.127.424.293.569.448.308-1.121.416-1.121.416ZM104.07 151.545a.353.353 0 0 0 0 .065l-.109-.127.199-.553.706-.368.184.151c-.262.081-.967.379-.98.832ZM98.827 148.076l-.82.344H97.924l.01-.031c.07-.166.388-.976.25-1.359.094.05.184.107.27.171l.374.875ZM102.661 155.166c-.319-.03-3.512-.324-3.81-.794-.047-.077-.1-.15-.159-.217.034-.184.056-.284.056-.284s3.594.748 3.83 1.019a.57.57 0 0 1 .083.276Z" opacity=".1"/><path fill="#F86D70" d="M101.566 148.834s.712.107 1.014-.449c0 0 .505.414.807.451.302.037 1.7 1.796 1.7 1.796s-1.122.368-1.05.941l-.538-.615s-.265-.011-.493.723c0 0-.278.422-.241 1.761.036 1.339-.085 1.658-.085 1.658s-3.523-.303-3.836-.798c-.313-.495-.369-.252-.369-.252a4.401 4.401 0 0 1 .277-1.702c.326-.759.254-2.946.254-2.946s.035-1.074-1.026-.977c0 0 .446-1.038.241-1.436.342.092.693.15 1.046.171.267.004.53.067.77.184a.863.863 0 0 1 .319.242.465.465 0 0 0 .552.156c.085.266.191.524.315.774l.042.077c.023.035.043.07.065.101.022.044.056.08.097.105a.26.26 0 0 0 .139.035Z"/><path fill="#000" d="M102.538 148.011a1.253 1.253 0 0 1-1.034.534h-.13a.426.426 0 0 0-.039-.307c-.204-.302 1.219-.724 1.219-.724a3.436 3.436 0 0 0-.016.497Z" opacity=".1"/><path fill="#A0616A" d="M102.772 147.243a1.27 1.27 0 0 1-1.514 1.243 1.269 1.269 0 0 1-.924-1.728 1.27 1.27 0 0 1 2.344-.001c.063.154.095.319.094.486Z"/><path fill="#000" d="m103.398 150.138.026.847s.379-.304.39-.595c.011-.29-.416-.252-.416-.252ZM100.346 150.985s.997 1.367 1.575 1.505c.578.138-1.357-1.061-1.575-1.505ZM101.401 151.127s.553.626.954.705l-.954-.705ZM99.448 152.707s1.013.995 1.593 1.056l-1.593-1.056ZM102.771 147.243a1.254 1.254 0 0 1-.368.884l-.14-.085a.39.39 0 0 1-.134-.118.473.473 0 0 1-.03-.263.605.605 0 0 0-.184-.512c-.241-.184-.626-.087-.867-.274a.904.904 0 0 1-.155-.172l-.228-.305-.048-.059a1.265 1.265 0 0 1 2.154.904Z" opacity=".1"/><path fill="#2F2E41" d="M100.737 145.623c.119-.078.246-.144.377-.198.125-.062.24-.143.369-.198a.563.563 0 0 1 .405-.041c.283.098.39.494.683.564.048.011.099.011.149.02a.695.695 0 0 1 .459.318c.097.168.147.359.145.553a.923.923 0 0 1-.046.317c-.086.235-.302.397-.449.602a1.145 1.145 0 0 0-.21.667l-.354-.22a.387.387 0 0 1-.134-.117.47.47 0 0 1-.03-.262.611.611 0 0 0-.184-.514c-.241-.184-.626-.084-.867-.274a.811.811 0 0 1-.155-.171c-.075-.102-.153-.203-.228-.306a.854.854 0 0 1-.166-.23c-.052-.175.112-.415.236-.51Z"/><path fill="#000" d="M102.311 147.961a.372.372 0 0 1-.136-.116.473.473 0 0 1-.03-.263.611.611 0 0 0-.184-.512c-.239-.184-.624-.087-.867-.274a.904.904 0 0 1-.155-.172c-.076-.101-.151-.204-.228-.305a.864.864 0 0 1-.166-.232.52.52 0 0 1 .167-.437.566.566 0 0 0-.206.477.9.9 0 0 0 .166.23c.075.103.153.205.228.306a.814.814 0 0 0 .155.171c.241.184.626.083.867.275a.62.62 0 0 1 .185.514.457.457 0 0 0 .029.261.394.394 0 0 0 .135.118l.353.219v-.063l-.313-.197Z" opacity=".1"/><path fill="#2F2E41" d="M97.431 163.062s-.353.074-.282 1.039c.072.965.184 1.135.326 1.146.142.011.851.184.814-.168-.037-.352-.072-1.145-.024-1.267.048-.122.24-.446.057-.525l-.147.184s-.385-.355-.615-.097c0 .007-.214-.229-.129-.312Z"/><path fill="#000" d="M97.654 163.659c.075.035.147.081.223.118a.502.502 0 0 0 .243.057.187.187 0 0 0 .1-.035M99.972 164.606c.041.045.085.088.131.129a.457.457 0 0 0 .254.051.1.1 0 0 0 .042 0 .078.078 0 0 0 .039-.035l.048-.06" opacity=".1"/><path fill="#FFC1C7" d="M94.026 148.558s-.162-1.545.471-1.164c.634.381.196 1.055.196 1.055l-.148.477-.52-.368ZM95.039 143.624l.368-.355s.692-1.997 1.381-1.485c.689.512-.873 1.811-.873 1.811l-.412.482-.464-.453Z"/><path fill="#F86D70" d="m89.744 151.519-.018.409s.331.58.471.623c.14.042.125-1.225.125-1.225l-.578.193Z"/><path fill="#000" d="m89.707 151.554-.018.411s.333.578.471.621c.139.042.127-1.223.127-1.223l-.58.191Z" opacity=".1"/><path fill="#FFC1C7" d="m90.298 151.07.024 1.512h1.683l-.127-.88-1.58-.632Z"/><path fill="#2F2E41" d="m90.69 154.842.08.482.981 2.184s.448.687.085 1.265c-.363.579-.737 1.485-.796 2.026-.059.542-.536 1.087-.536 1.087l1.037.44s.072-.864.369-1.267c.296-.403 1.219-2.184 1.219-2.184s.294-.265.228-1.056c-.066-.79-.059-1.344-.059-1.344l-.103-1.26-2.505-.373Z"/><path fill="#000" d="m90.69 154.842.08.482.981 2.184s.448.687.085 1.265c-.363.579-.737 1.485-.796 2.026-.059.542-.536 1.087-.536 1.087l1.037.44s.072-.864.369-1.267c.296-.403 1.219-2.184 1.219-2.184s.294-.265.228-1.056c-.066-.79-.059-1.344-.059-1.344l-.103-1.26-2.505-.373Z" opacity=".1"/><path fill="#F86D70" d="M90.595 161.827s-1.105.337-.737.891c.369.555 1.562 1.612 2.045 1.575.482-.037.289-.392.289-.392l-.404-.398a9.933 9.933 0 0 1-.042-1.092c.03-.247-.344-.369-.392-.218-.048.151-.759-.366-.759-.366Z"/><path fill="#2F2E41" d="m91.295 151.939-.88.096a.319.319 0 0 0-.282.322c.009.352.016.921-.033 1.013a1.79 1.79 0 0 0 .67 1.958l1.308.416-2.098.151.066 1.164.324-.184 3.982.184s1.127-.114.368-1.339c-.758-1.225-2.394-2.424-2.394-2.424l-.018-.953-.12-.277-.893-.127Z"/><path fill="#000" d="M92.385 155.722a1.138 1.138 0 0 1 .906 0h-.906Z" opacity=".1"/><path fill="#F86D70" d="M90.08 155.88s-1.288-.184-1.301.061c-.013.245.184 2.652.801 2.49.617-.162.357-.959.357-.959l.464-.446s.048-.247-.26-.223l-.06-.923ZM92.228 149.136l.514.586s.223.276.488-.146c.265-.421.759-1.175.759-1.175s.552.483.694.385c.142-.097-1.333 2.009-1.333 2.009s-.47.693-1.17-.127l-.204-.095.252-1.437Z"/><path fill="#000" d="m92.194 149.136.512.586s.222.276.488-.146c.265-.421.76-1.175.76-1.175s.553.483.693.385c.14-.097-1.332 2.009-1.332 2.009s-.471.693-1.171-.127l-.205-.095.255-1.437Z" opacity=".1"/><path fill="#FFC1C7" d="M90.66 146.761a1.069 1.069 0 1 0 0-2.138 1.069 1.069 0 0 0 0 2.138Z"/><path fill="#000" d="M90.661 146.265s-.92.435-.808 1.195c.071.571.114 1.144.127 1.719 0 0 .416.615-.137 1.791 0 0-.353.597-.117 1.032 0 0 .261-.689.935-.184.674.504 1.76.736 1.76.736s-.561-2.46-.217-2.805c0 0 .597-.885.056-1.445-.542-.56-.273-1.087-.273-1.087l1.744-.935s.368 0 .862-.765c.32-.494.672-.966 1.055-1.412 0 0-.368-.553-.724-.602-.12.157-.2.341-.235.536-.052.208-.4.552-.717.836-.222.199-.44.407-.655.613-.16.155-.518.368-1.29.499-1.281.212-1.366.278-1.366.278Z" opacity=".1"/><path fill="#F86D70" d="M90.661 146.193s-.92.435-.808 1.194c.071.571.114 1.145.127 1.72 0 0 .416.615-.137 1.79 0 0-.353.598-.117 1.031 0 0 .261-.687.935-.184.674.503 1.76.737 1.76.737s-.561-2.461-.217-2.805c0 0 .597-.886.056-1.448-.542-.561-.273-1.084-.273-1.084l1.744-.936s.368 0 .862-.766c.32-.493.672-.965 1.055-1.411 0 0-.368-.561-.724-.604-.119.159-.2.343-.235.538-.052.208-.4.552-.717.836-.222.199-.44.405-.655.613-.16.153-.518.369-1.29.499-1.281.207-1.366.28-1.366.28Z"/><path fill="#000" d="M91.451 150.74s.711 1.05.737 1.23c-.008 0-.107-1.127-.737-1.23ZM90.516 147.206a.873.873 0 0 0 1.213.098 1.538 1.538 0 0 1-1.213-.098Z" opacity=".1"/><path fill="#000" d="M90.9 144.575a.327.327 0 0 0-.077-.146 1.544 1.544 0 0 0-.584-.519.803.803 0 0 0-.92.261c-.087.118-.14.26-.216.385-.149.229-.35.418-.587.553-.14.086-.288.16-.42.257a1.607 1.607 0 0 0-.58 1.592c.051.256.163.51.134.769-.038.2-.12.389-.24.553a1.723 1.723 0 0 0-.268.552.541.541 0 0 0 .166.553.933.933 0 0 1 .184.125.55.55 0 0 1 .086.134 1.326 1.326 0 0 0 .825.651c.157.04.369.025.422-.126a.266.266 0 0 1 .03-.075c.051-.074.163-.031.242 0 .182.095.382.153.586.167a.47.47 0 0 0 .238-.027.445.445 0 0 0 .162-.14 1.72 1.72 0 0 0 .278-.882 2.1 2.1 0 0 0 0-.608c-.06-.32-.256-.621-.227-.945.03-.324.312-.631.356-.978a.746.746 0 0 0-.127-.513.806.806 0 0 1-.098-.152.15.15 0 0 1 .03-.165.237.237 0 0 1 .075-.037.63.63 0 0 0 .368-.553 1.131 1.131 0 0 1 .024-.261c.039-.131.159-.28.138-.425Z" opacity=".1"/><path fill="#2F2E41" d="M90.829 144.575a.331.331 0 0 0-.08-.146 1.543 1.543 0 0 0-.583-.519.803.803 0 0 0-.921.261c-.079.125-.15.253-.216.385-.148.229-.35.418-.587.553-.14.086-.287.16-.42.257a1.61 1.61 0 0 0-.582 1.592c.053.256.166.51.136.769-.038.2-.12.389-.241.553a1.716 1.716 0 0 0-.267.552.54.54 0 0 0 .166.553c.065.035.127.077.184.125a.54.54 0 0 1 .085.134 1.337 1.337 0 0 0 .826.651c.157.04.369.025.422-.126a.267.267 0 0 1 .03-.075c.051-.074.164-.031.243 0 .18.096.38.153.584.167.08.012.163.002.239-.027a.424.424 0 0 0 .16-.14c.172-.263.269-.568.278-.882.03-.202.03-.407 0-.608-.06-.32-.256-.621-.228-.945.028-.324.313-.631.355-.978a.734.734 0 0 0-.127-.513.867.867 0 0 1-.096-.152.15.15 0 0 1 .03-.165.197.197 0 0 1 .076-.037.63.63 0 0 0 .368-.553c0-.087.008-.175.026-.261.04-.131.16-.28.14-.425Z"/><g fill="#000" opacity=".1"><path d="M88.672 150.098a.266.266 0 0 0-.03.075.246.246 0 0 1-.22.142c.138.013.284-.018.33-.142a.267.267 0 0 1 .029-.075.088.088 0 0 1 .037-.032.123.123 0 0 0-.078-.008.116.116 0 0 0-.068.04ZM90.83 144.575a.318.318 0 0 0-.079-.146 1.518 1.518 0 0 0-.583-.512.73.73 0 0 0-.334-.049c.076.001.15.015.221.042.236.117.437.293.584.512.039.04.066.091.08.145.02.146-.1.295-.14.429a1.135 1.135 0 0 0-.025.262.63.63 0 0 1-.368.552.212.212 0 0 0-.076.037.152.152 0 0 0-.029.166c.027.054.06.105.098.151.104.15.15.333.127.514-.044.346-.326.63-.358.976-.03.346.168.626.229.946.03.202.03.407 0 .608-.01.314-.105.619-.277.882a.428.428 0 0 1-.162.14.346.346 0 0 1-.117.03.486.486 0 0 0 .226-.03.427.427 0 0 0 .162-.14c.171-.263.267-.568.276-.882.03-.201.03-.406 0-.608-.06-.32-.256-.62-.228-.946.028-.326.313-.63.357-.976a.738.738 0 0 0-.127-.514.763.763 0 0 1-.097-.151.151.151 0 0 1 .03-.166.213.213 0 0 1 .075-.037.628.628 0 0 0 .368-.552c0-.088.008-.176.026-.262.042-.127.162-.276.142-.421Z"/></g><path fill="#000" d="M89.46 157.354a.49.49 0 0 0 .501.138M91.779 163.534a.311.311 0 0 1-.25.065" opacity=".1"/><path fill="#FB1" d="m35.599 164.39 2.453-1.442a5.942 5.942 0 0 0-1.255-1.501l-4.626 1.441 3.624-2.133a5.89 5.89 0 0 0-7.95 2.252 5.89 5.89 0 0 0-.773 2.917c0 3.255 2.639 3.369 5.893 3.369s5.893-.114 5.893-3.369a5.857 5.857 0 0 0-.506-2.394l-2.753.86Z"/><path fill="#000" d="M36.223 167.554a4.637 4.637 0 0 0-.87-.683c-.443-.294-.906-.596-1.43-.698-.46-.088-.936-.013-1.406-.04a3.286 3.286 0 0 1-2.152-.987c-.336-.347-.599-.772-1.002-1.035a2.19 2.19 0 0 0-1.5-.277c-.149.022-.297.053-.443.092a5.894 5.894 0 0 0-.348 1.999c0 3.254 2.639 3.368 5.893 3.368 1.58 0 3.013-.028 4.072-.427l-.184-.33a4.658 4.658 0 0 0-.63-.982Z" opacity=".1"/><path fill="#FB1" d="m179.245 164.39 2.453-1.442a5.948 5.948 0 0 0-1.254-1.501l-4.626 1.441 3.624-2.133a5.89 5.89 0 0 0-5.835.099 5.903 5.903 0 0 0-2.889 5.07c0 3.255 2.639 3.369 5.893 3.369 3.255 0 5.894-.114 5.894-3.369a5.864 5.864 0 0 0-.507-2.394l-2.753.86Z"/><path fill="#000" d="M179.869 167.554a4.632 4.632 0 0 0-.869-.683c-.444-.294-.906-.596-1.431-.698-.46-.088-.935-.013-1.405-.04a3.288 3.288 0 0 1-2.153-.987c-.335-.347-.598-.772-1.002-1.035a2.19 2.19 0 0 0-1.499-.277c-.15.022-.298.053-.444.092a5.918 5.918 0 0 0-.348 1.999c0 3.254 2.639 3.368 5.893 3.368 1.581 0 3.013-.028 4.072-.427l-.184-.33a4.651 4.651 0 0 0-.63-.982Z" opacity=".1"/><path fill="#FB1" d="m61.11 161.871-1.917-1.127c.26-.441.592-.837.98-1.171l3.615 1.123-2.832-1.657a4.598 4.598 0 0 1 4.552.073 4.602 4.602 0 0 1 2.264 3.951c0 2.543-2.061 2.631-4.605 2.631-2.543 0-4.604-.088-4.604-2.631 0-.644.135-1.28.396-1.868l2.151.676Z"/><path fill="#000" d="M60.623 164.352c.203-.204.43-.383.677-.533a3.148 3.148 0 0 1 1.118-.552c.369-.07.737-.011 1.105-.031a2.584 2.584 0 0 0 1.682-.772c.261-.271.467-.604.782-.81.352-.21.768-.286 1.172-.216.116.018.232.042.346.072.178.498.268 1.023.267 1.553 0 2.543-2.06 2.631-4.604 2.631-1.234 0-2.354-.022-3.18-.333l.137-.258c.133-.271.3-.523.498-.751Z" opacity=".1"/><path fill="#FB1" d="m75.843 161.871-1.917-1.127c.26-.441.591-.837.98-1.171l3.615 1.123-2.832-1.657a4.597 4.597 0 0 1 4.552.073 4.602 4.602 0 0 1 2.263 3.951c0 2.543-2.06 2.631-4.604 2.631-2.543 0-4.604-.088-4.604-2.631 0-.644.135-1.28.396-1.868l2.151.676Z"/><path fill="#000" d="M75.356 164.352c.203-.204.43-.383.677-.533a3.147 3.147 0 0 1 1.118-.552c.368-.07.737-.011 1.105-.031a2.584 2.584 0 0 0 1.681-.772c.262-.271.468-.604.783-.81.352-.21.768-.286 1.171-.216.117.018.233.042.347.072.178.498.268 1.023.267 1.553 0 2.543-2.061 2.631-4.604 2.631-1.234 0-2.354-.022-3.18-.333l.137-.258c.133-.271.3-.523.498-.751Z" opacity=".1"/><path fill="#FB1" d="m129.435 161.871-1.917-1.127c.26-.441.591-.837.979-1.171l3.615 1.123-2.832-1.657a4.598 4.598 0 0 1 4.552.073 4.601 4.601 0 0 1 2.264 3.951c0 2.543-2.061 2.631-4.604 2.631-2.544 0-4.604-.088-4.604-2.631a4.57 4.57 0 0 1 .396-1.868l2.151.676Z"/><path fill="#000" d="M128.946 164.352c.204-.204.432-.383.678-.533a3.146 3.146 0 0 1 1.118-.552c.368-.07.737-.011 1.105-.031a2.58 2.58 0 0 0 1.681-.772c.262-.271.468-.604.783-.81.352-.21.768-.286 1.171-.216.117.018.233.042.347.072.178.498.268 1.023.267 1.553 0 2.543-2.061 2.631-4.604 2.631-1.234 0-2.354-.022-3.181-.333l.138-.258c.133-.271.3-.523.497-.751Z" opacity=".1"/><path fill="#3F3D56" d="M82.107 150.04c.336-.587.51-1.254.504-1.931 0-1.746-1.083-3.162-2.416-3.162s-2.416 1.416-2.416 3.162a3.815 3.815 0 0 0 .505 1.931 3.956 3.956 0 0 0 0 3.868 3.948 3.948 0 0 0 0 3.867 3.956 3.956 0 0 0 0 3.868 3.81 3.81 0 0 0-.505 1.932c0 1.745 1.083 3.162 2.416 3.162s2.416-1.417 2.416-3.162a3.812 3.812 0 0 0-.504-1.932 3.956 3.956 0 0 0 0-3.868 3.947 3.947 0 0 0 0-3.867 3.956 3.956 0 0 0 0-3.868Z"/><path fill="#3F3D56" d="M80.195 147.407c1.334 0 2.416-1.416 2.416-3.162 0-1.747-1.082-3.162-2.416-3.162-1.334 0-2.416 1.415-2.416 3.162 0 1.746 1.082 3.162 2.416 3.162Z"/><path fill="#3F3D56" d="M80.195 143.543c1.334 0 2.416-1.415 2.416-3.162 0-1.746-1.082-3.162-2.416-3.162-1.334 0-2.416 1.416-2.416 3.162 0 1.747 1.082 3.162 2.416 3.162Z"/><path fill="#FB1" d="M89.237 113.934c.33-.42.63-.863.9-1.324l-6.344-1.043 6.864.052a11.594 11.594 0 0 0 .221-9.168l-9.208 4.777 8.492-6.241a11.57 11.57 0 1 0-19.109 12.947 11.574 11.574 0 0 0-1.318 2.11l8.237 4.28-8.784-2.946a11.58 11.58 0 0 0 1.865 10.865 11.57 11.57 0 1 0 18.188 0 11.57 11.57 0 0 0 0-14.306l-.004-.003Z"/><path fill="#000" d="M68.575 121.087a11.51 11.51 0 0 0 2.475 7.152 11.573 11.573 0 0 0-1.312 12.207 11.568 11.568 0 0 0 20.812 0 11.57 11.57 0 0 0-1.312-12.207c1.554-1.966-20.663-8.455-20.663-7.152Z" opacity=".1"/><path fill="#3F3D56" d="M117.378 147.188a4.843 4.843 0 0 0 .637-2.446c0-2.21-1.369-4.002-3.057-4.002-1.689 0-3.057 1.792-3.057 4.002a4.822 4.822 0 0 0 .639 2.446 4.993 4.993 0 0 0 0 4.889 5 5 0 0 0 0 4.892 4.998 4.998 0 0 0 0 4.891 4.812 4.812 0 0 0-.639 2.446c0 2.21 1.37 4.001 3.057 4.001 1.687 0 3.057-1.791 3.057-4.001a4.82 4.82 0 0 0-.637-2.446 5.019 5.019 0 0 0 0-4.891 5.025 5.025 0 0 0 0-4.892 5.017 5.017 0 0 0 0-4.889Z"/><path fill="#3F3D56" d="M114.957 143.855c1.689 0 3.058-1.792 3.058-4.002s-1.369-4.002-3.058-4.002c-1.688 0-3.057 1.792-3.057 4.002s1.369 4.002 3.057 4.002Z"/><path fill="#3F3D56" d="M114.957 138.963c1.689 0 3.058-1.792 3.058-4.002s-1.369-4.002-3.058-4.002c-1.688 0-3.057 1.792-3.057 4.002s1.369 4.002 3.057 4.002Z"/><path fill="#FB1" d="M103.516 101.49a14.192 14.192 0 0 1-1.138-1.676l8.031-1.319-8.687.065a14.673 14.673 0 0 1-.28-11.602l11.656 6.046-10.75-7.9a14.64 14.64 0 0 1 15.364-7.037 14.651 14.651 0 0 1 9.664 6.55 14.638 14.638 0 0 1-.844 16.877 14.669 14.669 0 0 1 1.671 2.67l-10.427 5.418 11.117-3.731a14.636 14.636 0 0 1-2.361 13.749 14.645 14.645 0 0 1-3.74 21.463 14.646 14.646 0 0 1-20.941-6.013 14.655 14.655 0 0 1-1.388-7.963 14.653 14.653 0 0 1 3.049-7.487 14.643 14.643 0 0 1 0-18.106l.004-.004Z"/><path fill="#000" d="M129.666 110.543a14.576 14.576 0 0 1-3.13 9.054 14.64 14.64 0 0 1 1.66 15.449 14.637 14.637 0 0 1-13.17 8.245 14.644 14.644 0 0 1-11.511-23.694c-1.963-2.492 26.151-10.696 26.151-9.054Z" opacity=".1"/></g><defs><linearGradient id="b" x1="97.385" x2="97.385" y1="166.193" y2="141.552" gradientUnits="userSpaceOnUse"><stop stop-color="gray" stop-opacity=".25"/><stop offset=".54" stop-color="gray" stop-opacity=".12"/><stop offset="1" stop-color="gray" stop-opacity=".1"/></linearGradient><clipPath id="a"><path fill="#fff" d="M0 25h200v149.424H0z"/></clipPath></defs></svg>