<svg xmlns="http://www.w3.org/2000/svg" width="200" height="200" fill="none"><g clip-path="url(#a)"><path fill="#F2F2F2" d="M170.404 168.442c.874.055 1.357-1.031.696-1.664l-.066-.261.026-.063c.884-2.107 3.878-2.092 4.755.018.777 1.873 1.767 3.749 2.011 5.729a7.63 7.63 0 0 1-.134 2.622 30.57 30.57 0 0 0 2.781-12.696 29.475 29.475 0 0 0-.604-5.961c-.975-4.769-3.087-9.312-6.132-13.106a8.23 8.23 0 0 1-3.423-3.551 6.294 6.294 0 0 1-.571-1.715c.167.022.628-2.516.503-2.672.232-.352.648-.527.901-.871 1.261-1.71 2.999-1.411 3.906.912 1.938.978 1.957 2.6.768 4.16-.757.993-.861 2.336-1.524 3.399.068.087.139.172.207.259a31.094 31.094 0 0 1 3.249 5.146c-.258-2.015.123-4.444.772-6.009.74-1.784 2.125-3.286 3.346-4.828 1.465-1.852 4.471-1.043 4.73 1.304l.007.068a9.007 9.007 0 0 0-.532.326c-.99.654-.648 2.188.524 2.369l.027.004c-.066.653-.178 1.3-.341 1.937 1.565 6.054-1.815 8.259-6.641 8.359-.106.054-.21.109-.317.161.489 1.376.88 2.789 1.169 4.22a30.046 30.046 0 0 1 .519 8.692l.009-.058c.346-1.781 1.313-3.444 2.717-4.597 2.092-1.718 5.047-2.351 7.303-3.732 1.087-.665 2.479.195 2.289 1.454l-.009.06a8.759 8.759 0 0 0-1.513.798c-.99.655-.648 2.188.525 2.369l.026.005.055.008a12.978 12.978 0 0 1-2.385 3.734c-.979 5.285-5.183 5.786-9.68 4.247h-.003a31.723 31.723 0 0 1-2.134 6.228h-7.621c-.027-.084-.051-.172-.076-.256a8.716 8.716 0 0 0 2.109-.126c-.566-.694-1.131-1.393-1.697-2.087a.637.637 0 0 1-.035-.041c-.287-.355-.576-.707-.863-1.063a12.72 12.72 0 0 1 .371-3.231Z"/><path fill="#CCC" d="M65.652 175.223c0 .279.224.504.503.504h133.342a.502.502 0 1 0 0-1.007H66.155a.502.502 0 0 0-.503.503Z"/><path fill="#E6E6E6" d="m115.744 138.856-2.06 1.654-.66.533a3.407 3.407 0 0 0-2.744-1.391H93.752a3.11 3.11 0 0 1 1.117-3.012l11.609-9.325a3.126 3.126 0 0 1 4.398.482l5.35 6.661a3.126 3.126 0 0 1-.482 4.398Z"/><path fill="#FB1" d="M112.285 139.652h-20.41c-.533 0-1.053.127-1.519.363l-.114-.088a3.014 3.014 0 0 1-.533-.525 3.124 3.124 0 0 1-.042-3.861l5.206-6.775a3.132 3.132 0 0 1 4.39-.575l11.804 9.071a3.095 3.095 0 0 1 1.218 2.39Z"/><path fill="#3F3D56" d="M128.981 34.768H8.044C3.607 34.768 0 38.376 0 42.812v124.744c0 4.436 3.607 8.044 8.044 8.044H128.98c4.437 0 8.044-3.608 8.044-8.044V42.812c0-4.436-3.607-8.044-8.044-8.044Zm7.198 132.788a7.204 7.204 0 0 1-7.198 7.198H8.044a7.203 7.203 0 0 1-7.198-7.198V42.812a7.203 7.203 0 0 1 7.198-7.198H128.98a7.204 7.204 0 0 1 7.198 7.198v124.744Z"/><path fill="#E6E6E6" d="M54.569 42.952H42.702a1.085 1.085 0 0 0 0 2.17h11.867a1.086 1.086 0 0 0 0-2.17ZM74.446 42.952H62.579a1.085 1.085 0 0 0 0 2.17h11.867a1.086 1.086 0 0 0 0-2.17ZM94.323 42.952H82.456a1.085 1.085 0 0 0 0 2.17h11.867a1.086 1.086 0 0 0 0-2.17Z"/><path fill="#F2F2F2" d="M37.047 64.584H22.162a3.343 3.343 0 0 0-3.341 3.341v8.543a3.343 3.343 0 0 0 3.34 3.341h14.887a3.343 3.343 0 0 0 3.342-3.341v-8.543a3.343 3.343 0 0 0-3.342-3.341Z"/><path fill="#E6E6E6" d="M37.047 86.999H22.162a3.343 3.343 0 0 0-3.341 3.34v8.543a3.343 3.343 0 0 0 3.34 3.342h14.887a3.343 3.343 0 0 0 3.342-3.342V90.34a3.343 3.343 0 0 0-3.342-3.341ZM37.047 109.413H22.162a3.343 3.343 0 0 0-3.341 3.341v8.543a3.343 3.343 0 0 0 3.34 3.341h14.887a3.343 3.343 0 0 0 3.342-3.341v-8.543a3.343 3.343 0 0 0-3.342-3.341ZM70.035 64.584H55.148a3.343 3.343 0 0 0-3.34 3.341v8.543a3.343 3.343 0 0 0 3.34 3.341h14.887a3.343 3.343 0 0 0 3.34-3.341v-8.543a3.343 3.343 0 0 0-3.34-3.341Z"/><path fill="#F2F2F2" d="M70.035 86.999H55.148a3.343 3.343 0 0 0-3.34 3.34v8.543a3.343 3.343 0 0 0 3.34 3.342h14.887a3.343 3.343 0 0 0 3.34-3.342V90.34a3.343 3.343 0 0 0-3.34-3.341Z"/><path fill="#E6E6E6" d="M103.023 86.999H88.136a3.343 3.343 0 0 0-3.341 3.34v8.543a3.343 3.343 0 0 0 3.341 3.342h14.887a3.343 3.343 0 0 0 3.341-3.342V90.34a3.343 3.343 0 0 0-3.341-3.341Z"/><path fill="#F2F2F2" d="M113.896 150.859H23.129a6.854 6.854 0 0 0-6.847 6.847v6.183a6.853 6.853 0 0 0 6.847 6.847h90.767a6.853 6.853 0 0 0 6.847-6.847v-6.183a6.854 6.854 0 0 0-6.847-6.847Z"/><path fill="#fff" d="M117.068 138.819c-.072-.089-.144-.182-.22-.267a4.255 4.255 0 0 0-3.185-1.438c-7.668 1.139-15.498 1.117-23.48 0-.77 0-1.514.212-2.165.597a4.249 4.249 0 0 0-2.055 4.178l3.708 29.981a4.255 4.255 0 0 0 4.217 3.73h16.071a4.255 4.255 0 0 0 4.216-3.73l3.709-29.981a4.256 4.256 0 0 0-.816-3.07Z"/><path fill="#3F3D56" d="M117.068 138.819c-.072-.089-.144-.182-.22-.267a4.255 4.255 0 0 0-3.185-1.438c-7.826.839-15.653.839-23.48 0-.77 0-1.514.212-2.165.597a4.249 4.249 0 0 0-2.055 4.178l3.708 29.981a4.25 4.25 0 0 0 4.2 3.73h16.088a4.256 4.256 0 0 0 4.216-3.73l3.709-29.981a4.256 4.256 0 0 0-.816-3.07Zm-.026 2.964-3.704 29.981c0 .008-.005.021-.005.029a3.41 3.41 0 0 1-3.374 2.961H93.888a3.41 3.41 0 0 1-3.375-2.961c0-.008-.004-.021-.004-.029l-3.705-29.981a3.409 3.409 0 0 1 .829-2.673 3.34 3.34 0 0 1 1.032-.786 3.346 3.346 0 0 1 1.518-.364 60.903 60.903 0 0 0 23.48 0 3.413 3.413 0 0 1 2.745 1.391c.512.698.74 1.57.634 2.432Z"/><path fill="#3F3D56" d="m113.765 171.793-.22 1.832a4.256 4.256 0 0 1-3.586 1.975H93.871a4.25 4.25 0 0 1-3.316-1.616l-.05-2.191h23.26Z"/><path fill="#A0616A" d="m130.695 73.602-20.243 13.911-2.495-2.698 18.621-15.603 4.117 4.39Z"/><path fill="#A0616A" d="M108.892 89.884c1.992-1.6 2.837-3.857 1.887-5.04-.95-1.183-3.335-.844-5.328.756-1.992 1.6-2.837 3.856-1.887 5.039.95 1.183 3.335.845 5.328-.755ZM141.088 173.294h-3.846l-1.83-14.836h5.677l-.001 14.836Z"/><path fill="#2F2E41" d="M127.91 173.207c-.12.202-.183.853-.183 1.087 0 .721.585 1.306 1.306 1.306h11.911a.891.891 0 0 0 .891-.891v-.496s.589-1.49-.624-3.328c0 0-1.508 1.439-3.761-.814l-.664-1.204-4.81 3.518-2.666.328c-.583.071-1.1-.011-1.4.494Z"/><path fill="#A0616A" d="M154.087 173.294h-3.847l-1.829-14.836h5.677l-.001 14.836Z"/><path fill="#2F2E41" d="M140.909 173.207c-.12.202-.183.853-.183 1.087 0 .721.584 1.306 1.305 1.306h11.912a.89.89 0 0 0 .89-.891v-.496s.59-1.49-.624-3.328c0 0-1.507 1.439-3.76-.814l-.665-1.204-4.809 3.518-2.666.328c-.583.071-1.1-.011-1.4.494ZM134.468 90.601l-4.406 42.3s3.084 28.861 3.745 28.861 1.322.545.661 1.154c-.661.609-1.542 1.049-.661 1.049s.988-.268.935.637c-.054.906-.715 1.567-.715 1.567l9.033-.661-1.102-29.522 4.186-23.574s1.322 49.13 1.763 49.571c.441.44.441-.661.441.44 0 1.102-.441 1.543-.441 1.543l-.021 2.203h6.557l9.327-61.248-1.543-15.422-27.759 1.102Z"/><path fill="#FB1" d="M156.058 44.996h-7.931l-4.758 1.191c-2.57 1.526-7.177 6.067-7.061 9.053l1.024 26.328s-3.505 8.26-2.844 8.26-2.554 2.646-2.554 4.188c0 1.542-1.102 1.322-.441 1.983.661.66 32.276 0 32.276 0s.331-.661.331-1.763c0-1.101.656-1.757.656-1.757V90.41l-1.978-7.19 3.525-32.165-10.245-6.059Z"/><path fill="#FB1" d="m116.473 77.129 2.701 4.676c1.474-.893 8.598-5.173 9.83-5.272.464-.038.568-.125.589-.151.021-.026.015-.083.002-.175-.019-.142-.048-.357.118-.54.245-.269.459-.107.562-.03.16.122.429.324 1.295.201.222-.031.361-.058.449-.079l-.01-.009c-.189-.178-.505-.476-.528-.954-.021-.428-.026-.543.13-.617.144-.067.257.034.323.094.113.103.299.271.682.257.978-.32 10.074-13.453 11.849-18.684.443-1.303.388-2.513-.162-3.595-1.054-2.076-3.636-3.115-4.273-3.345l-12.911 18.12-10.646 10.103Z"/><path fill="#A0616A" d="M152.233 43.3a8.543 8.543 0 0 0 0-17.086 8.543 8.543 0 1 0 0 17.087Z"/><path fill="#2F2E41" d="M162.569 29.565c-.751-1.61-2.415-2.86-4.189-2.77.107-.446-.091-.925-.41-1.256-.319-.33-.743-.538-1.168-.712a11.254 11.254 0 0 0-6.686-.557c-.222-.307-3.384.47-3.006.635.378.165-1.004.559-1.069.966-.072.447-.545.72-.991.79-.447.07-.908.002-1.352.086-.895.17.107 1.271.094 2.182-.013.91-1.039 1.535-.149 1.73.918.203-.352 1.829.572 1.653 2.089-.397 11.215-1.243 12.027.723.226.546.367 1.164.81 1.555.604.531 1.609.488 2.102 1.123.398.512.284 1.263-.01 1.84-.295.578-.742 1.07-1.009 1.66-.357.793-.355 1.675-.253 2.551.079-.041.201-.082.382-.124l-.078.01a12.345 12.345 0 0 0 4.651-6.867c.439-1.721.482-3.608-.268-5.218Z"/><path fill="#FB1" d="M168.576 100.743h-14.889a3.128 3.128 0 0 0-3.128 3.129v8.545c0 1.728 1.4 3.129 3.128 3.129h14.889a3.128 3.128 0 0 0 3.128-3.129v-8.545c0-1.728-1.4-3.129-3.128-3.129Z"/><path fill="#A0616A" d="m171.544 76.856-8.446 23.064-3.597-.754 6.145-23.505 5.898 1.195Z"/><path fill="#A0616A" d="M163.199 102.756c.698-2.459.08-4.787-1.38-5.201-1.46-.414-3.208 1.243-3.906 3.701-.697 2.458-.079 4.787 1.38 5.201 1.46.414 3.209-1.243 3.906-3.701Z"/><path fill="#FB1" d="M157.748 46.187s9.216 1.563 11.419 6.63c2.203 5.068 4.406 21.37 3.745 22.032-.661.66-1.322 0-.661.66.661.662 1.781-.21.781.997-1.001 1.207-1.442.546-1.442.986 0 .441.882.321 0 1.262-.881.941-3.745 10.635-3.745 10.635l-5.508-1.762 1.102-14.761-5.691-26.679Z"/><path fill="#3F3D56" d="M113.596 88.479H98.708a3.129 3.129 0 0 0-3.129 3.128v8.545c0 1.728 1.4 3.129 3.129 3.129h14.888a3.13 3.13 0 0 0 3.129-3.129v-8.545a3.129 3.129 0 0 0-3.129-3.128ZM86.704 142.612l-.011.846 30.37.383.01-.846-30.37-.383Z"/></g><defs><clipPath id="a"><path fill="#fff" d="M0 24h200v151.727H0z"/></clipPath></defs></svg>