<svg xmlns="http://www.w3.org/2000/svg" width="200" height="200" fill="none"><g clip-path="url(#a)"><path fill="#FB1" d="M200 118.274a31.57 31.57 0 0 1-4.566 16.413c0 6.052-2.822 11.538-7.399 15.537a25.261 25.261 0 0 1-3.846 2.772l-.296.175-.092.054a28.768 28.768 0 0 1-14.175 3.64H37.966c-9.078 0-17.296-3.161-23.25-8.269-5.955-5.108-9.625-12.178-9.625-19.975a31.558 31.558 0 0 1-5.09-17.25c0-17.333 13.852-31.383 30.943-31.383.605 0 1.205.02 1.8.054C43.47 61.755 67.658 49.003 95.76 49.003c17.276 0 33.068 4.817 45.164 12.775a30.453 30.453 0 0 1 15.021-3.942c17.088 0 30.944 14.05 30.944 31.382a32.151 32.151 0 0 1-.175 3.284A31.462 31.462 0 0 1 200 118.274Z" opacity=".1"/><path fill="#FB1" d="M72.203 128.185c37.849 0 68.531-.822 68.531-1.835 0-1.014-30.682-1.836-68.531-1.836-37.849 0-68.532.822-68.532 1.836 0 1.013 30.683 1.835 68.532 1.835Z" opacity=".1"/><g opacity=".7"><path fill="#65617D" d="M46.678 112.801H24.825v12.063h21.853v-12.063Z"/><path fill="#000" d="M39.16 114.899h-6.642v1.398h6.643v-1.398Z" opacity=".1"/><path fill="#000" d="M38.33 115.073h-4.982v1.049h4.983v-1.049Z" opacity=".1"/><path fill="#65617D" d="M68.881 112.801H47.028v12.063H68.88v-12.063Z"/><path fill="#000" d="M61.364 114.899H54.72v1.398h6.644v-1.398Z" opacity=".1"/><path fill="#000" d="M60.533 115.073h-4.982v1.049h4.982v-1.049Z" opacity=".1"/><path fill="#65617D" d="M46.678 100.388H24.825v12.063h21.853v-12.063Z"/><path fill="#000" d="M39.16 102.486h-6.642v1.399h6.643v-1.399Z" opacity=".1"/><path fill="#000" d="M38.33 102.661h-4.982v1.049h4.983v-1.049Z" opacity=".1"/><path fill="#65617D" d="M68.881 100.388H47.028v12.063H68.88v-12.063Z"/><path fill="#000" d="M61.364 102.486H54.72v1.399h6.644v-1.399Z" opacity=".1"/><path fill="#000" d="M60.533 102.661h-4.982v1.049h4.982v-1.049Z" opacity=".1"/><path fill="#65617D" d="M46.678 87.8H24.825v12.064h21.853V87.8Z"/><path fill="#000" d="M39.16 89.899h-6.642v1.398h6.643V89.9Z" opacity=".1"/><path fill="#000" d="M38.33 90.073h-4.982v1.05h4.983v-1.05Z" opacity=".1"/><path fill="#65617D" d="M68.881 87.8H47.028v12.064H68.88V87.8Z"/><path fill="#000" d="M61.364 89.899H54.72v1.398h6.644V89.9Z" opacity=".1"/><path fill="#000" d="M60.533 90.073h-4.982v1.05h4.982v-1.05Z" opacity=".1"/><path fill="#65617D" d="M68.881 75.213H47.028v12.063H68.88V75.213Z"/><path fill="#000" d="M61.364 77.311H54.72v1.399h6.644V77.31Z" opacity=".1"/><path fill="#000" d="M60.533 77.486h-4.982v1.049h4.982v-1.049Z" opacity=".1"/></g><g opacity=".7"><path fill="#65617D" d="M91.084 112.626H69.231v12.063h21.853v-12.063Z"/><path fill="#000" d="M83.567 114.724h-6.644v1.398h6.644v-1.398Z" opacity=".1"/><path fill="#000" d="M82.736 114.899h-4.982v1.049h4.982v-1.049Z" opacity=".1"/><path fill="#65617D" d="M113.287 112.626H91.434v12.063h21.853v-12.063Z"/><path fill="#000" d="M105.769 114.724h-6.643v1.398h6.643v-1.398Z" opacity=".1"/><path fill="#000" d="M104.939 114.899h-4.982v1.049h4.982v-1.049Z" opacity=".1"/><path fill="#65617D" d="M91.084 100.213H69.231v12.063h21.853v-12.063Z"/><path fill="#000" d="M83.567 102.311h-6.644v1.399h6.644v-1.399Z" opacity=".1"/><path fill="#000" d="M82.736 102.486h-4.982v1.049h4.982v-1.049Z" opacity=".1"/><path fill="#65617D" d="M113.287 100.213H91.434v12.063h21.853v-12.063Z"/><path fill="#000" d="M105.769 102.311h-6.643v1.399h6.643v-1.399Z" opacity=".1"/><path fill="#000" d="M104.939 102.486h-4.982v1.049h4.982v-1.049Z" opacity=".1"/><path fill="#65617D" d="M91.084 87.626H69.231v12.063h21.853V87.626Z"/><path fill="#000" d="M83.567 89.724h-6.644v1.398h6.644v-1.398Z" opacity=".1"/><path fill="#000" d="M82.736 89.899h-4.982v1.049h4.982v-1.05Z" opacity=".1"/><path fill="#65617D" d="M113.287 87.626H91.434v12.063h21.853V87.626Z"/><path fill="#000" d="M105.769 89.724h-6.643v1.398h6.643v-1.398Z" opacity=".1"/><path fill="#000" d="M104.939 89.899h-4.982v1.049h4.982v-1.05Z" opacity=".1"/><path fill="#65617D" d="M113.287 75.039H91.434v12.063h21.853V75.038Z"/><path fill="#000" d="M105.769 77.136h-6.643v1.4h6.643v-1.4Z" opacity=".1"/><path fill="#000" d="M104.939 77.311h-4.982v1.05h4.982v-1.05Z" opacity=".1"/></g><path fill="#FB1" d="M153.547 43.02s-14.718-.889-12.988 9.426c0 0-.349 1.823 1.308 2.65 0 0 .026-.764 1.511-.503a6.899 6.899 0 0 0 1.599.076 3.334 3.334 0 0 0 1.955-.807s4.138-1.71 5.746-8.472c0 0 1.191-1.476 1.144-1.855l-2.485 1.061s.85 1.792.175 3.282c0 0-.08-3.217-.557-3.147-.097.015-1.291.62-1.291.62s1.46 3.121.359 5.39c0 0 .418-3.846-.815-5.164l-1.748 1.02s1.706 3.225.549 5.856c0 0 .297-4.035-.918-5.607l-1.584 1.236s1.603 3.178.626 5.36c0 0-.128-4.697-.969-5.052 0 0-1.386 1.224-1.598 1.724 0 0 1.098 2.307.417 3.524 0 0-.418-3.13-.761-3.147 0 0-1.381 2.074-1.524 3.497 0 0 .059-2.116 1.19-3.694 0 0-1.336.229-2.115 1.096 0 0 .215-1.467 2.456-1.595 0 0 1.142-1.573 1.446-1.67 0 0-2.227-.184-3.579.413 0 0 1.189-1.382 3.988-.753l1.565-1.278s-2.934-.4-4.179.042c0 0 1.432-1.224 4.6-.33l1.706-1.011s-2.502-.538-3.991-.35c0 0 1.573-.848 4.491.072l1.224-.547s-1.832-.36-2.369-.418c-.537-.058-.565-.205-.565-.205a6.358 6.358 0 0 1 3.443.383s2.584-.961 2.538-1.124ZM135.394 45.644s-6.644-.403-5.866 4.26c0 0-.155.823.589 1.197 0 0 .013-.35.684-.228.238.04.481.051.722.035a1.5 1.5 0 0 0 .883-.366s1.87-.77 2.598-3.827c0 0 .536-.668.515-.839l-1.122.479s.385.811.082 1.484c0 0-.036-1.454-.251-1.42-.044 0-.584.28-.584.28s.66 1.411.162 2.438c0 0 .189-1.738-.369-2.334l-.79.461s.773 1.456.248 2.645c0 0 .135-1.823-.414-2.533l-.715.558s.724 1.437.283 2.423c0 0-.058-2.124-.439-2.283 0 0-.626.552-.722.78 0 0 .497 1.048.189 1.59 0 0-.189-1.414-.349-1.42 0 0-.623.938-.689 1.574.031-.594.216-1.17.538-1.67-.36.069-.692.24-.956.495 0 0 .098-.66 1.11-.72 0 0 .524-.71.654-.754 0 0-1.007-.084-1.617.188 0 0 .536-.626 1.802-.341l.699-.577s-1.325-.175-1.888.019c0 0 .647-.553 2.079-.15l.769-.46s-1.129-.245-1.804-.156c0 0 .712-.385 2.03.032l.55-.247s-.828-.164-1.071-.189c-.243-.024-.255-.092-.255-.092a2.863 2.863 0 0 1 1.555.175s1.181-.434 1.16-.508Z" opacity=".1"/><path fill="#FB1" d="M39.194 155.72c3.883 0 7.03-.532 7.03-1.188 0-.657-3.147-1.189-7.03-1.189-3.882 0-7.03.532-7.03 1.189 0 .656 3.148 1.188 7.03 1.188Z"/><path fill="#FB1" d="M42.102 152.587c.32-.261.554-.614.67-1.012.087-.4-.085-.874-.47-1.03-.43-.164-.89.135-1.237.436-.348.3-.748.645-1.203.58a1.834 1.834 0 0 0 .566-1.715.724.724 0 0 0-.157-.35c-.24-.255-.671-.146-.958.055-.91.639-1.163 1.875-1.168 2.986-.09-.401-.014-.819-.016-1.224-.001-.406-.115-.874-.463-1.089a1.386 1.386 0 0 0-.7-.165c-.407-.015-.863.027-1.14.326-.35.37-.258.993.043 1.398.3.406.76.666 1.184.948.338.201.627.477.844.806a.719.719 0 0 1 .063.145h2.563a7.112 7.112 0 0 0 1.578-1.095Z"/><path fill="#3F3D56" d="M125.413 102.792a.802.802 0 0 0-.436-.626.803.803 0 0 0-.634-.001.81.81 0 0 0-.442.456l-3.883 8.169-.874 32.168h1.398l.525-32.096 4.272-7.563a.83.83 0 0 0 .074-.507Z"/><path fill="#FB1" d="M188.035 150.224a25.27 25.27 0 0 1-3.686 2.676.584.584 0 0 1-.068.081c-.138.117-.303.2-.48.241a28.782 28.782 0 0 1-14.175 3.64H73.503c-11.014-1.133-17.734-2.635-17.734-4.283 0-1.278 4.035-2.469 10.983-3.465a113.074 113.074 0 0 1 3.73-.479l.855-.1c.634-.072 1.285-.143 1.953-.212h.054l.7-.069c.59-.062 1.194-.119 1.809-.175l.448-.041 1.141-.101c.741-.066 1.499-.13 2.273-.19a492.24 492.24 0 0 1 1.958-.151c6.724-.498 14.475-.874 22.911-1.117l2.409-.082.811-.018 1.713-.038.687-.014.722-.014.514-.009 2.413-.038 1.239-.018h.254c2.931-.035 5.917-.053 8.958-.054 6.011 0 11.839.072 17.393.208 3.189.077 6.281.175 9.275.294H151c8.633.339 16.36.839 22.755 1.46l.117.012c1.642.159 3.196.329 4.654.503 1.372.165 2.661.338 3.857.514.414.062.816.124 1.208.186l.099.017c1.658.268 3.112.54 4.345.836Z" opacity=".1"/><path fill="url(#b)" d="M184.349 152.9a.584.584 0 0 1-.068.081 1.14 1.14 0 0 1-.481.241 4.848 4.848 0 0 1-1.083.175h-.111c-.209.007-.419 0-.627-.021a2.946 2.946 0 0 0-.46-.03h-.021a3.296 3.296 0 0 0-.656.163c-.473.129-.96.199-1.451.206h-.174c-.549 0-1.105-.019-1.656-.016h-.268c-.944.025-1.882.175-2.826.191h-.303c-.925-.023-1.871-.22-2.607-.78a1.035 1.035 0 0 1-.349-.391 1.093 1.093 0 0 1-.061-.525c.017-.316.078-.661.316-.874.15-.115.321-.197.504-.243.319-.103.641-.203.961-.303.32-.099.685-.206 1.03-.307l.066-.021.193-.058.124-.042c.15-.048.294-.114.43-.196.178-.113.329-.264.442-.442.019-.031.04-.065.058-.098.017-.033 0-.054-.012-.082-.03-.219-.053-.442-.091-.656a2.619 2.619 0 0 1-1.292-.73 4.169 4.169 0 0 1-.754-1.02c-.435-.818-.659-1.732-.984-2.601-.498-1.322-1.224-2.542-1.955-3.752-.667-1.115-1.339-2.234-2.098-3.288-.505-.7-1.049-1.366-1.549-2.067a18.363 18.363 0 0 1-2.986-6.521 8.712 8.712 0 0 0-.361-1.325c-.301-.734-.852-1.332-1.278-2.003a6.629 6.629 0 0 1-.925-2.373c-.088-.479-.234-.996-.712-1.049l-.05.1c-.99 1.923-2.006 3.881-3.497 5.451a5.814 5.814 0 0 0-.652.75c-.157.26-.297.53-.42.808a5.234 5.234 0 0 1-.928 1.358 2.712 2.712 0 0 1-.367.31 1.977 1.977 0 0 1-.575.288 1.604 1.604 0 0 1-.249.056c0 .021.009.04.011.061.002.021.01.046.014.068a8.219 8.219 0 0 1-.598 4.885c-.213.463-.467.907-.666 1.378-.033.08-.066.16-.096.241-.699 1.872-.525 3.963-.616 5.975a6.62 6.62 0 0 1-.155 1.308c-.119.484-.31.984-.414 1.484a2.503 2.503 0 0 0-.023 1.145l-.042.016c-.187.07-.378.133-.568.192v.027l.202 1.173c.058.335.126.699.361.937.063.052.122.111.174.175.139.216.016.503.042.76.039.364.374.673.322 1.035a.693.693 0 0 1-.144.294.701.701 0 0 1-.265.192 1.205 1.205 0 0 1-.269.086l-.058.012c-.105.019-.21.03-.315.04-1.302.13-2.622.259-3.912.039-.255-.044-.509-.102-.768-.123a5.722 5.722 0 0 0-.979.041c-2.393.226-4.8.273-7.201.139-.624-.035-1.341-.136-1.671-.669-.275-.443-.175-1.014-.037-1.519.04-.186.111-.364.212-.525a.357.357 0 0 1 .038-.049c.322-.4.927-.425 1.448-.409l1.703.051c.167.013.336 0 .5-.039.276-.08.486-.3.744-.425.325-.155.735-.174.969-.44l.03-.039c.041-.056.079-.114.115-.174 0-.013.016-.025.024-.037l.021-.032c.215-.283.591-.377.897-.557a.863.863 0 0 0 .131-.093l.035-.031a3.59 3.59 0 0 1-.849-.855.853.853 0 0 1-.194-.339.479.479 0 0 1 .021-.285.311.311 0 0 1 .028-.065l.008-.018c.119-.234.364-.445.499-.685a.108.108 0 0 0 .012-.024c.185-.35.222-.892-.053-1.173.14-2.303.773-4.546.913-6.855.056-.915.033-1.833.075-2.75.042-.918.14-1.808.243-2.708.231-2.058.79-4.074.712-6.14a3.704 3.704 0 0 1 .024-.577.294.294 0 0 1 0-.042c.056-.424.188-.833.39-1.21.253-.425.54-.83.858-1.21 1.076-1.398 2.367-2.797 2.75-4.517.198-.888.635-1.701 1.07-2.5.257-.476.525-.963.936-1.313.222-.154.429-.33.617-.525.286-.37.297-.882.467-1.323.087-.229.222-.439.288-.675 0-.024.012-.047.017-.072.039-.238.06-.479.062-.72 0-.07.01-.138.019-.206a7.307 7.307 0 0 1 .596-1.998c.037-.081.072-.163.107-.243a7.499 7.499 0 0 1-2.098-1.82 4.281 4.281 0 0 1-.509-.768c-.36-.715-.442-1.529-.612-2.313-.405-1.867-1.334-3.626-1.463-5.535-.039-.582 0-1.183-.203-1.734a3.594 3.594 0 0 0-.197-.434l-.093-.174-.035-.067-.089-.175-.144.112a104.646 104.646 0 0 1-11.241 7.679l-.336.199a1.224 1.224 0 0 0-.444.364c-.014.022-.026.045-.038.068-.08.166-.101.349-.175.524-.157.401-.561.656-.974.775a3.005 3.005 0 0 1-2.211-.285c-.086-.044-.175-.089-.252-.14-.204.113-.42.205-.643.274-.7.203-1.432.194-2.156.193-.724-.002-1.463 0-2.149.237-.458.156-.902.413-1.377.437-.055.004-.11.004-.164 0a2.362 2.362 0 0 1-.78-.229l-.144-.064a2.497 2.497 0 0 1-.216-.117 1.223 1.223 0 0 1-.212-.166.781.781 0 0 1-.196-.334.569.569 0 0 1 0-.278.176.176 0 0 1 .06-.105.178.178 0 0 1 .103-.026c.2-.003.401.014.598.05.116.016.233.023.349.019h.063a.753.753 0 0 0 .525-.297.323.323 0 0 0 .045-.084.395.395 0 0 0 .032-.195c-.074-.034-.147-.067-.217-.107-.037-.019-.072-.04-.107-.061l-.021-.014a1.274 1.274 0 0 1-.174-.145.69.69 0 0 1-.09-.112.696.696 0 0 1-.103-.21.94.94 0 0 0-.435.012c-.191.053-.383.165-.572.203a.505.505 0 0 1-.288-.012c-.273-.098-.369-.43-.427-.715-.01-.054-.022-.11-.031-.166a.893.893 0 0 1 0-.326c.084-.244.246-.454.46-.599l.573-.481.042-.035c0-.047-.019-.094-.026-.142a.893.893 0 0 1 0-.326c.084-.244.246-.454.46-.598l1.269-1.069c.238-.199.496-.409.806-.43.459-.031.827.35 1.171.656.434.385.96.699 1.538.738.276.012.552-.026.813-.112l.149-.049c-.031-.065-.063-.129-.093-.194-.05-.107-.101-.215-.15-.324.745-.047 1.421-.456 1.986-.945.565-.49 1.049-1.069 1.619-1.55.615-.524 1.322-.914 1.946-1.419 1.451-1.177 2.414-2.906 3.966-3.942.539-.362 1.161-.65 1.528-1.189.114-.175.2-.35.317-.525.372-.524 1.01-.765 1.537-1.129.526-.363.984-.897 1.412-1.409.304-.365.61-.73.901-1.107.267-.498.493-1.019.772-1.51.238-.415.515-.806.827-1.168.072-.14.145-.28.224-.416.079-.136.136-.229.21-.35.05-.078.103-.153.157-.23a10.716 10.716 0 0 0-.383-.632l-.035-.047a5.234 5.234 0 0 0-.493-.461 5.098 5.098 0 0 1-4.293-5.056 5.059 5.059 0 0 1 .793-2.72 1.577 1.577 0 0 1-.232-.095.915.915 0 0 1-.325-.267.763.763 0 0 1-.135-.34c-.03-.288.014-.579.126-.846a4.269 4.269 0 0 1 .175-.4c.781-1.574 2.447-2.54 4.112-2.609 1.795-.071 3.543.772 4.959 1.978a6.62 6.62 0 0 1 1.126 1.183c.74 1.028 1.074 2.343 1.172 3.645a5.69 5.69 0 0 1-.021 1.21 2.904 2.904 0 0 1-.172.67c-.031.082-.05.119-.078.175v.008a2.584 2.584 0 0 1-.086.161l-.016.023-.023.037.046.101c.016.033.03.065.047.096h.021c.35.028.673.077 1.03.105.168.008.334.034.496.077.35.105.614.36.908.566.727.515 1.622.754 2.337 1.285 1.049.784 1.573 2.077 2.21 3.236.839 1.553 2.206 2.875 2.809 4.535.273.754.547 1.507.822 2.26.537 1.473 1.073 2.954 1.802 4.344 1.014 1.933 2.387 3.67 3.2 5.702.08.204.232.372.426.472a37.08 37.08 0 0 1 2.946 4.929c.449.907.874 1.849 1.005 2.855a6.881 6.881 0 0 1-.218 2.667c-.14.515-.311 1.021-.512 1.514a2.46 2.46 0 0 0-.175.541v.057c-.035.336.092.668.127 1.004.03.27-.001.543-.089.801l-.045.12c-.109.205-.2.417-.275.637a.704.704 0 0 0-.014.08c-.057.379.093.762.175 1.142.308 1.37.252 2.797.175 4.195-.04.7.524 1.261.996 1.777.875.966 1.558 2.097 2.217 3.223.36.572.663 1.177.904 1.808.25.72.35 1.483.488 2.229.446 2.308 1.902 4.346 2.297 6.659a5.945 5.945 0 0 0 1.351 2.864c.212.218.406.452.583.699.121.197.218.409.288.629.172.515.253 1.055.24 1.597a2.41 2.41 0 0 0 .043.776c.165.537.752.832.995 1.337.243.506.075 1.152.175 1.726.078.462.328.878.699 1.164-.14.123-.287.234-.437.35.139.108.261.236.362.381.069.097.127.2.175.309.231.537.238 1.175.426 1.749.081.237.194.489.125.73a.813.813 0 0 0-.06.217c0 .157.164.261.227.404a.433.433 0 0 1-.091.421Z"/><path fill="#FBBEBE" d="M147.35 84.718c1.069-.288 2.022-.891 2.956-1.487l3.253-2.072c-.883-.07-1.645-.7-2.098-1.462-.452-.762-.639-1.648-.793-2.519-1.399.546-2.61 1.47-3.74 2.448-.447.386-1.398.97-1.536 1.573-.139.603.743 1.093 1.083 1.497.118.134 1.221 1.926.875 2.022Z"/><path fill="#000" d="M147.35 84.718c1.069-.288 2.022-.891 2.956-1.487l3.253-2.072c-.883-.07-1.645-.7-2.098-1.462-.452-.762-.639-1.648-.793-2.519-1.399.546-2.61 1.47-3.74 2.448-.447.386-1.398.97-1.536 1.573-.139.603.743 1.093 1.083 1.497.118.134 1.221 1.926.875 2.022Z" opacity=".1"/><path fill="#FBBEBE" d="M129.571 101.83c-.573.294-1.183.595-1.825.553-.577-.037-1.103-.35-1.536-.733-.35-.304-.71-.683-1.17-.652-.308.021-.566.229-.804.427l-1.268 1.061a1.191 1.191 0 0 0-.459.594c-.026.165-.015.333.029.493.058.284.154.614.427.71.273.096.57-.11.858-.189a1.016 1.016 0 0 1 .991.292.588.588 0 0 1 .175.381c0 .317-.349.525-.671.541-.322.015-.629-.09-.948-.07a.138.138 0 0 0-.057.004.143.143 0 0 0-.105.125.66.66 0 0 0 .204.608c.166.152.36.271.57.35.245.121.509.198.78.227.537.035 1.03-.262 1.538-.435.686-.231 1.424-.238 2.147-.236.724.002 1.458.012 2.152-.191.694-.202 1.354-.652 1.625-1.321a.317.317 0 0 0 .029-.203.337.337 0 0 0-.147-.175c-.975-.722-1.37-1.599-2.468-2.119l-.067-.042Z"/><path fill="#000" d="M129.571 101.83c-.573.294-1.183.595-1.825.553-.577-.037-1.103-.35-1.536-.733-.35-.304-.71-.683-1.17-.652-.308.021-.566.229-.804.427l-1.268 1.061a1.191 1.191 0 0 0-.459.594c-.026.165-.015.333.029.493.058.284.154.614.427.71.273.096.57-.11.858-.189a1.016 1.016 0 0 1 .991.292.588.588 0 0 1 .175.381c0 .317-.349.525-.671.541-.322.015-.629-.09-.948-.07a.138.138 0 0 0-.057.004.143.143 0 0 0-.105.125.66.66 0 0 0 .204.608c.166.152.36.271.57.35.245.121.509.198.78.227.537.035 1.03-.262 1.538-.435.686-.231 1.424-.238 2.147-.236.724.002 1.458.012 2.152-.191.694-.202 1.354-.652 1.625-1.321a.317.317 0 0 0 .029-.203.337.337 0 0 0-.147-.175c-.975-.722-1.37-1.599-2.468-2.119l-.067-.042Z" opacity=".1"/><path fill="#FB1" d="M150.044 83.185a2.116 2.116 0 0 0-1.85-.215 3.995 3.995 0 0 0-1.593 1.061 7.335 7.335 0 0 0-1.124 1.485c-.297.524-.524 1.073-.822 1.596-.524.935-1.209 1.76-1.898 2.579-.429.508-.862 1.024-1.411 1.398-.549.374-1.163.603-1.535 1.123-.117.164-.201.35-.316.515-.366.535-.986.822-1.527 1.18-1.549 1.032-2.512 2.749-3.959 3.918-.625.504-1.329.899-1.943 1.413-.571.477-1.049 1.049-1.619 1.538-.57.49-1.239.894-1.982.939.496 1.107 1.089 2.192 1.94 3.054.852.862 2.128 1.413 3.291 1.075.412-.119.816-.37.973-.769.05-.205.119-.404.207-.596.116-.154.268-.278.442-.362a104.466 104.466 0 0 0 13.306-9.218c1.124-.916 2.239-1.737 3.393-2.623a7.39 7.39 0 0 0 1.142-1 3.802 3.802 0 0 0 .461-4.187 9.94 9.94 0 0 0-1.059-1.435 12.615 12.615 0 0 0-2.517-2.469Z"/><path fill="#000" d="M150.044 83.185a2.116 2.116 0 0 0-1.85-.215 3.995 3.995 0 0 0-1.593 1.061 7.335 7.335 0 0 0-1.124 1.485c-.297.524-.524 1.073-.822 1.596-.524.935-1.209 1.76-1.898 2.579-.429.508-.862 1.024-1.411 1.398-.549.374-1.163.603-1.535 1.123-.117.164-.201.35-.316.515-.366.535-.986.822-1.527 1.18-1.549 1.032-2.512 2.749-3.959 3.918-.625.504-1.329.899-1.943 1.413-.571.477-1.049 1.049-1.619 1.538-.57.49-1.239.894-1.982.939.496 1.107 1.089 2.192 1.94 3.054.852.862 2.128 1.413 3.291 1.075.412-.119.816-.37.973-.769.05-.205.119-.404.207-.596.116-.154.268-.278.442-.362a104.466 104.466 0 0 0 13.306-9.218c1.124-.916 2.239-1.737 3.393-2.623a7.39 7.39 0 0 0 1.142-1 3.802 3.802 0 0 0 .461-4.187 9.94 9.94 0 0 0-1.059-1.435 12.615 12.615 0 0 0-2.517-2.469Z" opacity=".1"/><path fill="#3F3D56" d="M142.532 148.04c-.306.175-.682.273-.897.556-.07.091-.117.198-.193.285-.232.273-.645.285-.968.441-.259.122-.469.349-.743.421-.164.039-.334.052-.502.039l-1.699-.051c-.539-.016-1.17.012-1.483.451a1.608 1.608 0 0 0-.213.524c-.131.502-.238 1.07.037 1.511.328.524 1.049.631 1.669.666 2.398.133 4.802.086 7.193-.14a5.67 5.67 0 0 1 .975-.04c.259.021.512.079.768.122 1.288.219 2.606.091 3.907-.038.22-.011.437-.057.642-.137a.674.674 0 0 0 .407-.484c.054-.36-.283-.666-.32-1.028-.026-.255.096-.54-.044-.757a1.308 1.308 0 0 0-.174-.175c-.235-.243-.303-.598-.361-.93l-.306-1.795a.55.55 0 0 0-.146-.339.498.498 0 0 0-.217-.089c-1.332-.301-2.698-.027-4.021.141-.681.1-1.37.135-2.058.103-.297-.019-.412-.054-.634.14-.223.194-.341.441-.619.603ZM174.701 150.201a2.93 2.93 0 0 1-.745.292c-.686.2-1.372.41-2.056.628a1.354 1.354 0 0 0-.501.241c-.238.21-.299.552-.317.874-.023.177-.002.357.061.524.082.157.203.291.35.389.783.592 1.806.776 2.788.776.983 0 1.958-.166 2.941-.193 1.187-.031 2.406.137 3.547-.195.218-.081.444-.136.675-.165.153-.002.306.008.458.03.612.061 1.23.004 1.822-.166.178-.039.343-.122.482-.24a.459.459 0 0 0 .13-.493c-.063-.141-.224-.244-.226-.4a.742.742 0 0 1 .058-.217c.071-.239-.044-.489-.124-.725-.226-.675-.189-1.451-.593-2.037-.404-.586-1.145-.827-1.85-.92a5.16 5.16 0 0 0-1.722.049c-.638.137-1.234.422-1.86.604a6.104 6.104 0 0 1-2.238.211c-.5-.042-.328.037-.498.456-.12.28-.323.516-.582.677Z"/><path fill="#FBBEBE" d="M146.766 82.294a5.07 5.07 0 1 0 0-10.14 5.07 5.07 0 0 0 0 10.14Z"/><path fill="#FB1" d="M183.521 148.388c-1.574 1.351-3.698 1.942-5.769 1.963-.875.009-1.782-.085-2.527-.538-.052-.287-.073-.596-.126-.883-.903-.189-1.604-.925-2.042-1.739-.437-.815-.659-1.721-.984-2.584-.496-1.315-1.224-2.527-1.951-3.729-.668-1.109-1.337-2.221-2.098-3.268-.503-.699-1.049-1.357-1.547-2.054a18.194 18.194 0 0 1-2.981-6.479 8.475 8.475 0 0 0-.362-1.317c-.3-.73-.851-1.325-1.276-1.991a6.594 6.594 0 0 1-.925-2.358c-.085-.476-.232-.99-.709-1.039-1.004 1.95-2.027 3.93-3.544 5.516a5.63 5.63 0 0 0-.652.745 7.137 7.137 0 0 0-.42.804 5.186 5.186 0 0 1-.926 1.35 2.167 2.167 0 0 1-1.193.65 8.155 8.155 0 0 1-.573 4.983c-.212.461-.465.902-.664 1.368-.815 1.924-.626 4.093-.712 6.179a6.457 6.457 0 0 1-.154 1.299c-.211.853-.648 1.76-.437 2.613-2.192.838-4.628.785-6.949.432a3.343 3.343 0 0 1-1.296-.393 3.57 3.57 0 0 1-.849-.85.839.839 0 0 1-.194-.337c-.091-.399.349-.7.554-1.049.204-.35.241-.904-.04-1.191.139-2.288.772-4.522.912-6.818.056-.909.033-1.822.075-2.732.042-.911.14-1.798.242-2.693.23-2.043.79-4.047.711-6.101a3.552 3.552 0 0 1 .422-1.817 9.13 9.13 0 0 1 .856-1.202c1.074-1.387 2.364-2.777 2.747-4.488.197-.883.634-1.691 1.068-2.484.257-.474.524-.958.933-1.306.223-.154.43-.33.618-.525.286-.369.297-.874.466-1.315.088-.227.222-.437.287-.671.053-.259.08-.522.079-.787.056-.846.381-1.664.723-2.438a7.48 7.48 0 0 1-2.097-1.808 4.424 4.424 0 0 1-.507-.764c-.361-.71-.443-1.519-.612-2.297-.404-1.857-1.332-3.603-1.462-5.5-.038-.579 0-1.177-.201-1.724a5.414 5.414 0 0 0-.325-.673 2.73 2.73 0 0 1-.276-.678c-.112-.516.042-1.05 0-1.574-.042-.463-.24-.897-.338-1.35a6.38 6.38 0 0 1-.05-1.783c.043-.699.195-1.421.136-2.112a8.166 8.166 0 0 1 2.194-6.283l.04-.04c.334-.35.7-.66 1-1.03.409-.496.7-1.08 1.131-1.563.189-.215.402-.407.59-.624.171-.227.361-.44.568-.636a.871.871 0 0 1 .79-.212 2.2 2.2 0 0 0 .241.745c.364.028.687.079 1.049.107.168.008.334.033.497.077.341.103.613.35.905.56.727.513 1.621.75 2.336 1.279 1.049.778 1.573 2.063 2.206 3.215.838 1.544 2.203 2.856 2.797 4.507l.82 2.245c.537 1.465 1.074 2.935 1.801 4.316 1.012 1.923 2.383 3.656 3.196 5.668a.908.908 0 0 0 .425.468 36.679 36.679 0 0 1 2.942 4.895c.449.903.874 1.84 1.003 2.838.191 1.411-.194 2.837-.729 4.155a2.165 2.165 0 0 0-.174.595c-.035.334.092.662.127.996.034.312-.012.627-.134.916a4.177 4.177 0 0 0-.275.633c-.094.402.074.811.164 1.214.308 1.361.252 2.772.175 4.167-.04.7.525 1.254.995 1.766.874.96 1.556 2.082 2.215 3.203.358.568.661 1.17.902 1.797.25.715.35 1.472.488 2.215.444 2.292 1.899 4.318 2.294 6.617a5.88 5.88 0 0 0 1.349 2.845c.211.218.406.452.582.699.121.196.218.406.287.626.172.51.253 1.047.24 1.586a2.38 2.38 0 0 0 .043.771c.165.533.752.826.993 1.328.242.502.076 1.145.175 1.715.076.461.322.875.691 1.161Z"/><path fill="#FBBEBE" d="M130.621 100.257c-.574.294-1.184.595-1.825.553-.577-.037-1.104-.35-1.537-.733-.35-.304-.71-.683-1.17-.652-.307.02-.566.229-.804.427l-1.267 1.061a1.188 1.188 0 0 0-.46.594c-.025.165-.015.333.03.493.057.283.153.614.426.71.273.096.57-.11.859-.189a1.01 1.01 0 0 1 .991.292.591.591 0 0 1 .175.381c0 .317-.35.525-.672.54-.321.016-.629-.089-.947-.07a.143.143 0 0 0-.058.005.145.145 0 0 0-.105.125.66.66 0 0 0 .205.608c.166.152.359.27.57.35.244.121.508.198.779.227.537.035 1.03-.262 1.539-.435.685-.231 1.423-.238 2.147-.236.723.002 1.458.012 2.152-.191.694-.203 1.353-.652 1.624-1.321a.324.324 0 0 0 .03-.203.333.333 0 0 0-.147-.175c-.976-.722-1.371-1.6-2.469-2.119l-.066-.042Z"/><path fill="#3F3D56" d="M144.299 74.109c-.303.048-.56.253-.846.367a1.462 1.462 0 0 1-1.196-.063.923.923 0 0 1-.327-.266c-.234-.325-.152-.797-.009-1.178.679-1.803 2.49-2.918 4.283-2.99 1.794-.072 3.539.766 4.953 1.963.421.346.798.741 1.124 1.177.738 1.023 1.072 2.329 1.17 3.622a4.712 4.712 0 0 1-.107 1.623 1.97 1.97 0 0 1-.919 1.24c-.5.255-1.1.174-1.605-.07-.505-.245-.939-.632-1.373-1a2.029 2.029 0 0 0-.683-.436.7.7 0 0 0-.74.175c-.234.281-.174.743-.388 1.049-.213.306-.657.35-1.031.35-.374 0-.754-.032-.977-.33-.205-.269-.175-.662-.098-1.001.077-.34.208-.675.174-1.023-.071-.699-.683-1.13-.874-1.772-.124-.422.149-.6.121-.981-.021-.336-.381-.5-.652-.456Z"/><path fill="#000" d="M160.227 122.329v.043c-1.003 1.95-2.026 3.931-3.544 5.516a5.78 5.78 0 0 0-.652.745 7.216 7.216 0 0 0-.419.804 5.19 5.19 0 0 1-.927 1.35l-1.266.633 4.021-20.979 2.787 11.888ZM154.383 90.577a7.436 7.436 0 0 1-1.142 1c-1.154.874-2.273 1.7-3.393 2.622-.904.736-1.82 1.456-2.749 2.161a2.809 2.809 0 0 1-.276-.678c-.112-.516.042-1.049 0-1.573-.042-.464-.239-.897-.337-1.35-.1-.59-.117-1.19-.051-1.783.044-.7.196-1.422.136-2.112a8.17 8.17 0 0 1 2.205-6.296l.04-.04c.188-.11.388-.198.595-.266a2.104 2.104 0 0 1 1.849.224 12.62 12.62 0 0 1 2.518 2.469c.395.445.75.926 1.059 1.435a3.795 3.795 0 0 1-.454 4.187Z" opacity=".1"/><path fill="#FB1" d="M151.093 81.612a2.106 2.106 0 0 0-1.85-.215 3.99 3.99 0 0 0-1.592 1.06 7.306 7.306 0 0 0-1.125 1.485c-.297.525-.524 1.074-.821 1.596-.525.936-1.21 1.76-1.899 2.579-.428.509-.862 1.024-1.411 1.399-.549.374-1.162.603-1.535 1.122-.117.164-.201.35-.316.516-.366.535-.986.821-1.526 1.18-1.549 1.031-2.513 2.748-3.96 3.918-.624.503-1.329.898-1.942 1.412-.572.477-1.049 1.05-1.619 1.539-.57.49-1.24.893-1.983.939.497 1.106 1.089 2.192 1.941 3.054.851.862 2.127 1.412 3.29 1.075.413-.119.816-.371.974-.769.049-.205.118-.405.206-.597a1.23 1.23 0 0 1 .442-.361 104.531 104.531 0 0 0 13.306-9.219c1.124-.916 2.24-1.736 3.394-2.622a7.429 7.429 0 0 0 1.141-1 3.801 3.801 0 0 0 .462-4.187c-.31-.51-.664-.99-1.06-1.436a12.615 12.615 0 0 0-2.517-2.468Z"/><g fill="#000" opacity=".1"><path d="M146.955 78.967c-.35 0-.754-.032-.978-.329-.202-.27-.174-.663-.097-1.002.077-.339.208-.674.174-1.022-.071-.7-.683-1.13-.874-1.773-.124-.421.149-.6.121-.98-.025-.331-.383-.496-.654-.452-.302.049-.559.254-.846.367a1.462 1.462 0 0 1-1.196-.063.923.923 0 0 1-.327-.265c-.234-.326-.152-.798-.009-1.179 0-.014.013-.026.018-.04a4.243 4.243 0 0 0-.367.74c-.144.38-.226.853.009 1.178a.92.92 0 0 0 .326.266 1.462 1.462 0 0 0 1.196.063c.287-.114.544-.319.846-.368.271-.043.63.121.654.451.028.382-.244.56-.12.981.187.643.799 1.08.874 1.773.035.35-.093.685-.175 1.023-.082.337-.105.732.098 1.001.224.298.624.326.977.33.353.003.808-.022 1.032-.35.096-.166.16-.348.187-.537-.238.17-.57.19-.869.187ZM152.775 78.904c-.5.255-1.1.175-1.605-.07-.505-.245-.939-.631-1.373-1a2.039 2.039 0 0 0-.683-.436.7.7 0 0 0-.74.175 1.336 1.336 0 0 0-.218.588.737.737 0 0 1 .608-.065c.255.098.487.246.684.435.433.37.874.757 1.372 1 .498.243 1.105.325 1.605.07.442-.258.764-.681.897-1.176-.144.199-.331.363-.547.479Z"/></g><path fill="#3F3D56" d="M109.266 154.059a5.245 5.245 0 1 0 0-10.49 5.245 5.245 0 0 0 0 10.49Z"/><path fill="#000" d="M109.266 154.059a5.245 5.245 0 1 0 0-10.49 5.245 5.245 0 0 0 0 10.49Z" opacity=".1"/><path fill="#65617D" d="M109.266 152.136a3.321 3.321 0 1 0 0-6.642 3.321 3.321 0 0 0 0 6.642Z"/><path fill="#000" d="M109.266 152.136a3.321 3.321 0 1 0 0-6.642 3.321 3.321 0 0 0 0 6.642Z" opacity=".1"/><path fill="#3F3D56" d="m105.245 140.598 3.44 7.78a.672.672 0 0 0 .598.399.668.668 0 0 0 .614-.375l4.089-8.329-8.741.525Z"/><path fill="#000" d="m105.245 140.598 3.44 7.78a.672.672 0 0 0 .598.399.668.668 0 0 0 .614-.375l4.089-8.329-8.741.525Z" opacity=".1"/><path fill="#3F3D56" d="M76.573 154.059a5.244 5.244 0 1 0 0-10.489 5.244 5.244 0 0 0 0 10.489Z"/><path fill="#000" d="M76.573 154.059a5.244 5.244 0 1 0 0-10.489 5.244 5.244 0 0 0 0 10.489Z" opacity=".1"/><path fill="#65617D" d="M76.574 152.136a3.321 3.321 0 1 0 0-6.643 3.321 3.321 0 0 0 0 6.643Z"/><path fill="#000" d="M76.574 152.136a3.321 3.321 0 1 0 0-6.643 3.321 3.321 0 0 0 0 6.643Z" opacity=".1"/><path fill="#3F3D56" d="m72.552 140.598 3.44 7.78a.674.674 0 0 0 .599.399.662.662 0 0 0 .614-.375l4.088-8.329-8.74.525Z"/><path fill="#000" d="m72.552 140.598 3.44 7.78a.674.674 0 0 0 .599.399.662.662 0 0 0 .614-.375l4.088-8.329-8.74.525Z" opacity=".1"/><path fill="#3F3D56" d="M126.287 103.142a.788.788 0 0 0-.436-.626.803.803 0 0 0-.634-.001.824.824 0 0 0-.443.455l-3.008 7.471-.874 33.566h1.398l.525-33.495 3.398-6.863a.83.83 0 0 0 .074-.507Z"/><path fill="#FB1" d="m64.423 141.385 4.72-2.972 50.962-.437 1.311 3.409H64.423Z"/><path fill="#3F3D56" d="M64.423 144.531v-3.146l57.916-.56-.056 2.133H65.472v1.573h-1.05ZM71.766 155.895a5.245 5.245 0 1 0 0-10.49 5.245 5.245 0 0 0 0 10.49Z"/><path fill="#65617D" d="M71.766 153.972a3.322 3.322 0 1 0 0-6.643 3.322 3.322 0 0 0 0 6.643Z"/><path fill="#3F3D56" d="m67.745 142.434 3.44 7.779a.661.661 0 0 0 .598.399.667.667 0 0 0 .614-.374l4.089-8.329-8.741.525ZM112.5 155.895a5.245 5.245 0 1 0 0-10.49 5.245 5.245 0 0 0 0 10.49Z"/><path fill="#65617D" d="M112.5 153.972a3.322 3.322 0 1 0 0-6.644 3.322 3.322 0 0 0 0 6.644Z"/><path fill="#3F3D56" d="m108.479 142.434 3.441 7.779a.659.659 0 0 0 .598.399.667.667 0 0 0 .613-.374l4.089-8.329-8.741.525Z"/><path fill="#65617D" d="M92.832 127.661H70.98v12.063h21.853v-12.063Z"/><path fill="#000" d="M85.315 129.759H78.67v1.398h6.644v-1.398Z" opacity=".1"/><path fill="#000" d="M84.484 129.934h-4.982v1.049h4.983v-1.049Z" opacity=".1"/><path fill="#65617D" d="M115.035 127.661H93.182v12.063h21.853v-12.063Z"/><path fill="#000" d="M107.517 129.759h-6.643v1.398h6.643v-1.398Z" opacity=".1"/><path fill="#000" d="M106.687 129.934h-4.982v1.049h4.982v-1.049Z" opacity=".1"/><path fill="#65617D" d="M92.832 115.248H70.98v12.063h21.853v-12.063Z"/><path fill="#000" d="M85.315 117.346H78.67v1.399h6.644v-1.399Z" opacity=".1"/><path fill="#000" d="M84.484 117.521h-4.982v1.049h4.983v-1.049Z" opacity=".1"/><path fill="#65617D" d="M115.035 115.248H93.182v12.063h21.853v-12.063Z"/><path fill="#000" d="M107.517 117.346h-6.643v1.399h6.643v-1.399Z" opacity=".1"/><path fill="#000" d="M106.687 117.521h-4.982v1.049h4.982v-1.049Z" opacity=".1"/><path fill="#65617D" d="M92.832 102.661H70.98v12.063h21.853v-12.063Z"/><path fill="#000" d="M85.315 104.759H78.67v1.398h6.644v-1.398Z" opacity=".1"/><path fill="#000" d="M84.484 104.934h-4.982v1.049h4.983v-1.049Z" opacity=".1"/><path fill="#65617D" d="M115.035 102.661H93.182v12.063h21.853v-12.063Z"/><path fill="#000" d="M107.517 104.759h-6.643v1.398h6.643v-1.398Z" opacity=".1"/><path fill="#000" d="M106.687 104.934h-4.982v1.049h4.982v-1.049Z" opacity=".1"/><path fill="#65617D" d="M115.035 90.073H93.182v12.063h21.853V90.073Z"/><path fill="#000" d="M107.517 92.171h-6.643v1.399h6.643v-1.399Z" opacity=".1"/><path fill="#000" d="M106.687 92.346h-4.982v1.05h4.982v-1.05Z" opacity=".1"/></g><defs><linearGradient id="b" x1="153.467" x2="153.467" y1="153.909" y2="69.444" gradientUnits="userSpaceOnUse"><stop stop-color="gray" stop-opacity=".25"/><stop offset=".54" stop-color="gray" stop-opacity=".12"/><stop offset="1" stop-color="gray" stop-opacity=".1"/></linearGradient><clipPath id="a"><path fill="#fff" d="M0 43h200v113.857H0z"/></clipPath></defs></svg>