<svg xmlns="http://www.w3.org/2000/svg" width="200" height="200" fill="none"><g clip-path="url(#a)"><path fill="#FFB8B8" d="M176.62 166.454h-3.346l-1.592-12.906 4.938.001v12.905Z"/><path fill="#2F2E41" d="m177.473 169.698-10.788-.001v-.136c0-1.114.442-2.182 1.23-2.969a4.195 4.195 0 0 1 2.969-1.23h6.59l-.001 4.336Z"/><path fill="#FFB8B8" d="m191.387 158.228-2.171 2.546-10.851-7.167 3.205-3.756 9.817 8.377Z"/><path fill="#2F2E41" d="m194.409 159.684-7.004 8.207-.103-.088a4.198 4.198 0 0 1-.469-5.92v-.001l4.277-5.012 3.299 2.814ZM152.862 102.985l-1.042 9.606 42.104-.601-18.362-29.918-14.992-.539-7.708 21.452Z"/><path fill="#000" d="m152.862 102.985-1.042 9.606 42.104-.601-18.362-29.918-14.992-.539-7.708 21.452Z" opacity=".28"/><path fill="#2F2E41" d="m161.141 104.634-1.486 8.789v7.856l11.984 3.912s-1.403 30.515.468 32.458l-.046 4.692 5.228.238.043-3.302 2.216-24.681 1.306-18.12-2.117-13.739-17.596 1.897Z"/><path fill="#2F2E41" d="m170.426 112.2-10.771 9.079s-.63 16.382.971 18.303c1.375 1.65 19.258 15.882 19.258 15.882s3.178 2.915 4.959 2.962c1.782.046 3.853-3.69 3.853-3.69l-4.125-3.134s-10.687-9.975-13.86-13.941c-1.28-1.601-1.28-1.761-1.28-1.761l.437-6.658 4.402-12.355-3.844-4.687ZM158.99 68.709l-4.644-.43-4.212.703-8.92.003-.76 6.465 8.14 1.821 1.984-.972 8.269 3.15.143-10.74Z"/><path fill="#CCC" d="M164.537 68.689s9.856-.924 12.097.837c2.242 1.761 7.044 36.661 7.044 36.661l-19.141 1.08-3.432-2.361.975-17.423 2.457-18.794Z"/><path fill="#2F2E41" d="m167.545 68.471-10.872.239-10.136 45.801 8.005 1.762 13.003-47.802ZM175.275 68.084l8.564 2.68-.487 18.819 10.573 22.499-12.429 1.309-9.824-24.295 3.603-21.012Z"/><path fill="#FFB8B8" d="M189.396 114.367c.301-.264.539-.591.699-.958a2.719 2.719 0 0 0-.057-2.314 2.732 2.732 0 0 0-.745-.922l1.723-6.01-3.397-1.938-2.314 8.522a2.752 2.752 0 0 0 .437 3.627 2.751 2.751 0 0 0 3.654-.007Z"/><path fill="#2F2E41" d="m178.875 71.287 5.068-.44s4.549 4.759 5.584 8.443c1.035 3.684 2.156 15.21 2.156 15.21l-.468 16.862-5.923-4.022-.397-14.504-6.02-21.549Z"/><path fill="#FFB8B8" d="M177.653 62.812a7.183 7.183 0 1 0-12.605-6.892 7.183 7.183 0 0 0 12.605 6.892Z"/><path fill="#2F2E41" d="M170.55 56.367c-.943-.217-1.921.024-2.876.18-.954.157-2.006.209-2.814-.324-.596-.393-.963-1.044-1.307-1.67a1.92 1.92 0 0 1-.281-.737c-.041-.463.254-.885.566-1.229 1.453-1.597 3.576-2.47 5.716-2.748a9.875 9.875 0 0 1 5.219.637c1.625.713 3.022 2.018 3.661 3.674.294.847.478 1.728.546 2.623.097.657.109 1.325.037 1.986-.086.49-.215.972-.385 1.44l-1.058 3.195a2.103 2.103 0 0 1-.416.823.722.722 0 0 1-.843.185c.084-.347.097-.708.038-1.06a.893.893 0 0 0-.706-.712c-.39-.041-.723.261-1.093.391a1.346 1.346 0 0 1-1.698-1.01c-.059-.366.039-.757-.099-1.1-.162-.402-.593-.612-.916-.901a2.102 2.102 0 0 1-.578-2.19c.086-.266.331-.387.282-.693-.064-.4-.655-.68-.995-.76Z"/><path fill="#fff" d="M90.688 86.732H0V30h90.688v56.732Z"/><path fill="#3F3D56" d="M90.688 86.732H0V30h90.688v56.732ZM.414 86.318h89.86V30.414H.414v55.904Z"/><path fill="#fff" d="M79.61 165.308H27.849v-56.732h51.763v56.732Z"/><path fill="#3F3D56" d="M79.61 165.308H27.849v-56.732h51.763v56.732Zm-51.348-.414h50.935V108.99H28.262v55.904Z"/><path fill="#3F3D56" d="M72.571 159.95H61.805v.436H72.57v-.436ZM72.571 161.259H61.805v.437H72.57v-.437ZM72.571 162.569H61.805v.436H72.57v-.436Z"/><path fill="#E6E6E6" d="M53.73 118.721v4.556a13.662 13.662 0 0 1 12.625 8.435 13.668 13.668 0 0 1-2.963 14.893l3.221 3.221a18.221 18.221 0 0 0-12.883-31.105Z"/><path fill="#575A89" d="m66.614 149.826-3.221-3.221a13.663 13.663 0 0 1-17.93 1.215l-2.758 3.628a18.222 18.222 0 0 0 23.909-1.622Z"/><path fill="#FB1" d="M40.064 136.942a13.667 13.667 0 0 1 13.666-13.665v-4.556a18.216 18.216 0 0 0-17.267 12.404 18.219 18.219 0 0 0 6.242 20.323l2.757-3.627a13.653 13.653 0 0 1-5.398-10.879Z"/><path fill="#fff" d="M156.22 130.109h-51.763V73.377h51.763v56.732Z"/><path fill="#3F3D56" d="M156.22 130.109h-51.763V73.377h51.763v56.732Zm-51.349-.414h50.935V73.791h-50.935v55.904Z"/><path fill="#575A89" d="M121.228 108.058h-9.317v14.908h9.317v-14.908Z"/><path fill="#E6E6E6" d="M134.686 97.913h-9.317v25.053h9.317V97.913Z"/><path fill="#FB1" d="M148.145 86.11h-9.317v36.856h9.317V86.111Z"/><path fill="#3F3D56" d="M151.25 123.38h-41.824V80.106h.414v42.86h41.41v.414Z"/><path fill="#FFB8B8" d="M141.167 74.888a2.852 2.852 0 1 0 0-5.704 2.852 2.852 0 0 0 0 5.704Z"/><path fill="#CCC" d="M199.762 169.973h-44.439a.235.235 0 0 1-.168-.07.235.235 0 0 1 0-.336.238.238 0 0 1 .168-.069h44.439a.238.238 0 0 1 .238.237.235.235 0 0 1-.07.168.235.235 0 0 1-.168.07Z"/><path fill="#3F3D56" d="M78.094 74.867h-65.5a.205.205 0 0 1-.204-.205V43.268a.205.205 0 0 1 .41 0v31.19h65.294a.204.204 0 0 1 .145.35.207.207 0 0 1-.145.06Z"/><path fill="#FB1" d="M26.589 72.612H20.63a.609.609 0 0 1-.608-.608V63.79a.61.61 0 0 1 .608-.608h5.958a.61.61 0 0 1 .608.608v8.213a.609.609 0 0 1-.608.608ZM37.453 72.612h-5.957a.61.61 0 0 1-.609-.608V56.002a.61.61 0 0 1 .609-.608h5.957a.61.61 0 0 1 .609.608v16.002a.61.61 0 0 1-.609.608ZM48.317 72.612h-5.958a.609.609 0 0 1-.608-.608V63.79a.61.61 0 0 1 .608-.608h5.958a.61.61 0 0 1 .608.608v8.213a.61.61 0 0 1-.608.608ZM59.181 72.612h-5.957a.596.596 0 0 1-.609-.58V52.9a.596.596 0 0 1 .609-.581h5.957a.596.596 0 0 1 .609.58v19.132a.596.596 0 0 1-.609.581ZM70.045 72.612h-5.957a.61.61 0 0 1-.608-.608V47.393a.61.61 0 0 1 .608-.609h5.957a.61.61 0 0 1 .609.609v24.61a.61.61 0 0 1-.609.61Z"/><path fill="#3F3D56" d="M23.61 60.723a1.23 1.23 0 1 0 0-2.46 1.23 1.23 0 0 0 0 2.46ZM34.474 52.729a1.23 1.23 0 1 0 0-2.46 1.23 1.23 0 0 0 0 2.46ZM45.338 60.723a1.23 1.23 0 1 0 0-2.46 1.23 1.23 0 0 0 0 2.46ZM56.203 48.834a1.23 1.23 0 1 0 0-2.46 1.23 1.23 0 0 0 0 2.46ZM67.066 44.325a1.23 1.23 0 1 0 0-2.46 1.23 1.23 0 0 0 0 2.46Z"/><path fill="#3F3D56" d="m45.364 59.769-10.89-8.157-10.741 8.045-.246-.328 10.987-8.23 10.838 8.119 10.77-11.786.044-.018 10.864-4.377.153.38-10.82 4.36L45.363 59.77Z"/></g><defs><clipPath id="a"><path fill="#fff" d="M0 30h200v139.973H0z"/></clipPath></defs></svg>