<svg xmlns="http://www.w3.org/2000/svg" width="200" height="200" fill="none"><g clip-path="url(#a)"><path fill="#FEB8B8" d="M93.986 150.879s2.546-4.176 5.814-1.707c3.268 2.469 9.32 6.636 9.32 6.636s1.24 2.665-1.969 1.664c-3.208-1.001-13.682-2.612-13.682-2.612l.517-3.981Z"/><path fill="#F0F0F0" d="M22.85 124.357c.81-6.523 4.853-12.949 11.074-15.072a30.284 30.284 0 0 0 .001 20.792c.956 2.586 2.288 5.362 1.39 7.968-.56 1.622-1.929 2.862-3.458 3.638-1.53.776-3.228 1.145-4.905 1.508l-.33.273c-2.661-6.01-4.584-12.584-3.773-19.107Z"/><path fill="#fff" d="M33.985 109.408a25.886 25.886 0 0 0-6.435 14.568 11.152 11.152 0 0 0 .127 3.491 6.396 6.396 0 0 0 1.59 2.965c.717.787 1.541 1.51 2.054 2.458a3.911 3.911 0 0 1 .191 3.195c-.453 1.299-1.345 2.357-2.254 3.362-1.008 1.116-2.074 2.258-2.503 3.737-.052.18-.327.088-.275-.09.746-2.574 3.244-4.035 4.435-6.353.556-1.081.79-2.337.268-3.478-.455-.998-1.305-1.744-2.037-2.535a6.82 6.82 0 0 1-1.663-2.842 10.3 10.3 0 0 1-.26-3.472c.207-2.624.826-5.2 1.834-7.632a26.343 26.343 0 0 1 4.737-7.591c.123-.139.314.079.191.217Z"/><path fill="#fff" d="M27.628 122.223a3.883 3.883 0 0 1-2.956-4.068c.015-.186.305-.172.29.014a3.595 3.595 0 0 0 2.757 3.779c.182.043.09.318-.09.275ZM28.851 130.08a7.482 7.482 0 0 0 3.343-4.311c.052-.179.328-.088.275.091a7.785 7.785 0 0 1-3.487 4.479c-.161.095-.29-.164-.13-.259ZM30.46 114.275a2.207 2.207 0 0 0 2.083-.106c.16-.097.289.162.13.259a2.459 2.459 0 0 1-2.304.122.15.15 0 0 1-.092-.183.144.144 0 0 1 .183-.092Z"/><path fill="#F0F0F0" d="M52.885 120.935c-.097.064-.195.127-.293.193a28.995 28.995 0 0 0-3.702 2.89 30.516 30.516 0 0 0-6.897 9.321 29.643 29.643 0 0 0-1.623 4.2c-.6 1.988-1.091 4.191-2.277 5.817a5.128 5.128 0 0 1-.396.489H26.981l-.074-.034-.427.019.053-.23.032-.132c.007-.029.015-.058.02-.085a.331.331 0 0 1 .007-.027c.005-.027.012-.052.017-.076.108-.438.218-.875.333-1.313l.002-.005c.878-3.332 2.042-6.621 3.668-9.628.048-.091.097-.184.151-.274a28.24 28.24 0 0 1 2.54-3.853 24.849 24.849 0 0 1 1.666-1.905 20.782 20.782 0 0 1 5.202-3.897c3.844-2.03 8.294-2.807 12.401-1.568.105.032.208.064.313.098Z"/><path fill="#fff" d="M52.861 121.071a25.889 25.889 0 0 0-13.909 7.758 11.132 11.132 0 0 0-2 2.863 6.393 6.393 0 0 0-.516 3.325c.099 1.06.322 2.133.16 3.199a3.92 3.92 0 0 1-1.77 2.667c-1.144.764-2.494 1.072-3.824 1.327-1.477.283-3.016.554-4.25 1.477-.148.112-.313-.127-.164-.238 2.145-1.606 5.02-1.269 7.366-2.402 1.095-.529 2.037-1.391 2.308-2.616.237-1.071.008-2.178-.1-3.251a6.823 6.823 0 0 1 .382-3.27 10.299 10.299 0 0 1 1.883-2.929 25.095 25.095 0 0 1 6.06-4.989 26.337 26.337 0 0 1 8.352-3.21c.182-.036.203.253.022.289Z"/><path fill="#fff" d="M40.07 127.476a3.883 3.883 0 0 1 .089-5.028c.123-.14.346.046.222.186a3.594 3.594 0 0 0-.073 4.677c.119.144-.12.308-.238.165ZM36.316 134.486a7.487 7.487 0 0 0 5.264-1.43c.15-.111.315.127.165.238a7.784 7.784 0 0 1-5.48 1.477c-.187-.021-.134-.306.05-.285ZM47.117 122.834a2.196 2.196 0 0 0 1.727 1.17c.185.018.133.303-.052.285a2.456 2.456 0 0 1-1.913-1.29.149.149 0 0 1 .036-.201.143.143 0 0 1 .108-.023.143.143 0 0 1 .094.059Z"/><path fill="#F0F0F0" d="M109.278 167.588c.314-2.528 1.881-5.019 4.292-5.841a11.736 11.736 0 0 0 0 8.058c.371 1.002.887 2.078.539 3.088a2.63 2.63 0 0 1-1.34 1.41 7.807 7.807 0 0 1-1.901.584l-.128.106c-1.032-2.329-1.777-4.877-1.462-7.405Z"/><path fill="#fff" d="M113.593 161.795a10.034 10.034 0 0 0-2.494 5.646 4.35 4.35 0 0 0 .049 1.352c.1.432.312.828.617 1.15.303.284.57.604.796.952a1.522 1.522 0 0 1 .074 1.239 3.933 3.933 0 0 1-.874 1.302c-.391.433-.804.876-.97 1.449-.02.069-.126.034-.106-.035.289-.998 1.257-1.564 1.718-2.462a1.54 1.54 0 0 0 .104-1.348 3.987 3.987 0 0 0-.789-.983 2.644 2.644 0 0 1-.645-1.101 4.014 4.014 0 0 1-.101-1.346 9.756 9.756 0 0 1 .711-2.957 10.2 10.2 0 0 1 1.836-2.942c.048-.054.122.03.074.084Z"/><path fill="#fff" d="M111.13 166.761a1.5 1.5 0 0 1-.862-.578 1.502 1.502 0 0 1-.284-.998c.006-.072.118-.067.112.005a1.399 1.399 0 0 0 1.069 1.465c.07.016.035.123-.035.106ZM111.603 169.806a2.897 2.897 0 0 0 1.296-1.67c.02-.07.127-.035.107.035a3.019 3.019 0 0 1-1.352 1.736c-.062.036-.112-.064-.051-.101ZM112.227 163.681a.862.862 0 0 0 .807-.041c.062-.038.112.062.051.1a.953.953 0 0 1-.893.047.058.058 0 0 1-.036-.071.059.059 0 0 1 .028-.032.054.054 0 0 1 .043-.003Z"/><path fill="#F0F0F0" d="M120.918 166.262c-.038.025-.076.049-.113.075a11.173 11.173 0 0 0-1.539 1.216 11.814 11.814 0 0 0-2.569 3.516 11.43 11.43 0 0 0-.629 1.628c-.232.77-.423 1.624-.882 2.254-.048.066-.099.13-.154.19h-4.153l-.029-.014-.165.008.02-.089.013-.051.007-.033.003-.011.007-.029c.042-.17.084-.34.129-.509l.001-.002a16.856 16.856 0 0 1 1.421-3.732c.019-.035.038-.071.059-.106.287-.523.616-1.023.984-1.493.203-.257.418-.503.646-.738a8.058 8.058 0 0 1 2.016-1.511c1.489-.786 3.214-1.087 4.806-.607l.121.038Z"/><path fill="#fff" d="M120.909 166.315a10.039 10.039 0 0 0-5.391 3.006 4.344 4.344 0 0 0-.775 1.11c-.18.404-.249.849-.2 1.288.071.41.092.826.062 1.24a1.522 1.522 0 0 1-.686 1.034 3.94 3.94 0 0 1-1.482.514c-.573.11-1.169.215-1.647.573-.058.043-.121-.05-.064-.093.832-.622 1.946-.491 2.855-.931a1.532 1.532 0 0 0 .895-1.013c.054-.42.04-.845-.039-1.26a2.646 2.646 0 0 1 .148-1.268c.177-.417.424-.801.73-1.135a9.727 9.727 0 0 1 2.348-1.933c1-.597 2.095-1.017 3.237-1.244.071-.014.079.098.009.112Z"/><path fill="#fff" d="M115.951 168.797a1.503 1.503 0 0 1 .035-1.949c.048-.054.134.018.086.072a1.394 1.394 0 0 0-.028 1.813c.046.056-.047.119-.093.064ZM114.497 171.514a2.907 2.907 0 0 0 2.04-.554c.058-.043.122.049.064.092a3.018 3.018 0 0 1-2.125.572c-.071-.008-.051-.118.021-.11ZM118.683 166.998a.846.846 0 0 0 .669.453c.072.007.051.118-.02.111a.962.962 0 0 1-.742-.5c-.008-.013-.011-.027-.008-.042a.061.061 0 0 1 .023-.036c.012-.009.027-.012.041-.009a.056.056 0 0 1 .037.023Z"/><path fill="#F0F0F0" d="M180.633 113.891c-1.247-10.025-7.461-19.904-17.022-23.166a46.543 46.543 0 0 1-.003 31.958c-1.469 3.975-3.517 8.242-2.135 12.247.86 2.493 2.964 4.4 5.315 5.592 2.352 1.192 4.961 1.76 7.538 2.317l.507.42c4.091-9.238 7.046-19.342 5.8-29.368Z"/><path fill="#fff" d="M163.516 90.914a39.789 39.789 0 0 1 9.891 22.392c.174 1.783.195 3.607-.195 5.365a9.829 9.829 0 0 1-2.444 4.558c-1.102 1.21-2.368 2.32-3.157 3.777-.83 1.536-.862 3.281-.294 4.912.696 1.996 2.068 3.623 3.464 5.167 1.551 1.715 3.189 3.472 3.848 5.745.08.275.502.135.423-.14-1.147-3.955-4.986-6.201-6.817-9.764-.855-1.662-1.213-3.591-.412-5.346.7-1.534 2.006-2.681 3.132-3.896 1.182-1.277 2.088-2.678 2.555-4.368.478-1.729.528-3.558.401-5.337a38.62 38.62 0 0 0-2.819-11.731 40.51 40.51 0 0 0-7.281-11.668c-.191-.213-.484.122-.295.334Z"/><path fill="#fff" d="M173.287 110.611a5.973 5.973 0 0 0 4.544-6.253c-.023-.285-.468-.263-.445.023a5.53 5.53 0 0 1-4.238 5.808c-.279.066-.138.488.139.422ZM171.407 122.688a11.51 11.51 0 0 1-5.138-6.626c-.08-.275-.503-.135-.422.14a11.965 11.965 0 0 0 5.36 6.884c.247.146.446-.252.2-.398ZM168.935 98.394a3.379 3.379 0 0 1-3.202-.163c-.245-.149-.444.25-.2.398a3.784 3.784 0 0 0 3.542.188.23.23 0 0 0 .141-.281.225.225 0 0 0-.281-.142Z"/><path fill="#F0F0F0" d="M134.466 108.632c.15.098.3.195.451.297a44.477 44.477 0 0 1 5.689 4.442c.14.124.279.252.414.379a46.92 46.92 0 0 1 10.188 13.947 45.586 45.586 0 0 1 2.495 6.456c.921 3.055 1.676 6.441 3.499 8.94.187.263.391.514.609.752h16.472c.037-.019.075-.034.112-.053l.658.03-.083-.353c-.015-.067-.034-.135-.049-.203a2.962 2.962 0 0 1-.03-.131.363.363 0 0 0-.011-.042c-.007-.041-.019-.079-.026-.116-.166-.673-.336-1.346-.511-2.018 0-.004 0-.004-.004-.008-1.349-5.122-3.138-10.177-5.637-14.799-.075-.139-.15-.282-.233-.421a43.496 43.496 0 0 0-3.905-5.923 38.447 38.447 0 0 0-2.559-2.927 31.95 31.95 0 0 0-7.997-5.99c-5.908-3.12-12.748-4.315-19.061-2.409-.162.048-.32.097-.481.15Z"/><path fill="#fff" d="M134.503 108.841a39.788 39.788 0 0 1 21.379 11.924c1.212 1.319 2.327 2.762 3.074 4.4a9.836 9.836 0 0 1 .793 5.111c-.151 1.63-.494 3.279-.246 4.917.261 1.726 1.286 3.139 2.722 4.099 1.758 1.175 3.832 1.648 5.877 2.04 2.27.435 4.636.852 6.531 2.27.229.172.482-.194.253-.366-3.297-2.467-7.715-1.95-11.321-3.692-1.683-.812-3.131-2.137-3.548-4.02-.365-1.647-.013-3.348.154-4.997.176-1.731.056-3.395-.588-5.026-.66-1.668-1.721-3.158-2.894-4.503a38.605 38.605 0 0 0-9.314-7.668 40.467 40.467 0 0 0-12.838-4.933c-.28-.056-.313.389-.034.444Z"/><path fill="#fff" d="M154.164 118.685a5.97 5.97 0 0 0-.137-7.728c-.19-.215-.532.071-.342.285a5.526 5.526 0 0 1 .113 7.19c-.183.22.184.473.366.253ZM159.934 129.46a11.505 11.505 0 0 1-8.092-2.198c-.23-.171-.483.196-.253.366a11.963 11.963 0 0 0 8.424 2.27c.286-.032.205-.47-.079-.438ZM143.333 111.551a3.383 3.383 0 0 1-2.655 1.798c-.285.028-.204.466.08.438a3.78 3.78 0 0 0 2.941-1.983.226.226 0 0 0 .033-.166.225.225 0 0 0-.089-.143.22.22 0 0 0-.167-.036.22.22 0 0 0-.143.092Z"/><path fill="#CACACA" d="M199.835 144.089H.245a.243.243 0 0 1-.173-.417.244.244 0 0 1 .172-.072h199.511a.245.245 0 0 1 .245.245c0 .135-.03.244-.165.244ZM70.007 165.605h-44.09a.245.245 0 0 1 0-.489h44.01a.244.244 0 0 1 .244.245c0 .135-.03.244-.165.244ZM139.2 175.141H95.11a.244.244 0 0 1 0-.489h44.01a.244.244 0 0 1 .245.244c0 .135-.03.245-.165.245ZM180.764 165.361h-44.089a.245.245 0 0 1 0-.489h44.009a.245.245 0 0 1 .245.244c0 .135-.03.245-.165.245Z"/><path fill="#2F2E41" d="M81.481 156.07c-2.739 0-5.246-.263-7.238-.883-2.368-.737-3.855-1.93-4.42-3.547a4.175 4.175 0 0 1 .655-4.14c3.503-4.564 15.659-5.852 17.29-6.004l3.309-6.266c.212-1.495-.79-2.626.94-2.655l20.474-.278c1.699-.035 1.217 1.017 1.508 2.475l3.119 5.568-13.424 5.666 2.029 4.946-.132.077c-3.929 2.279-15.228 5.04-24.11 5.041Z"/><path fill="#2F2E41" d="M115.26 140.578s18.748-2.146 17.525 6.436c-1.223 8.582-15.487 14.661-37.089 0l2.446-4.291s8.049-.4 12.94-2.546l4.178.401Z"/><path fill="#FEB8B8" d="M88.717 101.698s-3.563-.648-4.535 4.859-2.528 18.551-2.528 18.551l-4.834 16.757a3.397 3.397 0 0 0-1.802 3.168 3.403 3.403 0 1 0 6.647-1.167l6.467-17.785 1.233-15.312v-8.023a1.17 1.17 0 0 0-.648-1.048ZM113.799 101.698s3.563-.648 4.535 4.859 2.528 18.551 2.528 18.551l4.834 16.757c.57.302 1.042.761 1.361 1.322a3.395 3.395 0 0 1-.175 3.641 3.403 3.403 0 0 1-6.031-2.962l-6.467-17.785-1.233-15.312v-8.023a1.165 1.165 0 0 1 .648-1.048Z"/><path fill="#FB1" d="m113.527 97.145-6.74-2.52-13.064-.169-5.623 2.69 1.579 9.077s-3.189 5.4.322 10.8l.788 19.242s12.596 7.304 23.227-1.467l-2.402-17.891s4.019-8.3.903-11.384l1.01-8.377Z"/><path fill="#FB1" d="m110.782 99.966 2.745-2.82s5.992 3.151 5.868 13.691l-7.557-2.329-1.056-8.542ZM91.15 99.966l-2.917-2.916s-5.147 3.981-5.023 14.521l6.884-3.063 1.056-8.541Z"/><path fill="#FEB8B8" d="M110.163 148.794s-2.1-4.417-5.606-2.3c-3.506 2.118-9.957 5.635-9.957 5.635s-1.51 2.522 1.786 1.859c3.294-.664 13.879-1.181 13.879-1.181l-.102-4.013Z"/><path fill="#2F2E41" d="M104.33 69.831c.029-.029.06-.054.09-.083 1.876-1.876 2.256-4.538.849-5.945-1.33-1.33-3.779-1.061-5.628.555-1.585-1.509-3.71-1.93-5.086-.888-1.587 1.201-1.574 3.89.028 6.005.11.145.224.282.343.414a11.077 11.077 0 0 0-7.27 10.402v10.543a2.352 2.352 0 0 0 2.354 2.354h19.485a2.273 2.273 0 0 0 2.276-2.275V80.291a11.077 11.077 0 0 0-7.441-10.46Z"/><path fill="#FFB6B6" d="M106.559 89.428a9.247 9.247 0 1 0-13.076-13.076 9.247 9.247 0 0 0 13.076 13.076Z"/><path fill="#2F2E41" d="M90.305 77.074a12.575 12.575 0 0 0 7.187 2.221 7.707 7.707 0 0 1-3.054 1.257c3.412.732 6.938.752 10.358.058a6.707 6.707 0 0 0 2.168-.745 2.75 2.75 0 0 0 1.339-1.79c.227-1.298-.785-2.477-1.836-3.272a13.546 13.546 0 0 0-11.379-2.274c-1.27.329-2.544.884-3.37 1.904-.825 1.021-1.07 2.595-.283 3.646l-1.13-1.005Z"/><path fill="#F2F2F2" d="m40.848 58.623.292-.393 7.762 5.758c-.422-1.286-1.915-5.362-4.363-6.988-2.924-1.943-4.981-1.339-6.102.349-1.12 1.687-.88 3.818 2.043 5.76 2.48 1.647 6.895 1.418 8.183 1.31l-7.815-5.796ZM157.645 27.098l.36.331-6.534 7.122c1.323-.286 5.532-1.347 7.404-3.613 2.236-2.706 1.849-4.815.288-6.105s-3.706-1.274-5.942 1.433c-1.896 2.294-2.127 6.71-2.154 8.002l6.578-7.17ZM52.266 103.137l.36.331-6.534 7.122c1.322-.286 5.532-1.347 7.404-3.613 2.236-2.706 1.849-4.815.288-6.105-1.562-1.29-3.706-1.274-5.942 1.433-1.896 2.294-2.128 6.709-2.154 8.002l6.578-7.17ZM107.517 35.26l.423.244-4.841 8.366c1.23-.565 5.11-2.511 6.449-5.127 1.598-3.126.764-5.102-1.039-6.024-1.803-.922-3.893-.442-5.492 2.683-1.355 2.65-.627 7.011-.373 8.279l4.873-8.422ZM152.749 87.582l.423.245-4.84 8.365c1.23-.565 5.11-2.51 6.448-5.127 1.599-3.126.765-5.101-1.038-6.023-1.804-.923-3.894-.443-5.492 2.683-1.356 2.65-.627 7.011-.374 8.279l4.873-8.422Z"/></g><defs><clipPath id="a"><path fill="#fff" d="M0 24h200v151.141H0z"/></clipPath></defs></svg>