<svg xmlns="http://www.w3.org/2000/svg" width="200" height="200" fill="none"><g clip-path="url(#a)"><path fill="#3F3D56" d="M72.951 125.444a.87.87 0 0 0-.87.87v34.755a.87.87 0 0 0 .87.871h5.9a.871.871 0 0 0 .87-.871v-34.755a.87.87 0 0 0-.87-.87h-5.9ZM122.014 125.444a.87.87 0 0 0-.87.87v34.755a.87.87 0 0 0 .87.871h5.9a.87.87 0 0 0 .87-.871v-34.755a.87.87 0 0 0-.87-.87h-5.9ZM149.578 97.83l-45.237-3.492 36.09 6.153 8.648-1.496.499-1.165Z"/><path fill="#FB1" d="m140.763 99.944 8.649-1.497.085-.198.414.032-.499 1.164-8.649 1.497-36.09-6.604 10.696 1.276 25.394 4.33Z"/><path fill="#3F3D56" d="M47.129 97.83 1.89 94.338l36.09 6.153 8.649-1.496.499-1.165Z"/><path fill="#FB1" d="m37.482 99.944 8.649-1.497.085-.198.414.032-.5 1.164-8.648 1.497-36.09-6.604 10.695 1.276 25.395 4.33Z"/><path fill="#3F3D56" d="m157.229 115.959-3.826.166-35.044 14.785-2.005 1.68-6.359 5.322H90.038l-6.01-5.322-2.286-2.024-33.616-14.275-2.993-.332 9.979-4.823h.053c2.262-2.148 21.85-3.826 45.683-3.826s43.421 1.678 45.683 3.826h.22l10.478 4.823Z"/><path fill="#3F3D56" d="M54.837 111.382a1.86 1.86 0 0 0 .108-.621v-7.899a1.87 1.87 0 0 0-1.871-1.872h-.76a4.486 4.486 0 0 0 .955-4.888 4.49 4.49 0 1 0-7.335 4.888h-.76a1.873 1.873 0 0 0-1.87 1.872v7.899c-.001.324.083.641.243.922-.564.099-1.13.207-1.694.331a1.55 1.55 0 0 0-1.21 1.515v1.876a1.55 1.55 0 0 0 1.55 1.552h17.575V112.3a40.055 40.055 0 0 0-4.93-.918ZM158.845 112.014a40.797 40.797 0 0 0-1.694-.331c.16-.281.244-.598.244-.922v-7.899a1.871 1.871 0 0 0-1.872-1.872h-.759a4.493 4.493 0 0 0 .955-4.888 4.495 4.495 0 0 0-4.145-2.763 4.492 4.492 0 0 0-3.19 7.651h-.76a1.871 1.871 0 0 0-1.871 1.872v7.899c0 .212.037.422.108.621a40.037 40.037 0 0 0-4.931.918v4.657h17.575a1.55 1.55 0 0 0 1.551-1.552v-1.876a1.552 1.552 0 0 0-1.211-1.515Z"/><path fill="#3F3D56" d="m153.57 97.83 45.237-3.492-36.09 6.153-8.648-1.496-.499-1.165ZM103.526 136.415h-7.018a1.97 1.97 0 0 0-1.4.58 1.983 1.983 0 0 0-.58 1.4v1.529a1.98 1.98 0 0 0 1.28 1.85c-.29.348-.449.787-.448 1.241v.439a1.943 1.943 0 0 0 .832 1.592v5.839h7.65v-5.839a1.943 1.943 0 0 0 .831-1.592v-.439a1.932 1.932 0 0 0-.448-1.241c.376-.142.7-.395.929-.725.228-.331.351-.723.351-1.125v-1.529a1.972 1.972 0 0 0-.58-1.4 1.967 1.967 0 0 0-1.399-.58Z"/><path fill="#FB1" d="M92.885 150.058a1.183 1.183 0 0 0-1.179 1.179v9.441a1.18 1.18 0 0 0 1.179 1.178h14.263a1.18 1.18 0 0 0 1.179-1.178v-9.441a1.178 1.178 0 0 0-1.179-1.179H92.885ZM116.353 132.59l-6.358 5.322H90.037l-6.01-5.322h5.977l.261-1.302a1.692 1.692 0 0 1 1.657-1.359h16.688a1.689 1.689 0 0 1 1.656 1.359l.261 1.302h5.826Z"/><path fill="#3F3D56" d="M100.017 160.614a4.656 4.656 0 1 0 0-9.312 4.656 4.656 0 0 0 0 9.312Z"/><path fill="#E6E6E6" d="M100.016 158.618a2.661 2.661 0 1 0 .001-5.323 2.661 2.661 0 0 0-.001 5.323Z"/><path fill="#fff" d="M101.625 153.841a2.657 2.657 0 0 1-3.725 3.725 2.667 2.667 0 0 0 3.052.883 2.655 2.655 0 0 0 .673-4.608Z"/><path fill="#E6E6E6" d="M160.139 113.998H40.726v.762h119.413v-.762Z"/><path fill="#FB1" d="m163.05 99.944-8.649-1.497-.085-.198-.414.032.499 1.164 8.649 1.497 36.09-6.604-10.696 1.276-25.394 4.33Z"/><path fill="#3F3D56" d="m51.12 97.83 45.238-3.492-36.09 6.153-8.649-1.496-.499-1.165Z"/><path fill="#FB1" d="m60.766 99.944-8.648-1.497-.085-.198-.414.032.499 1.164 8.648 1.497 36.09-6.604-10.695 1.276-25.395 4.33Z"/><path fill="#E6E6E6" d="M106.918 131.343H93.613v2.661h13.305v-2.661ZM57.481 38H17.15a5.404 5.404 0 0 0-5.398 5.397V64.81a5.404 5.404 0 0 0 5.398 5.397H57.48a5.403 5.403 0 0 0 5.398-5.397V43.397A5.403 5.403 0 0 0 57.48 38Z"/><path fill="#fff" d="M17.15 42.392a1.007 1.007 0 0 0-1.005 1.005V64.81a1.007 1.007 0 0 0 1.005 1.005h40.331a1.007 1.007 0 0 0 1.006-1.005V43.397a1.006 1.006 0 0 0-1.006-1.005H17.15Z"/><path fill="#FB1" d="M36.5 63.558a.721.721 0 0 1-.486-.186.727.727 0 0 1-.232-.422l-2.334-14.005-2.061 8.244a.727.727 0 0 1-.706.551h-2.909a.727.727 0 0 1 0-1.455h2.341L32.885 45.2a.727.727 0 0 1 1.423.057l2.378 14.272 2.023-7.08a.728.728 0 0 1 1.39-.03l1.288 3.866h2.385a.727.727 0 0 1 0 1.455h-2.91a.728.728 0 0 1-.689-.497l-.711-2.134-2.263 7.922a.727.727 0 0 1-.7.527Z"/><path fill="#3F3D56" d="M45.447 59.164a2.14 2.14 0 1 0 0-4.28 2.14 2.14 0 0 0 0 4.28Z"/><path fill="#E6E6E6" d="M120.094 38H79.763a5.403 5.403 0 0 0-5.398 5.397V64.81a5.403 5.403 0 0 0 5.398 5.397h40.331a5.404 5.404 0 0 0 5.397-5.397V43.397A5.4 5.4 0 0 0 120.094 38Z"/><path fill="#fff" d="M79.762 42.392a1.007 1.007 0 0 0-1.005 1.005V64.81a1.007 1.007 0 0 0 1.005 1.005h40.332a1.005 1.005 0 0 0 1.005-1.005V43.397a1.003 1.003 0 0 0-1.005-1.005H79.762Z"/><path fill="#FB1" d="M99.928 55.256a5.32 5.32 0 1 0 0-10.64 5.32 5.32 0 1 0 0 10.64ZM99.928 56.143a7.092 7.092 0 0 1 7.094 7.093v.355H92.835v-.355a7.093 7.093 0 0 1 7.093-7.093Z"/><path fill="#3F3D56" d="M89.11 57.916a3.724 3.724 0 1 0 0-7.448 3.724 3.724 0 0 0 0 7.448ZM92.758 59.627a4.964 4.964 0 0 0-8.258 3.715v.249h7.27v-.355a7.058 7.058 0 0 1 .988-3.609ZM110.745 57.916a3.724 3.724 0 1 0 0-7.447 3.724 3.724 0 0 0 0 7.447Z"/><path fill="#3F3D56" d="M107.098 59.627a4.967 4.967 0 0 1 7.463 1.02c.519.803.795 1.739.795 2.696v.248h-7.271v-.355a7.05 7.05 0 0 0-.987-3.609Z"/><path fill="#E6E6E6" d="M182.706 38h-40.331a5.404 5.404 0 0 0-5.397 5.397V64.81a5.4 5.4 0 0 0 5.397 5.397h40.331a5.404 5.404 0 0 0 5.398-5.397V43.397A5.405 5.405 0 0 0 182.706 38Z"/><path fill="#fff" d="M142.375 42.392a1.01 1.01 0 0 0-1.005 1.005V64.81a1.007 1.007 0 0 0 1.005 1.005h40.331a1.006 1.006 0 0 0 1.006-1.005V43.397a1.003 1.003 0 0 0-1.006-1.005h-40.331Z"/><path fill="#FB1" d="M161.866 64.005a.66.66 0 0 1-.66-.66v-5.28a.661.661 0 0 1 1.126-.467.662.662 0 0 1 .194.466v5.281a.663.663 0 0 1-.408.61.659.659 0 0 1-.252.05Z"/><path fill="#FB1" d="M164.176 61.365h-4.621a.661.661 0 0 1 0-1.32h4.621a.661.661 0 0 1 0 1.32ZM170.777 48.823a.664.664 0 0 1-.61-.408.663.663 0 0 1-.05-.252v-2.64h-2.64a.66.66 0 1 1 0-1.321h3.3a.66.66 0 0 1 .66.66v3.3a.663.663 0 0 1-.407.61.66.66 0 0 1-.253.05Z"/><path fill="#FB1" d="M166.787 49.512a.658.658 0 0 1-.648-.788.66.66 0 0 1 .181-.338l3.99-3.99a.661.661 0 0 1 .934.933l-3.991 3.99a.656.656 0 0 1-.466.193Z"/><path fill="#3F3D56" d="M161.865 58.064a6.273 6.273 0 0 1-5.793-3.87 6.268 6.268 0 0 1 1.359-6.835 6.27 6.27 0 1 1 8.867 8.866 6.28 6.28 0 0 1-4.433 1.84Zm0-11.222a4.95 4.95 0 0 0-3.5 8.452 4.948 4.948 0 0 0 7.617-.75 4.95 4.95 0 0 0-4.117-7.702ZM200 161.849H0v.504h200v-.504Z"/></g><defs><clipPath id="a"><path fill="#fff" d="M0 38h200v124.353H0z"/></clipPath></defs></svg>